<svg xmlns="http://www.w3.org/2000/svg" xmlns:xlink="http://www.w3.org/1999/xlink" viewBox="0 0 440 440"><defs><style>.cls-1,.cls-10,.cls-11,.cls-5,.cls-6{fill:none;}.cls-2{fill:#ea4335;}.cls-3{clip-path:url(#clip-path);}.cls-4{clip-path:url(#clip-path-2);}.cls-5,.cls-6{stroke:#ff847e;}.cls-10,.cls-11,.cls-5,.cls-6{stroke-miterlimit:10;}.cls-10,.cls-5{stroke-width:0.5px;}.cls-11,.cls-6{stroke-width:1.5px;}.cls-7{clip-path:url(#clip-path-3);}.cls-8{clip-path:url(#clip-path-4);}.cls-9{fill:#fbbc04;}.cls-10,.cls-11{stroke:#fde293;}</style><clipPath id="clip-path"><rect class="cls-1" x="-647.25" width="440" height="440"/></clipPath><clipPath id="clip-path-2"><rect class="cls-2" x="-1147.28" y="-187" width="1440" height="810"/></clipPath><clipPath id="clip-path-3"><rect class="cls-1" width="440" height="440"/></clipPath><clipPath id="clip-path-4"><rect class="cls-1" x="-500" y="-185" width="1440" height="810"/></clipPath></defs><g id="Safe_Zone" data-name="Safe Zone"><g class="cls-3"><rect class="cls-2" x="-1147.28" y="-187" width="1440" height="810"/><g class="cls-4"><rect class="cls-2" x="-157.28" y="-187" width="270" height="270"/><line class="cls-5" x1="14.54" y1="-187" x2="14.54" y2="83"/><line class="cls-5" x1="39.09" y1="-187" x2="39.09" y2="83"/><line class="cls-5" x1="63.63" y1="-187" x2="63.63" y2="83"/><line class="cls-5" x1="88.18" y1="-187" x2="88.18" y2="83"/><line class="cls-5" x1="112.72" y1="-187" x2="112.72" y2="83"/><line class="cls-5" x1="-157.28" y1="9.36" x2="112.72" y2="9.36"/><line class="cls-5" x1="-157.28" y1="33.91" x2="112.72" y2="33.91"/><line class="cls-5" x1="-157.28" y1="58.45" x2="112.72" y2="58.45"/><line class="cls-5" x1="-157.28" y1="83" x2="112.72" y2="83"/><rect class="cls-2" x="112.72" y="-187" width="270" height="270"/><line class="cls-5" x1="112.72" y1="-187" x2="112.72" y2="83"/><line class="cls-5" x1="137.27" y1="-187" x2="137.27" y2="83"/><line class="cls-5" x1="161.81" y1="-187" x2="161.81" y2="83"/><line class="cls-5" x1="186.36" y1="-187" x2="186.36" y2="83"/><line class="cls-5" x1="210.91" y1="-187" x2="210.91" y2="83"/><line class="cls-5" x1="235.45" y1="-187" x2="235.45" y2="83"/><line class="cls-5" x1="260" y1="-187" x2="260" y2="83"/><line class="cls-5" x1="284.54" y1="-187" x2="284.54" y2="83"/><line class="cls-5" x1="309.09" y1="-187" x2="309.09" y2="83"/><line class="cls-5" x1="333.63" y1="-187" x2="333.63" y2="83"/><line class="cls-5" x1="358.18" y1="-187" x2="358.18" y2="83"/><line class="cls-5" x1="382.72" y1="-187" x2="382.72" y2="83"/><line class="cls-5" x1="112.72" y1="9.36" x2="382.72" y2="9.36"/><line class="cls-5" x1="112.72" y1="33.91" x2="382.72" y2="33.91"/><line class="cls-5" x1="112.72" y1="58.45" x2="382.72" y2="58.45"/><line class="cls-5" x1="112.72" y1="83" x2="382.72" y2="83"/><rect class="cls-2" x="-157.28" y="83" width="270" height="270"/><line class="cls-5" x1="-157.28" y1="107.55" x2="112.72" y2="107.55"/><line class="cls-5" x1="-157.28" y1="132.09" x2="112.72" y2="132.09"/><line class="cls-5" x1="-157.28" y1="83" x2="112.72" y2="83"/><line class="cls-5" x1="-157.28" y1="156.64" x2="112.72" y2="156.64"/><line class="cls-5" x1="-157.28" y1="181.18" x2="112.72" y2="181.18"/><line class="cls-5" x1="-157.28" y1="205.73" x2="112.72" y2="205.73"/><line class="cls-5" x1="-157.28" y1="230.27" x2="112.72" y2="230.27"/><line class="cls-5" x1="14.54" y1="83" x2="14.54" y2="353"/><line class="cls-5" x1="39.09" y1="83" x2="39.09" y2="353"/><line class="cls-5" x1="63.63" y1="83" x2="63.63" y2="353"/><line class="cls-5" x1="88.18" y1="83" x2="88.18" y2="353"/><line class="cls-5" x1="112.72" y1="83" x2="112.72" y2="353"/><line class="cls-5" x1="-157.28" y1="254.82" x2="112.72" y2="254.82"/><line class="cls-5" x1="-157.28" y1="279.36" x2="112.72" y2="279.36"/><line class="cls-5" x1="-157.28" y1="303.91" x2="112.72" y2="303.91"/><line class="cls-5" x1="-157.28" y1="328.45" x2="112.72" y2="328.45"/><line class="cls-5" x1="-157.28" y1="353" x2="112.72" y2="353"/><rect class="cls-2" x="112.72" y="83" width="270" height="270"/><line class="cls-5" x1="112.72" y1="83" x2="112.72" y2="353"/><line class="cls-5" x1="112.72" y1="107.55" x2="382.72" y2="107.55"/><line class="cls-5" x1="112.72" y1="132.09" x2="382.72" y2="132.09"/><line class="cls-5" x1="112.72" y1="83" x2="382.72" y2="83"/><line class="cls-5" x1="112.72" y1="156.64" x2="382.72" y2="156.64"/><line class="cls-5" x1="112.72" y1="181.18" x2="382.72" y2="181.18"/><line class="cls-5" x1="112.72" y1="205.73" x2="382.72" y2="205.73"/><line class="cls-5" x1="112.72" y1="230.27" x2="382.72" y2="230.27"/><line class="cls-5" x1="137.27" y1="83" x2="137.27" y2="353"/><line class="cls-5" x1="161.81" y1="83" x2="161.81" y2="353"/><line class="cls-5" x1="186.36" y1="83" x2="186.36" y2="353"/><line class="cls-5" x1="210.91" y1="83" x2="210.91" y2="353"/><line class="cls-5" x1="235.45" y1="83" x2="235.45" y2="353"/><line class="cls-5" x1="260" y1="83" x2="260" y2="353"/><line class="cls-5" x1="284.54" y1="83" x2="284.54" y2="353"/><line class="cls-5" x1="309.09" y1="83" x2="309.09" y2="353"/><line class="cls-5" x1="333.63" y1="83" x2="333.63" y2="353"/><line class="cls-5" x1="358.18" y1="83" x2="358.18" y2="353"/><line class="cls-5" x1="382.72" y1="83" x2="382.72" y2="353"/><line class="cls-5" x1="112.72" y1="254.82" x2="382.72" y2="254.82"/><line class="cls-5" x1="112.72" y1="279.36" x2="382.72" y2="279.36"/><line class="cls-5" x1="112.72" y1="303.91" x2="382.72" y2="303.91"/><line class="cls-5" x1="112.72" y1="328.45" x2="382.72" y2="328.45"/><line class="cls-5" x1="112.72" y1="353" x2="382.72" y2="353"/><rect class="cls-2" x="-157.28" y="353" width="270" height="270"/><line class="cls-5" x1="-157.28" y1="377.55" x2="112.72" y2="377.55"/><line class="cls-5" x1="-157.28" y1="402.09" x2="112.72" y2="402.09"/><line class="cls-5" x1="-157.28" y1="353" x2="112.72" y2="353"/><line class="cls-5" x1="-157.28" y1="426.64" x2="112.72" y2="426.64"/><line class="cls-5" x1="14.54" y1="353" x2="14.54" y2="623"/><line class="cls-5" x1="39.09" y1="353" x2="39.09" y2="623"/><line class="cls-5" x1="63.63" y1="353" x2="63.63" y2="623"/><line class="cls-5" x1="88.18" y1="353" x2="88.18" y2="623"/><line class="cls-5" x1="112.72" y1="353" x2="112.72" y2="623"/><rect class="cls-2" x="112.72" y="353" width="270" height="270"/><line class="cls-5" x1="112.72" y1="353" x2="112.72" y2="623"/><line class="cls-5" x1="112.72" y1="377.55" x2="382.72" y2="377.55"/><line class="cls-5" x1="112.72" y1="402.09" x2="382.72" y2="402.09"/><line class="cls-5" x1="112.72" y1="353" x2="382.72" y2="353"/><line class="cls-5" x1="112.72" y1="426.64" x2="382.72" y2="426.64"/><line class="cls-5" x1="137.27" y1="353" x2="137.27" y2="623"/><line class="cls-5" x1="161.81" y1="353" x2="161.81" y2="623"/><line class="cls-5" x1="186.36" y1="353" x2="186.36" y2="623"/><line class="cls-5" x1="210.91" y1="353" x2="210.91" y2="623"/><line class="cls-5" x1="235.45" y1="353" x2="235.45" y2="623"/><line class="cls-5" x1="260" y1="353" x2="260" y2="623"/><line class="cls-5" x1="284.54" y1="353" x2="284.54" y2="623"/><line class="cls-5" x1="309.09" y1="353" x2="309.09" y2="623"/><line class="cls-5" x1="333.63" y1="353" x2="333.63" y2="623"/><line class="cls-5" x1="358.18" y1="353" x2="358.18" y2="623"/><line class="cls-5" x1="382.72" y1="353" x2="382.72" y2="623"/></g><line class="cls-6" x1="112.72" y1="-187" x2="112.72" y2="623"/><line class="cls-6" x1="292.72" y1="353" x2="-1147.28" y2="353"/><line class="cls-6" x1="292.72" y1="83" x2="-1147.28" y2="83"/></g><g class="cls-7"><g class="cls-8"><rect class="cls-9" x="-50" y="-185" width="270" height="270"/><line class="cls-10" x1="23.64" y1="-185" x2="23.64" y2="85"/><line class="cls-10" x1="48.18" y1="-185" x2="48.18" y2="85"/><line class="cls-10" x1="72.73" y1="-185" x2="72.73" y2="85"/><line class="cls-10" x1="97.27" y1="-185" x2="97.27" y2="85"/><line class="cls-10" x1="121.82" y1="-185" x2="121.82" y2="85"/><line class="cls-10" x1="146.36" y1="-185" x2="146.36" y2="85"/><line class="cls-10" x1="170.91" y1="-185" x2="170.91" y2="85"/><line class="cls-10" x1="195.45" y1="-185" x2="195.45" y2="85"/><line class="cls-10" x1="220" y1="-185" x2="220" y2="85"/><line class="cls-10" x1="-50" y1="11.36" x2="220" y2="11.36"/><line class="cls-10" x1="-50" y1="35.91" x2="220" y2="35.91"/><line class="cls-10" x1="-50" y1="60.45" x2="220" y2="60.45"/><line class="cls-10" x1="-50" y1="85" x2="220" y2="85"/><rect class="cls-9" x="-50" y="85" width="270" height="270"/><line class="cls-10" x1="-50" y1="109.55" x2="220" y2="109.55"/><line class="cls-10" x1="-50" y1="134.09" x2="220" y2="134.09"/><line class="cls-10" x1="-50" y1="85" x2="220" y2="85"/><line class="cls-10" x1="-50" y1="158.64" x2="220" y2="158.64"/><line class="cls-10" x1="-50" y1="183.18" x2="220" y2="183.18"/><line class="cls-10" x1="-50" y1="207.73" x2="220" y2="207.73"/><line class="cls-10" x1="-50" y1="232.27" x2="220" y2="232.27"/><line class="cls-10" x1="23.64" y1="85" x2="23.64" y2="355"/><line class="cls-10" x1="48.18" y1="85" x2="48.18" y2="355"/><line class="cls-10" x1="72.73" y1="85" x2="72.73" y2="355"/><line class="cls-10" x1="97.27" y1="85" x2="97.27" y2="355"/><line class="cls-10" x1="121.82" y1="85" x2="121.82" y2="355"/><line class="cls-10" x1="146.36" y1="85" x2="146.36" y2="355"/><line class="cls-10" x1="170.91" y1="85" x2="170.91" y2="355"/><line class="cls-10" x1="195.45" y1="85" x2="195.45" y2="355"/><line class="cls-10" x1="220" y1="85" x2="220" y2="355"/><line class="cls-10" x1="-50" y1="256.82" x2="220" y2="256.82"/><line class="cls-10" x1="-50" y1="281.36" x2="220" y2="281.36"/><line class="cls-10" x1="-50" y1="305.91" x2="220" y2="305.91"/><line class="cls-10" x1="-50" y1="330.45" x2="220" y2="330.45"/><line class="cls-10" x1="-50" y1="355" x2="220" y2="355"/><rect class="cls-9" x="-50" y="355" width="270" height="270"/><line class="cls-10" x1="-50" y1="379.55" x2="220" y2="379.55"/><line class="cls-10" x1="-50" y1="404.09" x2="220" y2="404.09"/><line class="cls-10" x1="-50" y1="355" x2="220" y2="355"/><line class="cls-10" x1="-50" y1="428.64" x2="220" y2="428.64"/><line class="cls-10" x1="23.64" y1="355" x2="23.64" y2="625"/><line class="cls-10" x1="48.18" y1="355" x2="48.18" y2="625"/><line class="cls-10" x1="72.73" y1="355" x2="72.73" y2="625"/><line class="cls-10" x1="97.27" y1="355" x2="97.27" y2="625"/><line class="cls-10" x1="121.82" y1="355" x2="121.82" y2="625"/><line class="cls-10" x1="146.36" y1="355" x2="146.36" y2="625"/><line class="cls-10" x1="170.91" y1="355" x2="170.91" y2="625"/><line class="cls-10" x1="195.45" y1="355" x2="195.45" y2="625"/><line class="cls-10" x1="220" y1="355" x2="220" y2="625"/><rect class="cls-9" x="220" y="-185" width="270" height="270"/><line class="cls-10" x1="220" y1="-185" x2="220" y2="85"/><line class="cls-10" x1="244.55" y1="-185" x2="244.55" y2="85"/><line class="cls-10" x1="269.09" y1="-185" x2="269.09" y2="85"/><line class="cls-10" x1="293.64" y1="-185" x2="293.64" y2="85"/><line class="cls-10" x1="318.18" y1="-185" x2="318.18" y2="85"/><line class="cls-10" x1="342.73" y1="-185" x2="342.73" y2="85"/><line class="cls-10" x1="367.27" y1="-185" x2="367.27" y2="85"/><line class="cls-10" x1="391.82" y1="-185" x2="391.82" y2="85"/><line class="cls-10" x1="416.36" y1="-185" x2="416.36" y2="85"/><line class="cls-10" x1="220" y1="11.36" x2="490" y2="11.36"/><line class="cls-10" x1="220" y1="35.91" x2="490" y2="35.91"/><line class="cls-10" x1="220" y1="60.45" x2="490" y2="60.45"/><line class="cls-10" x1="220" y1="85" x2="490" y2="85"/><rect class="cls-9" x="220" y="85" width="270" height="270"/><line class="cls-10" x1="220" y1="85" x2="220" y2="355"/><line class="cls-10" x1="220" y1="109.55" x2="490" y2="109.55"/><line class="cls-10" x1="220" y1="134.09" x2="490" y2="134.09"/><line class="cls-10" x1="220" y1="85" x2="490" y2="85"/><line class="cls-10" x1="220" y1="158.64" x2="490" y2="158.64"/><line class="cls-10" x1="220" y1="183.18" x2="490" y2="183.18"/><line class="cls-10" x1="220" y1="207.73" x2="490" y2="207.73"/><line class="cls-10" x1="220" y1="232.27" x2="490" y2="232.27"/><line class="cls-10" x1="244.55" y1="85" x2="244.55" y2="355"/><line class="cls-10" x1="269.09" y1="85" x2="269.09" y2="355"/><line class="cls-10" x1="293.64" y1="85" x2="293.64" y2="355"/><line class="cls-10" x1="318.18" y1="85" x2="318.18" y2="355"/><line class="cls-10" x1="342.73" y1="85" x2="342.73" y2="355"/><line class="cls-10" x1="367.27" y1="85" x2="367.27" y2="355"/><line class="cls-10" x1="391.82" y1="85" x2="391.82" y2="355"/><line class="cls-10" x1="416.36" y1="85" x2="416.36" y2="355"/><line class="cls-10" x1="220" y1="256.82" x2="490" y2="256.82"/><line class="cls-10" x1="220" y1="281.36" x2="490" y2="281.36"/><line class="cls-10" x1="220" y1="305.91" x2="490" y2="305.91"/><line class="cls-10" x1="220" y1="330.45" x2="490" y2="330.45"/><line class="cls-10" x1="220" y1="355" x2="490" y2="355"/><rect class="cls-9" x="220" y="355" width="270" height="270"/><line class="cls-10" x1="220" y1="355" x2="220" y2="625"/><line class="cls-10" x1="220" y1="379.55" x2="490" y2="379.55"/><line class="cls-10" x1="220" y1="404.09" x2="490" y2="404.09"/><line class="cls-10" x1="220" y1="355" x2="490" y2="355"/><line class="cls-10" x1="220" y1="428.64" x2="490" y2="428.64"/><line class="cls-10" x1="244.55" y1="355" x2="244.55" y2="625"/><line class="cls-10" x1="269.09" y1="355" x2="269.09" y2="625"/><line class="cls-10" x1="293.64" y1="355" x2="293.64" y2="625"/><line class="cls-10" x1="318.18" y1="355" x2="318.18" y2="625"/><line class="cls-10" x1="342.73" y1="355" x2="342.73" y2="625"/><line class="cls-10" x1="367.27" y1="355" x2="367.27" y2="625"/><line class="cls-10" x1="391.82" y1="355" x2="391.82" y2="625"/><line class="cls-10" x1="416.36" y1="355" x2="416.36" y2="625"/></g><line class="cls-11" x1="220" y1="-185" x2="220" y2="625"/><line class="cls-11" x1="940" y1="355" x2="-500" y2="355"/><line class="cls-11" x1="940" y1="85" x2="-500" y2="85"/><circle class="cls-1" cx="220" cy="220" r="220"/></g></g></svg>