<svg xmlns="http://www.w3.org/2000/svg" xmlns:xlink="http://www.w3.org/1999/xlink" viewBox="0 0 440 440"><defs><style>.cls-1,.cls-10,.cls-11,.cls-6,.cls-7{fill:none;}.cls-2{fill:#4285f4;}.cls-3{clip-path:url(#clip-path);}.cls-4{clip-path:url(#clip-path-2);}.cls-5{fill:#34a853;}.cls-6,.cls-7{stroke:#81c995;}.cls-10,.cls-11,.cls-6,.cls-7{stroke-miterlimit:10;}.cls-10,.cls-6{stroke-width:0.5px;}.cls-11,.cls-7{stroke-width:1.5px;}.cls-8{clip-path:url(#clip-path-3);}.cls-9{clip-path:url(#clip-path-4);}.cls-10,.cls-11{stroke:#8ab4f8;}</style><clipPath id="clip-path"><rect class="cls-1" x="640" width="440" height="440"/></clipPath><clipPath id="clip-path-2"><rect class="cls-1" x="140" y="-183" width="1440" height="810"/></clipPath><clipPath id="clip-path-3"><rect class="cls-1" width="440" height="440"/></clipPath><clipPath id="clip-path-4"><rect class="cls-2" x="-500" y="-185" width="1440" height="810"/></clipPath></defs><g id="Safe_Zone" data-name="Safe Zone"><circle class="cls-1" cx="220" cy="220" r="220"/><g class="cls-3"><g class="cls-4"><rect class="cls-5" x="320" y="-183" width="270" height="270"/><line class="cls-6" x1="320" y1="-183" x2="320" y2="87"/><line class="cls-6" x1="344.55" y1="-183" x2="344.55" y2="87"/><line class="cls-6" x1="369.09" y1="-183" x2="369.09" y2="87"/><line class="cls-6" x1="393.64" y1="-183" x2="393.64" y2="87"/><line class="cls-6" x1="418.18" y1="-183" x2="418.18" y2="87"/><line class="cls-6" x1="320" y1="13.36" x2="590" y2="13.36"/><line class="cls-6" x1="320" y1="37.91" x2="590" y2="37.91"/><line class="cls-6" x1="320" y1="62.45" x2="590" y2="62.45"/><line class="cls-6" x1="320" y1="87" x2="590" y2="87"/><rect class="cls-5" x="320" y="87" width="270" height="270"/><line class="cls-6" x1="320" y1="87" x2="320" y2="357"/><line class="cls-6" x1="320" y1="111.55" x2="590" y2="111.55"/><line class="cls-6" x1="320" y1="136.09" x2="590" y2="136.09"/><line class="cls-6" x1="320" y1="87" x2="590" y2="87"/><line class="cls-6" x1="320" y1="160.64" x2="590" y2="160.64"/><line class="cls-6" x1="320" y1="185.18" x2="590" y2="185.18"/><line class="cls-6" x1="320" y1="209.73" x2="590" y2="209.73"/><line class="cls-6" x1="320" y1="234.27" x2="590" y2="234.27"/><line class="cls-6" x1="344.55" y1="87" x2="344.55" y2="357"/><line class="cls-6" x1="369.09" y1="87" x2="369.09" y2="357"/><line class="cls-6" x1="393.64" y1="87" x2="393.64" y2="357"/><line class="cls-6" x1="418.18" y1="87" x2="418.18" y2="357"/><line class="cls-6" x1="320" y1="258.82" x2="590" y2="258.82"/><line class="cls-6" x1="320" y1="283.36" x2="590" y2="283.36"/><line class="cls-6" x1="320" y1="307.91" x2="590" y2="307.91"/><line class="cls-6" x1="320" y1="332.45" x2="590" y2="332.45"/><line class="cls-6" x1="320" y1="357" x2="590" y2="357"/><rect class="cls-5" x="50" y="-183" width="270" height="270"/><line class="cls-6" x1="50" y1="-183" x2="50" y2="87"/><line class="cls-6" x1="74.55" y1="-183" x2="74.55" y2="87"/><line class="cls-6" x1="99.09" y1="-183" x2="99.09" y2="87"/><line class="cls-6" x1="123.64" y1="-183" x2="123.64" y2="87"/><line class="cls-6" x1="148.18" y1="-183" x2="148.18" y2="87"/><line class="cls-6" x1="172.73" y1="-183" x2="172.73" y2="87"/><line class="cls-6" x1="197.27" y1="-183" x2="197.27" y2="87"/><line class="cls-6" x1="221.82" y1="-183" x2="221.82" y2="87"/><line class="cls-6" x1="246.36" y1="-183" x2="246.36" y2="87"/><line class="cls-6" x1="270.91" y1="-183" x2="270.91" y2="87"/><line class="cls-6" x1="295.45" y1="-183" x2="295.45" y2="87"/><line class="cls-6" x1="320" y1="-183" x2="320" y2="87"/><line class="cls-6" x1="50" y1="13.36" x2="320" y2="13.36"/><line class="cls-6" x1="50" y1="37.91" x2="320" y2="37.91"/><line class="cls-6" x1="50" y1="62.45" x2="320" y2="62.45"/><line class="cls-6" x1="50" y1="87" x2="320" y2="87"/><rect class="cls-5" x="50" y="87" width="270" height="270"/><line class="cls-6" x1="50" y1="87" x2="50" y2="357"/><line class="cls-6" x1="50" y1="111.55" x2="320" y2="111.55"/><line class="cls-6" x1="50" y1="136.09" x2="320" y2="136.09"/><line class="cls-6" x1="50" y1="87" x2="320" y2="87"/><line class="cls-6" x1="50" y1="160.64" x2="320" y2="160.64"/><line class="cls-6" x1="50" y1="185.18" x2="320" y2="185.18"/><line class="cls-6" x1="50" y1="209.73" x2="320" y2="209.73"/><line class="cls-6" x1="50" y1="234.27" x2="320" y2="234.27"/><line class="cls-6" x1="74.55" y1="87" x2="74.55" y2="357"/><line class="cls-6" x1="99.09" y1="87" x2="99.09" y2="357"/><line class="cls-6" x1="123.64" y1="87" x2="123.64" y2="357"/><line class="cls-6" x1="148.18" y1="87" x2="148.18" y2="357"/><line class="cls-6" x1="172.73" y1="87" x2="172.73" y2="357"/><line class="cls-6" x1="197.27" y1="87" x2="197.27" y2="357"/><line class="cls-6" x1="221.82" y1="87" x2="221.82" y2="357"/><line class="cls-6" x1="246.36" y1="87" x2="246.36" y2="357"/><line class="cls-6" x1="270.91" y1="87" x2="270.91" y2="357"/><line class="cls-6" x1="295.45" y1="87" x2="295.45" y2="357"/><line class="cls-6" x1="320" y1="87" x2="320" y2="357"/><line class="cls-6" x1="50" y1="258.82" x2="320" y2="258.82"/><line class="cls-6" x1="50" y1="283.36" x2="320" y2="283.36"/><line class="cls-6" x1="50" y1="307.91" x2="320" y2="307.91"/><line class="cls-6" x1="50" y1="332.45" x2="320" y2="332.45"/><line class="cls-6" x1="50" y1="357" x2="320" y2="357"/><rect class="cls-5" x="320" y="357" width="270" height="270"/><line class="cls-6" x1="320" y1="357" x2="320" y2="627"/><line class="cls-6" x1="320" y1="381.55" x2="590" y2="381.55"/><line class="cls-6" x1="320" y1="406.09" x2="590" y2="406.09"/><line class="cls-6" x1="320" y1="357" x2="590" y2="357"/><line class="cls-6" x1="320" y1="430.64" x2="590" y2="430.64"/><line class="cls-6" x1="344.55" y1="357" x2="344.55" y2="627"/><line class="cls-6" x1="369.09" y1="357" x2="369.09" y2="627"/><line class="cls-6" x1="393.64" y1="357" x2="393.64" y2="627"/><line class="cls-6" x1="418.18" y1="357" x2="418.18" y2="627"/><rect class="cls-5" x="50" y="357" width="270" height="270"/><line class="cls-6" x1="50" y1="357" x2="50" y2="627"/><line class="cls-6" x1="50" y1="381.55" x2="320" y2="381.55"/><line class="cls-6" x1="50" y1="406.09" x2="320" y2="406.09"/><line class="cls-6" x1="50" y1="357" x2="320" y2="357"/><line class="cls-6" x1="50" y1="430.64" x2="320" y2="430.64"/><line class="cls-6" x1="74.55" y1="357" x2="74.55" y2="627"/><line class="cls-6" x1="99.09" y1="357" x2="99.09" y2="627"/><line class="cls-6" x1="123.64" y1="357" x2="123.64" y2="627"/><line class="cls-6" x1="148.18" y1="357" x2="148.18" y2="627"/><line class="cls-6" x1="172.73" y1="357" x2="172.73" y2="627"/><line class="cls-6" x1="197.27" y1="357" x2="197.27" y2="627"/><line class="cls-6" x1="221.82" y1="357" x2="221.82" y2="627"/><line class="cls-6" x1="246.36" y1="357" x2="246.36" y2="627"/><line class="cls-6" x1="270.91" y1="357" x2="270.91" y2="627"/><line class="cls-6" x1="295.45" y1="357" x2="295.45" y2="627"/><line class="cls-6" x1="320" y1="357" x2="320" y2="627"/></g><line class="cls-7" x1="320" y1="-183" x2="320" y2="627"/><line class="cls-7" x1="1580" y1="357" x2="140" y2="357"/><line class="cls-7" x1="1580" y1="87" x2="140" y2="87"/></g><g class="cls-8"><rect class="cls-2" x="-500" y="-185" width="1440" height="810"/><g class="cls-9"><rect class="cls-2" x="-50" y="-185" width="270" height="270"/><line class="cls-10" x1="23.64" y1="-185" x2="23.64" y2="85"/><line class="cls-10" x1="48.18" y1="-185" x2="48.18" y2="85"/><line class="cls-10" x1="72.73" y1="-185" x2="72.73" y2="85"/><line class="cls-10" x1="97.27" y1="-185" x2="97.27" y2="85"/><line class="cls-10" x1="121.82" y1="-185" x2="121.82" y2="85"/><line class="cls-10" x1="146.36" y1="-185" x2="146.36" y2="85"/><line class="cls-10" x1="170.91" y1="-185" x2="170.91" y2="85"/><line class="cls-10" x1="195.45" y1="-185" x2="195.45" y2="85"/><line class="cls-10" x1="220" y1="-185" x2="220" y2="85"/><line class="cls-10" x1="-50" y1="11.36" x2="220" y2="11.36"/><line class="cls-10" x1="-50" y1="35.91" x2="220" y2="35.91"/><line class="cls-10" x1="-50" y1="60.45" x2="220" y2="60.45"/><line class="cls-10" x1="-50" y1="85" x2="220" y2="85"/><rect class="cls-2" x="-50" y="85" width="270" height="270"/><line class="cls-10" x1="-50" y1="109.55" x2="220" y2="109.55"/><line class="cls-10" x1="-50" y1="134.09" x2="220" y2="134.09"/><line class="cls-10" x1="-50" y1="85" x2="220" y2="85"/><line class="cls-10" x1="-50" y1="158.64" x2="220" y2="158.64"/><line class="cls-10" x1="-50" y1="183.18" x2="220" y2="183.18"/><line class="cls-10" x1="-50" y1="207.73" x2="220" y2="207.73"/><line class="cls-10" x1="-50" y1="232.27" x2="220" y2="232.27"/><line class="cls-10" x1="23.64" y1="85" x2="23.64" y2="355"/><line class="cls-10" x1="48.18" y1="85" x2="48.18" y2="355"/><line class="cls-10" x1="72.73" y1="85" x2="72.73" y2="355"/><line class="cls-10" x1="97.27" y1="85" x2="97.27" y2="355"/><line class="cls-10" x1="121.82" y1="85" x2="121.82" y2="355"/><line class="cls-10" x1="146.36" y1="85" x2="146.36" y2="355"/><line class="cls-10" x1="170.91" y1="85" x2="170.91" y2="355"/><line class="cls-10" x1="195.45" y1="85" x2="195.45" y2="355"/><line class="cls-10" x1="220" y1="85" x2="220" y2="355"/><line class="cls-10" x1="-50" y1="256.82" x2="220" y2="256.82"/><line class="cls-10" x1="-50" y1="281.36" x2="220" y2="281.36"/><line class="cls-10" x1="-50" y1="305.91" x2="220" y2="305.91"/><line class="cls-10" x1="-50" y1="330.45" x2="220" y2="330.45"/><line class="cls-10" x1="-50" y1="355" x2="220" y2="355"/><rect class="cls-2" x="-50" y="355" width="270" height="270"/><line class="cls-10" x1="-50" y1="379.55" x2="220" y2="379.55"/><line class="cls-10" x1="-50" y1="404.09" x2="220" y2="404.09"/><line class="cls-10" x1="-50" y1="355" x2="220" y2="355"/><line class="cls-10" x1="-50" y1="428.64" x2="220" y2="428.64"/><line class="cls-10" x1="23.64" y1="355" x2="23.64" y2="625"/><line class="cls-10" x1="48.18" y1="355" x2="48.18" y2="625"/><line class="cls-10" x1="72.73" y1="355" x2="72.73" y2="625"/><line class="cls-10" x1="97.27" y1="355" x2="97.27" y2="625"/><line class="cls-10" x1="121.82" y1="355" x2="121.82" y2="625"/><line class="cls-10" x1="146.36" y1="355" x2="146.36" y2="625"/><line class="cls-10" x1="170.91" y1="355" x2="170.91" y2="625"/><line class="cls-10" x1="195.45" y1="355" x2="195.45" y2="625"/><line class="cls-10" x1="220" y1="355" x2="220" y2="625"/><rect class="cls-2" x="220" y="-185" width="270" height="270"/><line class="cls-10" x1="220" y1="-185" x2="220" y2="85"/><line class="cls-10" x1="244.55" y1="-185" x2="244.55" y2="85"/><line class="cls-10" x1="269.09" y1="-185" x2="269.09" y2="85"/><line class="cls-10" x1="293.64" y1="-185" x2="293.64" y2="85"/><line class="cls-10" x1="318.18" y1="-185" x2="318.18" y2="85"/><line class="cls-10" x1="342.73" y1="-185" x2="342.73" y2="85"/><line class="cls-10" x1="367.27" y1="-185" x2="367.27" y2="85"/><line class="cls-10" x1="391.82" y1="-185" x2="391.82" y2="85"/><line class="cls-10" x1="416.36" y1="-185" x2="416.36" y2="85"/><line class="cls-10" x1="220" y1="11.36" x2="490" y2="11.36"/><line class="cls-10" x1="220" y1="35.91" x2="490" y2="35.91"/><line class="cls-10" x1="220" y1="60.45" x2="490" y2="60.45"/><line class="cls-10" x1="220" y1="85" x2="490" y2="85"/><rect class="cls-2" x="220" y="85" width="270" height="270"/><line class="cls-10" x1="220" y1="85" x2="220" y2="355"/><line class="cls-10" x1="220" y1="109.55" x2="490" y2="109.55"/><line class="cls-10" x1="220" y1="134.09" x2="490" y2="134.09"/><line class="cls-10" x1="220" y1="85" x2="490" y2="85"/><line class="cls-10" x1="220" y1="158.64" x2="490" y2="158.64"/><line class="cls-10" x1="220" y1="183.18" x2="490" y2="183.18"/><line class="cls-10" x1="220" y1="207.73" x2="490" y2="207.73"/><line class="cls-10" x1="220" y1="232.27" x2="490" y2="232.27"/><line class="cls-10" x1="244.55" y1="85" x2="244.55" y2="355"/><line class="cls-10" x1="269.09" y1="85" x2="269.09" y2="355"/><line class="cls-10" x1="293.64" y1="85" x2="293.64" y2="355"/><line class="cls-10" x1="318.18" y1="85" x2="318.18" y2="355"/><line class="cls-10" x1="342.73" y1="85" x2="342.73" y2="355"/><line class="cls-10" x1="367.27" y1="85" x2="367.27" y2="355"/><line class="cls-10" x1="391.82" y1="85" x2="391.82" y2="355"/><line class="cls-10" x1="416.36" y1="85" x2="416.36" y2="355"/><line class="cls-10" x1="220" y1="256.82" x2="490" y2="256.82"/><line class="cls-10" x1="220" y1="281.36" x2="490" y2="281.36"/><line class="cls-10" x1="220" y1="305.91" x2="490" y2="305.91"/><line class="cls-10" x1="220" y1="330.45" x2="490" y2="330.45"/><line class="cls-10" x1="220" y1="355" x2="490" y2="355"/><rect class="cls-2" x="220" y="355" width="270" height="270"/><line class="cls-10" x1="220" y1="355" x2="220" y2="625"/><line class="cls-10" x1="220" y1="379.55" x2="490" y2="379.55"/><line class="cls-10" x1="220" y1="404.09" x2="490" y2="404.09"/><line class="cls-10" x1="220" y1="355" x2="490" y2="355"/><line class="cls-10" x1="220" y1="428.64" x2="490" y2="428.64"/><line class="cls-10" x1="244.55" y1="355" x2="244.55" y2="625"/><line class="cls-10" x1="269.09" y1="355" x2="269.09" y2="625"/><line class="cls-10" x1="293.64" y1="355" x2="293.64" y2="625"/><line class="cls-10" x1="318.18" y1="355" x2="318.18" y2="625"/><line class="cls-10" x1="342.73" y1="355" x2="342.73" y2="625"/><line class="cls-10" x1="367.27" y1="355" x2="367.27" y2="625"/><line class="cls-10" x1="391.82" y1="355" x2="391.82" y2="625"/><line class="cls-10" x1="416.36" y1="355" x2="416.36" y2="625"/></g><line class="cls-11" x1="220" y1="-185" x2="220" y2="625"/><line class="cls-11" x1="940" y1="355" x2="-500" y2="355"/><line class="cls-11" x1="940" y1="85" x2="-500" y2="85"/></g></g></svg>