<svg xmlns="http://www.w3.org/2000/svg" xmlns:xlink="http://www.w3.org/1999/xlink" viewBox="0 0 440 440"><defs><style>.cls-1,.cls-10,.cls-11,.cls-15,.cls-16,.cls-5,.cls-6{fill:none;}.cls-2{fill:#ea4335;}.cls-3{clip-path:url(#clip-path);}.cls-4{clip-path:url(#clip-path-2);}.cls-5,.cls-6{stroke:#ff847e;}.cls-10,.cls-11,.cls-15,.cls-16,.cls-5,.cls-6{stroke-miterlimit:10;}.cls-10,.cls-15,.cls-5{stroke-width:0.5px;}.cls-11,.cls-16,.cls-6{stroke-width:1.5px;}.cls-7{clip-path:url(#clip-path-3);}.cls-8{clip-path:url(#clip-path-4);}.cls-9{fill:#fbbc04;}.cls-10,.cls-11{stroke:#fde293;}.cls-12{clip-path:url(#clip-path-5);}.cls-13{clip-path:url(#clip-path-6);}.cls-14{fill:#34a853;}.cls-15,.cls-16{stroke:#81c995;}</style><clipPath id="clip-path"><rect class="cls-1" width="440" height="440"/></clipPath><clipPath id="clip-path-2"><rect class="cls-2" x="-500.03" y="-187" width="1440" height="810"/></clipPath><clipPath id="clip-path-3"><rect class="cls-1" x="647.25" width="440" height="440"/></clipPath><clipPath id="clip-path-4"><rect class="cls-1" x="147.25" y="-185" width="1440" height="810"/></clipPath><clipPath id="clip-path-5"><rect class="cls-1" x="-632.75" width="440" height="440"/></clipPath><clipPath id="clip-path-6"><rect class="cls-1" x="-1132.75" y="-183" width="1440" height="810"/></clipPath></defs><g id="Safe_Zone" data-name="Safe Zone"><g class="cls-3"><rect class="cls-2" x="-500.03" y="-187" width="1440" height="810"/><g class="cls-4"><rect class="cls-2" x="-50.03" y="-187" width="270" height="270"/><line class="cls-5" x1="23.61" y1="-187" x2="23.61" y2="83"/><line class="cls-5" x1="48.15" y1="-187" x2="48.15" y2="83"/><line class="cls-5" x1="72.7" y1="-187" x2="72.7" y2="83"/><line class="cls-5" x1="97.24" y1="-187" x2="97.24" y2="83"/><line class="cls-5" x1="121.79" y1="-187" x2="121.79" y2="83"/><line class="cls-5" x1="146.33" y1="-187" x2="146.33" y2="83"/><line class="cls-5" x1="170.88" y1="-187" x2="170.88" y2="83"/><line class="cls-5" x1="195.42" y1="-187" x2="195.42" y2="83"/><line class="cls-5" x1="219.97" y1="-187" x2="219.97" y2="83"/><line class="cls-5" x1="-50.03" y1="9.36" x2="219.97" y2="9.36"/><line class="cls-5" x1="-50.03" y1="33.91" x2="219.97" y2="33.91"/><line class="cls-5" x1="-50.03" y1="58.45" x2="219.97" y2="58.45"/><line class="cls-5" x1="-50.03" y1="83" x2="219.97" y2="83"/><rect class="cls-2" x="-50.03" y="83" width="270" height="270"/><line class="cls-5" x1="-50.03" y1="107.55" x2="219.97" y2="107.55"/><line class="cls-5" x1="-50.03" y1="132.09" x2="219.97" y2="132.09"/><line class="cls-5" x1="-50.03" y1="83" x2="219.97" y2="83"/><line class="cls-5" x1="-50.03" y1="156.64" x2="219.97" y2="156.64"/><line class="cls-5" x1="-50.03" y1="181.18" x2="219.97" y2="181.18"/><line class="cls-5" x1="-50.03" y1="205.73" x2="219.97" y2="205.73"/><line class="cls-5" x1="-50.03" y1="230.27" x2="219.97" y2="230.27"/><line class="cls-5" x1="23.61" y1="83" x2="23.61" y2="353"/><line class="cls-5" x1="48.15" y1="83" x2="48.15" y2="353"/><line class="cls-5" x1="72.7" y1="83" x2="72.7" y2="353"/><line class="cls-5" x1="97.24" y1="83" x2="97.24" y2="353"/><line class="cls-5" x1="121.79" y1="83" x2="121.79" y2="353"/><line class="cls-5" x1="146.33" y1="83" x2="146.33" y2="353"/><line class="cls-5" x1="170.88" y1="83" x2="170.88" y2="353"/><line class="cls-5" x1="195.42" y1="83" x2="195.42" y2="353"/><line class="cls-5" x1="219.97" y1="83" x2="219.97" y2="353"/><line class="cls-5" x1="-50.03" y1="254.82" x2="219.97" y2="254.82"/><line class="cls-5" x1="-50.03" y1="279.36" x2="219.97" y2="279.36"/><line class="cls-5" x1="-50.03" y1="303.91" x2="219.97" y2="303.91"/><line class="cls-5" x1="-50.03" y1="328.45" x2="219.97" y2="328.45"/><line class="cls-5" x1="-50.03" y1="353" x2="219.97" y2="353"/><rect class="cls-2" x="-50.03" y="353" width="270" height="270"/><line class="cls-5" x1="-50.03" y1="377.55" x2="219.97" y2="377.55"/><line class="cls-5" x1="-50.03" y1="402.09" x2="219.97" y2="402.09"/><line class="cls-5" x1="-50.03" y1="353" x2="219.97" y2="353"/><line class="cls-5" x1="-50.03" y1="426.64" x2="219.97" y2="426.64"/><line class="cls-5" x1="23.61" y1="353" x2="23.61" y2="623"/><line class="cls-5" x1="48.15" y1="353" x2="48.15" y2="623"/><line class="cls-5" x1="72.7" y1="353" x2="72.7" y2="623"/><line class="cls-5" x1="97.24" y1="353" x2="97.24" y2="623"/><line class="cls-5" x1="121.79" y1="353" x2="121.79" y2="623"/><line class="cls-5" x1="146.33" y1="353" x2="146.33" y2="623"/><line class="cls-5" x1="170.88" y1="353" x2="170.88" y2="623"/><line class="cls-5" x1="195.42" y1="353" x2="195.42" y2="623"/><line class="cls-5" x1="219.97" y1="353" x2="219.97" y2="623"/><rect class="cls-2" x="219.97" y="-187" width="270" height="270"/><line class="cls-5" x1="219.97" y1="-187" x2="219.97" y2="83"/><line class="cls-5" x1="244.51" y1="-187" x2="244.51" y2="83"/><line class="cls-5" x1="269.06" y1="-187" x2="269.06" y2="83"/><line class="cls-5" x1="293.61" y1="-187" x2="293.61" y2="83"/><line class="cls-5" x1="318.15" y1="-187" x2="318.15" y2="83"/><line class="cls-5" x1="342.7" y1="-187" x2="342.7" y2="83"/><line class="cls-5" x1="367.24" y1="-187" x2="367.24" y2="83"/><line class="cls-5" x1="391.79" y1="-187" x2="391.79" y2="83"/><line class="cls-5" x1="416.33" y1="-187" x2="416.33" y2="83"/><line class="cls-5" x1="219.97" y1="9.36" x2="489.97" y2="9.36"/><line class="cls-5" x1="219.97" y1="33.91" x2="489.97" y2="33.91"/><line class="cls-5" x1="219.97" y1="58.45" x2="489.97" y2="58.45"/><line class="cls-5" x1="219.97" y1="83" x2="489.97" y2="83"/><rect class="cls-2" x="219.97" y="83" width="270" height="270"/><line class="cls-5" x1="219.97" y1="83" x2="219.97" y2="353"/><line class="cls-5" x1="219.97" y1="107.55" x2="489.97" y2="107.55"/><line class="cls-5" x1="219.97" y1="132.09" x2="489.97" y2="132.09"/><line class="cls-5" x1="219.97" y1="83" x2="489.97" y2="83"/><line class="cls-5" x1="219.97" y1="156.64" x2="489.97" y2="156.64"/><line class="cls-5" x1="219.97" y1="181.18" x2="489.97" y2="181.18"/><line class="cls-5" x1="219.97" y1="205.73" x2="489.97" y2="205.73"/><line class="cls-5" x1="219.97" y1="230.27" x2="489.97" y2="230.27"/><line class="cls-5" x1="244.51" y1="83" x2="244.51" y2="353"/><line class="cls-5" x1="269.06" y1="83" x2="269.06" y2="353"/><line class="cls-5" x1="293.61" y1="83" x2="293.61" y2="353"/><line class="cls-5" x1="318.15" y1="83" x2="318.15" y2="353"/><line class="cls-5" x1="342.7" y1="83" x2="342.7" y2="353"/><line class="cls-5" x1="367.24" y1="83" x2="367.24" y2="353"/><line class="cls-5" x1="391.79" y1="83" x2="391.79" y2="353"/><line class="cls-5" x1="416.33" y1="83" x2="416.33" y2="353"/><line class="cls-5" x1="219.97" y1="254.82" x2="489.97" y2="254.82"/><line class="cls-5" x1="219.97" y1="279.36" x2="489.97" y2="279.36"/><line class="cls-5" x1="219.97" y1="303.91" x2="489.97" y2="303.91"/><line class="cls-5" x1="219.97" y1="328.45" x2="489.97" y2="328.45"/><line class="cls-5" x1="219.97" y1="353" x2="489.97" y2="353"/><rect class="cls-2" x="219.97" y="353" width="270" height="270"/><line class="cls-5" x1="219.97" y1="353" x2="219.97" y2="623"/><line class="cls-5" x1="219.97" y1="377.55" x2="489.97" y2="377.55"/><line class="cls-5" x1="219.97" y1="402.09" x2="489.97" y2="402.09"/><line class="cls-5" x1="219.97" y1="353" x2="489.97" y2="353"/><line class="cls-5" x1="219.97" y1="426.64" x2="489.97" y2="426.64"/><line class="cls-5" x1="244.51" y1="353" x2="244.51" y2="623"/><line class="cls-5" x1="269.06" y1="353" x2="269.06" y2="623"/><line class="cls-5" x1="293.61" y1="353" x2="293.61" y2="623"/><line class="cls-5" x1="318.15" y1="353" x2="318.15" y2="623"/><line class="cls-5" x1="342.7" y1="353" x2="342.7" y2="623"/><line class="cls-5" x1="367.24" y1="353" x2="367.24" y2="623"/><line class="cls-5" x1="391.79" y1="353" x2="391.79" y2="623"/><line class="cls-5" x1="416.33" y1="353" x2="416.33" y2="623"/></g><line class="cls-6" x1="219.97" y1="-187" x2="219.97" y2="623"/><line class="cls-6" x1="939.97" y1="353" x2="-500.03" y2="353"/><line class="cls-6" x1="939.97" y1="83" x2="-500.03" y2="83"/><circle class="cls-1" cx="219.97" cy="218" r="220"/></g><g class="cls-7"><g class="cls-8"><rect class="cls-9" x="327.25" y="-185" width="270" height="270"/><line class="cls-10" x1="327.25" y1="-185" x2="327.25" y2="85"/><line class="cls-10" x1="351.79" y1="-185" x2="351.79" y2="85"/><line class="cls-10" x1="376.34" y1="-185" x2="376.34" y2="85"/><line class="cls-10" x1="400.88" y1="-185" x2="400.88" y2="85"/><line class="cls-10" x1="425.43" y1="-185" x2="425.43" y2="85"/><line class="cls-10" x1="327.25" y1="11.36" x2="597.25" y2="11.36"/><line class="cls-10" x1="327.25" y1="35.91" x2="597.25" y2="35.91"/><line class="cls-10" x1="327.25" y1="60.45" x2="597.25" y2="60.45"/><line class="cls-10" x1="327.25" y1="85" x2="597.25" y2="85"/><rect class="cls-9" x="327.25" y="85" width="270" height="270"/><line class="cls-10" x1="327.25" y1="85" x2="327.25" y2="355"/><line class="cls-10" x1="327.25" y1="109.55" x2="597.25" y2="109.55"/><line class="cls-10" x1="327.25" y1="134.09" x2="597.25" y2="134.09"/><line class="cls-10" x1="327.25" y1="85" x2="597.25" y2="85"/><line class="cls-10" x1="327.25" y1="158.64" x2="597.25" y2="158.64"/><line class="cls-10" x1="327.25" y1="183.18" x2="597.25" y2="183.18"/><line class="cls-10" x1="327.25" y1="207.73" x2="597.25" y2="207.73"/><line class="cls-10" x1="327.25" y1="232.27" x2="597.25" y2="232.27"/><line class="cls-10" x1="351.79" y1="85" x2="351.79" y2="355"/><line class="cls-10" x1="376.34" y1="85" x2="376.34" y2="355"/><line class="cls-10" x1="400.88" y1="85" x2="400.88" y2="355"/><line class="cls-10" x1="425.43" y1="85" x2="425.43" y2="355"/><line class="cls-10" x1="327.25" y1="256.82" x2="597.25" y2="256.82"/><line class="cls-10" x1="327.25" y1="281.36" x2="597.25" y2="281.36"/><line class="cls-10" x1="327.25" y1="305.91" x2="597.25" y2="305.91"/><line class="cls-10" x1="327.25" y1="330.45" x2="597.25" y2="330.45"/><line class="cls-10" x1="327.25" y1="355" x2="597.25" y2="355"/><rect class="cls-9" x="57.25" y="-185" width="270" height="270"/><line class="cls-10" x1="57.25" y1="-185" x2="57.25" y2="85"/><line class="cls-10" x1="81.79" y1="-185" x2="81.79" y2="85"/><line class="cls-10" x1="106.34" y1="-185" x2="106.34" y2="85"/><line class="cls-10" x1="130.88" y1="-185" x2="130.88" y2="85"/><line class="cls-10" x1="155.43" y1="-185" x2="155.43" y2="85"/><line class="cls-10" x1="179.97" y1="-185" x2="179.97" y2="85"/><line class="cls-10" x1="204.52" y1="-185" x2="204.52" y2="85"/><line class="cls-10" x1="229.06" y1="-185" x2="229.06" y2="85"/><line class="cls-10" x1="253.61" y1="-185" x2="253.61" y2="85"/><line class="cls-10" x1="278.15" y1="-185" x2="278.15" y2="85"/><line class="cls-10" x1="302.7" y1="-185" x2="302.7" y2="85"/><line class="cls-10" x1="327.25" y1="-185" x2="327.25" y2="85"/><line class="cls-10" x1="57.25" y1="11.36" x2="327.25" y2="11.36"/><line class="cls-10" x1="57.25" y1="35.91" x2="327.25" y2="35.91"/><line class="cls-10" x1="57.25" y1="60.45" x2="327.25" y2="60.45"/><line class="cls-10" x1="57.25" y1="85" x2="327.25" y2="85"/><rect class="cls-9" x="57.25" y="85" width="270" height="270"/><line class="cls-10" x1="57.25" y1="85" x2="57.25" y2="355"/><line class="cls-10" x1="57.25" y1="109.55" x2="327.25" y2="109.55"/><line class="cls-10" x1="57.25" y1="134.09" x2="327.25" y2="134.09"/><line class="cls-10" x1="57.25" y1="85" x2="327.25" y2="85"/><line class="cls-10" x1="57.25" y1="158.64" x2="327.25" y2="158.64"/><line class="cls-10" x1="57.25" y1="183.18" x2="327.25" y2="183.18"/><line class="cls-10" x1="57.25" y1="207.73" x2="327.25" y2="207.73"/><line class="cls-10" x1="57.25" y1="232.27" x2="327.25" y2="232.27"/><line class="cls-10" x1="81.79" y1="85" x2="81.79" y2="355"/><line class="cls-10" x1="106.34" y1="85" x2="106.34" y2="355"/><line class="cls-10" x1="130.88" y1="85" x2="130.88" y2="355"/><line class="cls-10" x1="155.43" y1="85" x2="155.43" y2="355"/><line class="cls-10" x1="179.97" y1="85" x2="179.97" y2="355"/><line class="cls-10" x1="204.52" y1="85" x2="204.52" y2="355"/><line class="cls-10" x1="229.06" y1="85" x2="229.06" y2="355"/><line class="cls-10" x1="253.61" y1="85" x2="253.61" y2="355"/><line class="cls-10" x1="278.15" y1="85" x2="278.15" y2="355"/><line class="cls-10" x1="302.7" y1="85" x2="302.7" y2="355"/><line class="cls-10" x1="327.25" y1="85" x2="327.25" y2="355"/><line class="cls-10" x1="57.25" y1="256.82" x2="327.25" y2="256.82"/><line class="cls-10" x1="57.25" y1="281.36" x2="327.25" y2="281.36"/><line class="cls-10" x1="57.25" y1="305.91" x2="327.25" y2="305.91"/><line class="cls-10" x1="57.25" y1="330.45" x2="327.25" y2="330.45"/><line class="cls-10" x1="57.25" y1="355" x2="327.25" y2="355"/><rect class="cls-9" x="327.25" y="355" width="270" height="270"/><line class="cls-10" x1="327.25" y1="355" x2="327.25" y2="625"/><line class="cls-10" x1="327.25" y1="379.55" x2="597.25" y2="379.55"/><line class="cls-10" x1="327.25" y1="404.09" x2="597.25" y2="404.09"/><line class="cls-10" x1="327.25" y1="355" x2="597.25" y2="355"/><line class="cls-10" x1="327.25" y1="428.64" x2="597.25" y2="428.64"/><line class="cls-10" x1="351.79" y1="355" x2="351.79" y2="625"/><line class="cls-10" x1="376.34" y1="355" x2="376.34" y2="625"/><line class="cls-10" x1="400.88" y1="355" x2="400.88" y2="625"/><line class="cls-10" x1="425.43" y1="355" x2="425.43" y2="625"/><rect class="cls-9" x="57.25" y="355" width="270" height="270"/><line class="cls-10" x1="57.25" y1="355" x2="57.25" y2="625"/><line class="cls-10" x1="57.25" y1="379.55" x2="327.25" y2="379.55"/><line class="cls-10" x1="57.25" y1="404.09" x2="327.25" y2="404.09"/><line class="cls-10" x1="57.25" y1="355" x2="327.25" y2="355"/><line class="cls-10" x1="57.25" y1="428.64" x2="327.25" y2="428.64"/><line class="cls-10" x1="81.79" y1="355" x2="81.79" y2="625"/><line class="cls-10" x1="106.34" y1="355" x2="106.34" y2="625"/><line class="cls-10" x1="130.88" y1="355" x2="130.88" y2="625"/><line class="cls-10" x1="155.43" y1="355" x2="155.43" y2="625"/><line class="cls-10" x1="179.97" y1="355" x2="179.97" y2="625"/><line class="cls-10" x1="204.52" y1="355" x2="204.52" y2="625"/><line class="cls-10" x1="229.06" y1="355" x2="229.06" y2="625"/><line class="cls-10" x1="253.61" y1="355" x2="253.61" y2="625"/><line class="cls-10" x1="278.15" y1="355" x2="278.15" y2="625"/><line class="cls-10" x1="302.7" y1="355" x2="302.7" y2="625"/><line class="cls-10" x1="327.25" y1="355" x2="327.25" y2="625"/></g><line class="cls-11" x1="327.25" y1="-185" x2="327.25" y2="625"/><line class="cls-11" x1="1587.25" y1="355" x2="147.25" y2="355"/><line class="cls-11" x1="1587.25" y1="85" x2="147.25" y2="85"/></g><g class="cls-12"><g class="cls-13"><rect class="cls-14" x="-142.75" y="-183" width="270" height="270"/><line class="cls-15" x1="4.52" y1="-183" x2="4.52" y2="87"/><line class="cls-15" x1="29.06" y1="-183" x2="29.06" y2="87"/><line class="cls-15" x1="53.61" y1="-183" x2="53.61" y2="87"/><line class="cls-15" x1="78.15" y1="-183" x2="78.15" y2="87"/><line class="cls-15" x1="102.7" y1="-183" x2="102.7" y2="87"/><line class="cls-15" x1="127.25" y1="-183" x2="127.25" y2="87"/><line class="cls-15" x1="-142.75" y1="13.36" x2="127.25" y2="13.36"/><line class="cls-15" x1="-142.75" y1="37.91" x2="127.25" y2="37.91"/><line class="cls-15" x1="-142.75" y1="62.45" x2="127.25" y2="62.45"/><line class="cls-15" x1="-142.75" y1="87" x2="127.25" y2="87"/><rect class="cls-14" x="127.25" y="-183" width="270" height="270"/><line class="cls-15" x1="127.25" y1="-183" x2="127.25" y2="87"/><line class="cls-15" x1="151.79" y1="-183" x2="151.79" y2="87"/><line class="cls-15" x1="176.34" y1="-183" x2="176.34" y2="87"/><line class="cls-15" x1="200.88" y1="-183" x2="200.88" y2="87"/><line class="cls-15" x1="225.43" y1="-183" x2="225.43" y2="87"/><line class="cls-15" x1="249.97" y1="-183" x2="249.97" y2="87"/><line class="cls-15" x1="274.52" y1="-183" x2="274.52" y2="87"/><line class="cls-15" x1="299.06" y1="-183" x2="299.06" y2="87"/><line class="cls-15" x1="323.61" y1="-183" x2="323.61" y2="87"/><line class="cls-15" x1="348.15" y1="-183" x2="348.15" y2="87"/><line class="cls-15" x1="372.7" y1="-183" x2="372.7" y2="87"/><line class="cls-15" x1="397.25" y1="-183" x2="397.25" y2="87"/><line class="cls-15" x1="127.25" y1="13.36" x2="397.25" y2="13.36"/><line class="cls-15" x1="127.25" y1="37.91" x2="397.25" y2="37.91"/><line class="cls-15" x1="127.25" y1="62.45" x2="397.25" y2="62.45"/><line class="cls-15" x1="127.25" y1="87" x2="397.25" y2="87"/><rect class="cls-14" x="-142.75" y="87" width="270" height="270"/><line class="cls-15" x1="-142.75" y1="111.55" x2="127.25" y2="111.55"/><line class="cls-15" x1="-142.75" y1="136.09" x2="127.25" y2="136.09"/><line class="cls-15" x1="-142.75" y1="87" x2="127.25" y2="87"/><line class="cls-15" x1="-142.75" y1="160.64" x2="127.25" y2="160.64"/><line class="cls-15" x1="-142.75" y1="185.18" x2="127.25" y2="185.18"/><line class="cls-15" x1="-142.75" y1="209.73" x2="127.25" y2="209.73"/><line class="cls-15" x1="-142.75" y1="234.27" x2="127.25" y2="234.27"/><line class="cls-15" x1="4.52" y1="87" x2="4.52" y2="357"/><line class="cls-15" x1="29.06" y1="87" x2="29.06" y2="357"/><line class="cls-15" x1="53.61" y1="87" x2="53.61" y2="357"/><line class="cls-15" x1="78.15" y1="87" x2="78.15" y2="357"/><line class="cls-15" x1="102.7" y1="87" x2="102.7" y2="357"/><line class="cls-15" x1="127.25" y1="87" x2="127.25" y2="357"/><line class="cls-15" x1="-142.75" y1="258.82" x2="127.25" y2="258.82"/><line class="cls-15" x1="-142.75" y1="283.36" x2="127.25" y2="283.36"/><line class="cls-15" x1="-142.75" y1="307.91" x2="127.25" y2="307.91"/><line class="cls-15" x1="-142.75" y1="332.45" x2="127.25" y2="332.45"/><line class="cls-15" x1="-142.75" y1="357" x2="127.25" y2="357"/><rect class="cls-14" x="127.25" y="87" width="270" height="270"/><line class="cls-15" x1="127.25" y1="87" x2="127.25" y2="357"/><line class="cls-15" x1="127.25" y1="111.55" x2="397.25" y2="111.55"/><line class="cls-15" x1="127.25" y1="136.09" x2="397.25" y2="136.09"/><line class="cls-15" x1="127.25" y1="87" x2="397.25" y2="87"/><line class="cls-15" x1="127.25" y1="160.64" x2="397.25" y2="160.64"/><line class="cls-15" x1="127.25" y1="185.18" x2="397.25" y2="185.18"/><line class="cls-15" x1="127.25" y1="209.73" x2="397.25" y2="209.73"/><line class="cls-15" x1="127.25" y1="234.27" x2="397.25" y2="234.27"/><line class="cls-15" x1="151.79" y1="87" x2="151.79" y2="357"/><line class="cls-15" x1="176.34" y1="87" x2="176.34" y2="357"/><line class="cls-15" x1="200.88" y1="87" x2="200.88" y2="357"/><line class="cls-15" x1="225.43" y1="87" x2="225.43" y2="357"/><line class="cls-15" x1="249.97" y1="87" x2="249.97" y2="357"/><line class="cls-15" x1="274.52" y1="87" x2="274.52" y2="357"/><line class="cls-15" x1="299.06" y1="87" x2="299.06" y2="357"/><line class="cls-15" x1="323.61" y1="87" x2="323.61" y2="357"/><line class="cls-15" x1="348.15" y1="87" x2="348.15" y2="357"/><line class="cls-15" x1="372.7" y1="87" x2="372.7" y2="357"/><line class="cls-15" x1="397.25" y1="87" x2="397.25" y2="357"/><line class="cls-15" x1="127.25" y1="258.82" x2="397.25" y2="258.82"/><line class="cls-15" x1="127.25" y1="283.36" x2="397.25" y2="283.36"/><line class="cls-15" x1="127.25" y1="307.91" x2="397.25" y2="307.91"/><line class="cls-15" x1="127.25" y1="332.45" x2="397.25" y2="332.45"/><line class="cls-15" x1="127.25" y1="357" x2="397.25" y2="357"/><rect class="cls-14" x="-142.75" y="357" width="270" height="270"/><line class="cls-15" x1="-142.75" y1="381.55" x2="127.25" y2="381.55"/><line class="cls-15" x1="-142.75" y1="406.09" x2="127.25" y2="406.09"/><line class="cls-15" x1="-142.75" y1="357" x2="127.25" y2="357"/><line class="cls-15" x1="-142.75" y1="430.64" x2="127.25" y2="430.64"/><line class="cls-15" x1="4.52" y1="357" x2="4.52" y2="627"/><line class="cls-15" x1="29.06" y1="357" x2="29.06" y2="627"/><line class="cls-15" x1="53.61" y1="357" x2="53.61" y2="627"/><line class="cls-15" x1="78.15" y1="357" x2="78.15" y2="627"/><line class="cls-15" x1="102.7" y1="357" x2="102.7" y2="627"/><line class="cls-15" x1="127.25" y1="357" x2="127.25" y2="627"/><rect class="cls-14" x="127.25" y="357" width="270" height="270"/><line class="cls-15" x1="127.25" y1="357" x2="127.25" y2="627"/><line class="cls-15" x1="127.25" y1="381.55" x2="397.25" y2="381.55"/><line class="cls-15" x1="127.25" y1="406.09" x2="397.25" y2="406.09"/><line class="cls-15" x1="127.25" y1="357" x2="397.25" y2="357"/><line class="cls-15" x1="127.25" y1="430.64" x2="397.25" y2="430.64"/><line class="cls-15" x1="151.79" y1="357" x2="151.79" y2="627"/><line class="cls-15" x1="176.34" y1="357" x2="176.34" y2="627"/><line class="cls-15" x1="200.88" y1="357" x2="200.88" y2="627"/><line class="cls-15" x1="225.43" y1="357" x2="225.43" y2="627"/><line class="cls-15" x1="249.97" y1="357" x2="249.97" y2="627"/><line class="cls-15" x1="274.52" y1="357" x2="274.52" y2="627"/><line class="cls-15" x1="299.06" y1="357" x2="299.06" y2="627"/><line class="cls-15" x1="323.61" y1="357" x2="323.61" y2="627"/><line class="cls-15" x1="348.15" y1="357" x2="348.15" y2="627"/><line class="cls-15" x1="372.7" y1="357" x2="372.7" y2="627"/><line class="cls-15" x1="397.25" y1="357" x2="397.25" y2="627"/></g><line class="cls-16" x1="127.25" y1="-183" x2="127.25" y2="627"/><line class="cls-16" x1="307.25" y1="357" x2="-1132.75" y2="357"/><line class="cls-16" x1="307.25" y1="87" x2="-1132.75" y2="87"/></g></g></svg>