<svg xmlns="http://www.w3.org/2000/svg" xmlns:xlink="http://www.w3.org/1999/xlink" viewBox="0 0 440 440"><defs><style>.cls-1,.cls-11,.cls-12,.cls-15,.cls-16,.cls-6,.cls-7{fill:none;}.cls-2{fill:#ea4335;}.cls-3{fill:#4285f4;}.cls-4{clip-path:url(#clip-path);}.cls-5{clip-path:url(#clip-path-2);}.cls-6,.cls-7{stroke:#ff847e;}.cls-11,.cls-12,.cls-15,.cls-16,.cls-6,.cls-7{stroke-miterlimit:10;}.cls-11,.cls-15,.cls-6{stroke-width:0.5px;}.cls-12,.cls-16,.cls-7{stroke-width:1.5px;}.cls-8{clip-path:url(#clip-path-3);}.cls-9{clip-path:url(#clip-path-4);}.cls-10{fill:#34a853;}.cls-11,.cls-12{stroke:#81c995;}.cls-13{clip-path:url(#clip-path-5);}.cls-14{clip-path:url(#clip-path-6);}.cls-15,.cls-16{stroke:#8ab4f8;}</style><clipPath id="clip-path"><rect class="cls-1" x="632.75" width="440" height="440"/></clipPath><clipPath id="clip-path-2"><rect class="cls-2" x="132.72" y="-187" width="1440" height="810"/></clipPath><clipPath id="clip-path-3"><rect class="cls-1" width="440" height="440"/></clipPath><clipPath id="clip-path-4"><rect class="cls-1" x="-500" y="-183" width="1440" height="810"/></clipPath><clipPath id="clip-path-5"><rect class="cls-1" x="-640" width="440" height="440"/></clipPath><clipPath id="clip-path-6"><rect class="cls-3" x="-1140" y="-185" width="1440" height="810"/></clipPath></defs><g id="Safe_Zone" data-name="Safe Zone"><circle class="cls-1" cx="220" cy="222" r="220"/><g class="cls-4"><rect class="cls-2" x="132.72" y="-187" width="1440" height="810"/><g class="cls-5"><rect class="cls-2" x="312.72" y="-187" width="270" height="270"/><line class="cls-6" x1="312.72" y1="-187" x2="312.72" y2="83"/><line class="cls-6" x1="337.27" y1="-187" x2="337.27" y2="83"/><line class="cls-6" x1="361.81" y1="-187" x2="361.81" y2="83"/><line class="cls-6" x1="386.36" y1="-187" x2="386.36" y2="83"/><line class="cls-6" x1="410.91" y1="-187" x2="410.91" y2="83"/><line class="cls-6" x1="435.45" y1="-187" x2="435.45" y2="83"/><line class="cls-6" x1="312.72" y1="9.36" x2="582.72" y2="9.36"/><line class="cls-6" x1="312.72" y1="33.91" x2="582.72" y2="33.91"/><line class="cls-6" x1="312.72" y1="58.45" x2="582.72" y2="58.45"/><line class="cls-6" x1="312.72" y1="83" x2="582.72" y2="83"/><rect class="cls-2" x="312.72" y="83" width="270" height="270"/><line class="cls-6" x1="312.72" y1="83" x2="312.72" y2="353"/><line class="cls-6" x1="312.72" y1="107.55" x2="582.72" y2="107.55"/><line class="cls-6" x1="312.72" y1="132.09" x2="582.72" y2="132.09"/><line class="cls-6" x1="312.72" y1="83" x2="582.72" y2="83"/><line class="cls-6" x1="312.72" y1="156.64" x2="582.72" y2="156.64"/><line class="cls-6" x1="312.72" y1="181.18" x2="582.72" y2="181.18"/><line class="cls-6" x1="312.72" y1="205.73" x2="582.72" y2="205.73"/><line class="cls-6" x1="312.72" y1="230.27" x2="582.72" y2="230.27"/><line class="cls-6" x1="337.27" y1="83" x2="337.27" y2="353"/><line class="cls-6" x1="361.81" y1="83" x2="361.81" y2="353"/><line class="cls-6" x1="386.36" y1="83" x2="386.36" y2="353"/><line class="cls-6" x1="410.91" y1="83" x2="410.91" y2="353"/><line class="cls-6" x1="435.45" y1="83" x2="435.45" y2="353"/><line class="cls-6" x1="312.72" y1="254.82" x2="582.72" y2="254.82"/><line class="cls-6" x1="312.72" y1="279.36" x2="582.72" y2="279.36"/><line class="cls-6" x1="312.72" y1="303.91" x2="582.72" y2="303.91"/><line class="cls-6" x1="312.72" y1="328.45" x2="582.72" y2="328.45"/><line class="cls-6" x1="312.72" y1="353" x2="582.72" y2="353"/><rect class="cls-2" x="42.72" y="-187" width="270" height="270"/><line class="cls-6" x1="42.72" y1="-187" x2="42.72" y2="83"/><line class="cls-6" x1="67.27" y1="-187" x2="67.27" y2="83"/><line class="cls-6" x1="91.81" y1="-187" x2="91.81" y2="83"/><line class="cls-6" x1="116.36" y1="-187" x2="116.36" y2="83"/><line class="cls-6" x1="140.91" y1="-187" x2="140.91" y2="83"/><line class="cls-6" x1="165.45" y1="-187" x2="165.45" y2="83"/><line class="cls-6" x1="190" y1="-187" x2="190" y2="83"/><line class="cls-6" x1="214.54" y1="-187" x2="214.54" y2="83"/><line class="cls-6" x1="239.09" y1="-187" x2="239.09" y2="83"/><line class="cls-6" x1="263.63" y1="-187" x2="263.63" y2="83"/><line class="cls-6" x1="288.18" y1="-187" x2="288.18" y2="83"/><line class="cls-6" x1="312.72" y1="-187" x2="312.72" y2="83"/><line class="cls-6" x1="42.72" y1="9.36" x2="312.72" y2="9.36"/><line class="cls-6" x1="42.72" y1="33.91" x2="312.72" y2="33.91"/><line class="cls-6" x1="42.72" y1="58.45" x2="312.72" y2="58.45"/><line class="cls-6" x1="42.72" y1="83" x2="312.72" y2="83"/><rect class="cls-2" x="42.72" y="83" width="270" height="270"/><line class="cls-6" x1="42.72" y1="83" x2="42.72" y2="353"/><line class="cls-6" x1="42.72" y1="107.55" x2="312.72" y2="107.55"/><line class="cls-6" x1="42.72" y1="132.09" x2="312.72" y2="132.09"/><line class="cls-6" x1="42.72" y1="83" x2="312.72" y2="83"/><line class="cls-6" x1="42.72" y1="156.64" x2="312.72" y2="156.64"/><line class="cls-6" x1="42.72" y1="181.18" x2="312.72" y2="181.18"/><line class="cls-6" x1="42.72" y1="205.73" x2="312.72" y2="205.73"/><line class="cls-6" x1="42.72" y1="230.27" x2="312.72" y2="230.27"/><line class="cls-6" x1="67.27" y1="83" x2="67.27" y2="353"/><line class="cls-6" x1="91.81" y1="83" x2="91.81" y2="353"/><line class="cls-6" x1="116.36" y1="83" x2="116.36" y2="353"/><line class="cls-6" x1="140.91" y1="83" x2="140.91" y2="353"/><line class="cls-6" x1="165.45" y1="83" x2="165.45" y2="353"/><line class="cls-6" x1="190" y1="83" x2="190" y2="353"/><line class="cls-6" x1="214.54" y1="83" x2="214.54" y2="353"/><line class="cls-6" x1="239.09" y1="83" x2="239.09" y2="353"/><line class="cls-6" x1="263.63" y1="83" x2="263.63" y2="353"/><line class="cls-6" x1="288.18" y1="83" x2="288.18" y2="353"/><line class="cls-6" x1="312.72" y1="83" x2="312.72" y2="353"/><line class="cls-6" x1="42.72" y1="254.82" x2="312.72" y2="254.82"/><line class="cls-6" x1="42.72" y1="279.36" x2="312.72" y2="279.36"/><line class="cls-6" x1="42.72" y1="303.91" x2="312.72" y2="303.91"/><line class="cls-6" x1="42.72" y1="328.45" x2="312.72" y2="328.45"/><line class="cls-6" x1="42.72" y1="353" x2="312.72" y2="353"/><rect class="cls-2" x="312.72" y="353" width="270" height="270"/><line class="cls-6" x1="312.72" y1="353" x2="312.72" y2="623"/><line class="cls-6" x1="312.72" y1="377.55" x2="582.72" y2="377.55"/><line class="cls-6" x1="312.72" y1="402.09" x2="582.72" y2="402.09"/><line class="cls-6" x1="312.72" y1="353" x2="582.72" y2="353"/><line class="cls-6" x1="312.72" y1="426.64" x2="582.72" y2="426.64"/><line class="cls-6" x1="337.27" y1="353" x2="337.27" y2="623"/><line class="cls-6" x1="361.81" y1="353" x2="361.81" y2="623"/><line class="cls-6" x1="386.36" y1="353" x2="386.36" y2="623"/><line class="cls-6" x1="410.91" y1="353" x2="410.91" y2="623"/><line class="cls-6" x1="435.45" y1="353" x2="435.45" y2="623"/><rect class="cls-2" x="42.72" y="353" width="270" height="270"/><line class="cls-6" x1="42.72" y1="353" x2="42.72" y2="623"/><line class="cls-6" x1="42.72" y1="377.55" x2="312.72" y2="377.55"/><line class="cls-6" x1="42.72" y1="402.09" x2="312.72" y2="402.09"/><line class="cls-6" x1="42.72" y1="353" x2="312.72" y2="353"/><line class="cls-6" x1="42.72" y1="426.64" x2="312.72" y2="426.64"/><line class="cls-6" x1="67.27" y1="353" x2="67.27" y2="623"/><line class="cls-6" x1="91.81" y1="353" x2="91.81" y2="623"/><line class="cls-6" x1="116.36" y1="353" x2="116.36" y2="623"/><line class="cls-6" x1="140.91" y1="353" x2="140.91" y2="623"/><line class="cls-6" x1="165.45" y1="353" x2="165.45" y2="623"/><line class="cls-6" x1="190" y1="353" x2="190" y2="623"/><line class="cls-6" x1="214.54" y1="353" x2="214.54" y2="623"/><line class="cls-6" x1="239.09" y1="353" x2="239.09" y2="623"/><line class="cls-6" x1="263.63" y1="353" x2="263.63" y2="623"/><line class="cls-6" x1="288.18" y1="353" x2="288.18" y2="623"/><line class="cls-6" x1="312.72" y1="353" x2="312.72" y2="623"/></g><line class="cls-7" x1="312.72" y1="-187" x2="312.72" y2="623"/><line class="cls-7" x1="1572.72" y1="353" x2="132.72" y2="353"/><line class="cls-7" x1="1572.72" y1="83" x2="132.72" y2="83"/></g><g class="cls-8"><g class="cls-9"><rect class="cls-10" x="-50" y="-183" width="270" height="270"/><line class="cls-11" x1="23.64" y1="-183" x2="23.64" y2="87"/><line class="cls-11" x1="48.18" y1="-183" x2="48.18" y2="87"/><line class="cls-11" x1="72.73" y1="-183" x2="72.73" y2="87"/><line class="cls-11" x1="97.27" y1="-183" x2="97.27" y2="87"/><line class="cls-11" x1="121.82" y1="-183" x2="121.82" y2="87"/><line class="cls-11" x1="146.36" y1="-183" x2="146.36" y2="87"/><line class="cls-11" x1="170.91" y1="-183" x2="170.91" y2="87"/><line class="cls-11" x1="195.45" y1="-183" x2="195.45" y2="87"/><line class="cls-11" x1="220" y1="-183" x2="220" y2="87"/><line class="cls-11" x1="-50" y1="13.36" x2="220" y2="13.36"/><line class="cls-11" x1="-50" y1="37.91" x2="220" y2="37.91"/><line class="cls-11" x1="-50" y1="62.45" x2="220" y2="62.45"/><line class="cls-11" x1="-50" y1="87" x2="220" y2="87"/><rect class="cls-10" x="-50" y="87" width="270" height="270"/><line class="cls-11" x1="-50" y1="111.55" x2="220" y2="111.55"/><line class="cls-11" x1="-50" y1="136.09" x2="220" y2="136.09"/><line class="cls-11" x1="-50" y1="87" x2="220" y2="87"/><line class="cls-11" x1="-50" y1="160.64" x2="220" y2="160.64"/><line class="cls-11" x1="-50" y1="185.18" x2="220" y2="185.18"/><line class="cls-11" x1="-50" y1="209.73" x2="220" y2="209.73"/><line class="cls-11" x1="-50" y1="234.27" x2="220" y2="234.27"/><line class="cls-11" x1="23.64" y1="87" x2="23.64" y2="357"/><line class="cls-11" x1="48.18" y1="87" x2="48.18" y2="357"/><line class="cls-11" x1="72.73" y1="87" x2="72.73" y2="357"/><line class="cls-11" x1="97.27" y1="87" x2="97.27" y2="357"/><line class="cls-11" x1="121.82" y1="87" x2="121.82" y2="357"/><line class="cls-11" x1="146.36" y1="87" x2="146.36" y2="357"/><line class="cls-11" x1="170.91" y1="87" x2="170.91" y2="357"/><line class="cls-11" x1="195.45" y1="87" x2="195.45" y2="357"/><line class="cls-11" x1="220" y1="87" x2="220" y2="357"/><line class="cls-11" x1="-50" y1="258.82" x2="220" y2="258.82"/><line class="cls-11" x1="-50" y1="283.36" x2="220" y2="283.36"/><line class="cls-11" x1="-50" y1="307.91" x2="220" y2="307.91"/><line class="cls-11" x1="-50" y1="332.45" x2="220" y2="332.45"/><line class="cls-11" x1="-50" y1="357" x2="220" y2="357"/><rect class="cls-10" x="-50" y="357" width="270" height="270"/><line class="cls-11" x1="-50" y1="381.55" x2="220" y2="381.55"/><line class="cls-11" x1="-50" y1="406.09" x2="220" y2="406.09"/><line class="cls-11" x1="-50" y1="357" x2="220" y2="357"/><line class="cls-11" x1="-50" y1="430.64" x2="220" y2="430.64"/><line class="cls-11" x1="23.64" y1="357" x2="23.64" y2="627"/><line class="cls-11" x1="48.18" y1="357" x2="48.18" y2="627"/><line class="cls-11" x1="72.73" y1="357" x2="72.73" y2="627"/><line class="cls-11" x1="97.27" y1="357" x2="97.27" y2="627"/><line class="cls-11" x1="121.82" y1="357" x2="121.82" y2="627"/><line class="cls-11" x1="146.36" y1="357" x2="146.36" y2="627"/><line class="cls-11" x1="170.91" y1="357" x2="170.91" y2="627"/><line class="cls-11" x1="195.45" y1="357" x2="195.45" y2="627"/><line class="cls-11" x1="220" y1="357" x2="220" y2="627"/><rect class="cls-10" x="220" y="-183" width="270" height="270"/><line class="cls-11" x1="220" y1="-183" x2="220" y2="87"/><line class="cls-11" x1="244.55" y1="-183" x2="244.55" y2="87"/><line class="cls-11" x1="269.09" y1="-183" x2="269.09" y2="87"/><line class="cls-11" x1="293.64" y1="-183" x2="293.64" y2="87"/><line class="cls-11" x1="318.18" y1="-183" x2="318.18" y2="87"/><line class="cls-11" x1="342.73" y1="-183" x2="342.73" y2="87"/><line class="cls-11" x1="367.27" y1="-183" x2="367.27" y2="87"/><line class="cls-11" x1="391.82" y1="-183" x2="391.82" y2="87"/><line class="cls-11" x1="416.36" y1="-183" x2="416.36" y2="87"/><line class="cls-11" x1="220" y1="13.36" x2="490" y2="13.36"/><line class="cls-11" x1="220" y1="37.91" x2="490" y2="37.91"/><line class="cls-11" x1="220" y1="62.45" x2="490" y2="62.45"/><line class="cls-11" x1="220" y1="87" x2="490" y2="87"/><rect class="cls-10" x="220" y="87" width="270" height="270"/><line class="cls-11" x1="220" y1="87" x2="220" y2="357"/><line class="cls-11" x1="220" y1="111.55" x2="490" y2="111.55"/><line class="cls-11" x1="220" y1="136.09" x2="490" y2="136.09"/><line class="cls-11" x1="220" y1="87" x2="490" y2="87"/><line class="cls-11" x1="220" y1="160.64" x2="490" y2="160.64"/><line class="cls-11" x1="220" y1="185.18" x2="490" y2="185.18"/><line class="cls-11" x1="220" y1="209.73" x2="490" y2="209.73"/><line class="cls-11" x1="220" y1="234.27" x2="490" y2="234.27"/><line class="cls-11" x1="244.55" y1="87" x2="244.55" y2="357"/><line class="cls-11" x1="269.09" y1="87" x2="269.09" y2="357"/><line class="cls-11" x1="293.64" y1="87" x2="293.64" y2="357"/><line class="cls-11" x1="318.18" y1="87" x2="318.18" y2="357"/><line class="cls-11" x1="342.73" y1="87" x2="342.73" y2="357"/><line class="cls-11" x1="367.27" y1="87" x2="367.27" y2="357"/><line class="cls-11" x1="391.82" y1="87" x2="391.82" y2="357"/><line class="cls-11" x1="416.36" y1="87" x2="416.36" y2="357"/><line class="cls-11" x1="220" y1="258.82" x2="490" y2="258.82"/><line class="cls-11" x1="220" y1="283.36" x2="490" y2="283.36"/><line class="cls-11" x1="220" y1="307.91" x2="490" y2="307.91"/><line class="cls-11" x1="220" y1="332.45" x2="490" y2="332.45"/><line class="cls-11" x1="220" y1="357" x2="490" y2="357"/><rect class="cls-10" x="220" y="357" width="270" height="270"/><line class="cls-11" x1="220" y1="357" x2="220" y2="627"/><line class="cls-11" x1="220" y1="381.55" x2="490" y2="381.55"/><line class="cls-11" x1="220" y1="406.09" x2="490" y2="406.09"/><line class="cls-11" x1="220" y1="357" x2="490" y2="357"/><line class="cls-11" x1="220" y1="430.64" x2="490" y2="430.64"/><line class="cls-11" x1="244.55" y1="357" x2="244.55" y2="627"/><line class="cls-11" x1="269.09" y1="357" x2="269.09" y2="627"/><line class="cls-11" x1="293.64" y1="357" x2="293.64" y2="627"/><line class="cls-11" x1="318.18" y1="357" x2="318.18" y2="627"/><line class="cls-11" x1="342.73" y1="357" x2="342.73" y2="627"/><line class="cls-11" x1="367.27" y1="357" x2="367.27" y2="627"/><line class="cls-11" x1="391.82" y1="357" x2="391.82" y2="627"/><line class="cls-11" x1="416.36" y1="357" x2="416.36" y2="627"/></g><line class="cls-12" x1="220" y1="-183" x2="220" y2="627"/><line class="cls-12" x1="940" y1="357" x2="-500" y2="357"/><line class="cls-12" x1="940" y1="87" x2="-500" y2="87"/></g><g class="cls-13"><rect class="cls-3" x="-1140" y="-185" width="1440" height="810"/><g class="cls-14"><rect class="cls-3" x="-150" y="-185" width="270" height="270"/><line class="cls-15" x1="21.82" y1="-185" x2="21.82" y2="85"/><line class="cls-15" x1="46.36" y1="-185" x2="46.36" y2="85"/><line class="cls-15" x1="70.91" y1="-185" x2="70.91" y2="85"/><line class="cls-15" x1="95.45" y1="-185" x2="95.45" y2="85"/><line class="cls-15" x1="120" y1="-185" x2="120" y2="85"/><line class="cls-15" x1="-150" y1="11.36" x2="120" y2="11.36"/><line class="cls-15" x1="-150" y1="35.91" x2="120" y2="35.91"/><line class="cls-15" x1="-150" y1="60.45" x2="120" y2="60.45"/><line class="cls-15" x1="-150" y1="85" x2="120" y2="85"/><rect class="cls-3" x="120" y="-185" width="270" height="270"/><line class="cls-15" x1="120" y1="-185" x2="120" y2="85"/><line class="cls-15" x1="144.55" y1="-185" x2="144.55" y2="85"/><line class="cls-15" x1="169.09" y1="-185" x2="169.09" y2="85"/><line class="cls-15" x1="193.64" y1="-185" x2="193.64" y2="85"/><line class="cls-15" x1="218.18" y1="-185" x2="218.18" y2="85"/><line class="cls-15" x1="242.73" y1="-185" x2="242.73" y2="85"/><line class="cls-15" x1="267.27" y1="-185" x2="267.27" y2="85"/><line class="cls-15" x1="291.82" y1="-185" x2="291.82" y2="85"/><line class="cls-15" x1="316.36" y1="-185" x2="316.36" y2="85"/><line class="cls-15" x1="340.91" y1="-185" x2="340.91" y2="85"/><line class="cls-15" x1="365.45" y1="-185" x2="365.45" y2="85"/><line class="cls-15" x1="390" y1="-185" x2="390" y2="85"/><line class="cls-15" x1="120" y1="11.36" x2="390" y2="11.36"/><line class="cls-15" x1="120" y1="35.91" x2="390" y2="35.91"/><line class="cls-15" x1="120" y1="60.45" x2="390" y2="60.45"/><line class="cls-15" x1="120" y1="85" x2="390" y2="85"/><rect class="cls-3" x="-150" y="85" width="270" height="270"/><line class="cls-15" x1="-150" y1="109.55" x2="120" y2="109.55"/><line class="cls-15" x1="-150" y1="134.09" x2="120" y2="134.09"/><line class="cls-15" x1="-150" y1="85" x2="120" y2="85"/><line class="cls-15" x1="-150" y1="158.64" x2="120" y2="158.64"/><line class="cls-15" x1="-150" y1="183.18" x2="120" y2="183.18"/><line class="cls-15" x1="-150" y1="207.73" x2="120" y2="207.73"/><line class="cls-15" x1="-150" y1="232.27" x2="120" y2="232.27"/><line class="cls-15" x1="21.82" y1="85" x2="21.82" y2="355"/><line class="cls-15" x1="46.36" y1="85" x2="46.36" y2="355"/><line class="cls-15" x1="70.91" y1="85" x2="70.91" y2="355"/><line class="cls-15" x1="95.45" y1="85" x2="95.45" y2="355"/><line class="cls-15" x1="120" y1="85" x2="120" y2="355"/><line class="cls-15" x1="-150" y1="256.82" x2="120" y2="256.82"/><line class="cls-15" x1="-150" y1="281.36" x2="120" y2="281.36"/><line class="cls-15" x1="-150" y1="305.91" x2="120" y2="305.91"/><line class="cls-15" x1="-150" y1="330.45" x2="120" y2="330.45"/><line class="cls-15" x1="-150" y1="355" x2="120" y2="355"/><rect class="cls-3" x="120" y="85" width="270" height="270"/><line class="cls-15" x1="120" y1="85" x2="120" y2="355"/><line class="cls-15" x1="120" y1="109.55" x2="390" y2="109.55"/><line class="cls-15" x1="120" y1="134.09" x2="390" y2="134.09"/><line class="cls-15" x1="120" y1="85" x2="390" y2="85"/><line class="cls-15" x1="120" y1="158.64" x2="390" y2="158.64"/><line class="cls-15" x1="120" y1="183.18" x2="390" y2="183.18"/><line class="cls-15" x1="120" y1="207.73" x2="390" y2="207.73"/><line class="cls-15" x1="120" y1="232.27" x2="390" y2="232.27"/><line class="cls-15" x1="144.55" y1="85" x2="144.55" y2="355"/><line class="cls-15" x1="169.09" y1="85" x2="169.09" y2="355"/><line class="cls-15" x1="193.64" y1="85" x2="193.64" y2="355"/><line class="cls-15" x1="218.18" y1="85" x2="218.18" y2="355"/><line class="cls-15" x1="242.73" y1="85" x2="242.73" y2="355"/><line class="cls-15" x1="267.27" y1="85" x2="267.27" y2="355"/><line class="cls-15" x1="291.82" y1="85" x2="291.82" y2="355"/><line class="cls-15" x1="316.36" y1="85" x2="316.36" y2="355"/><line class="cls-15" x1="340.91" y1="85" x2="340.91" y2="355"/><line class="cls-15" x1="365.45" y1="85" x2="365.45" y2="355"/><line class="cls-15" x1="390" y1="85" x2="390" y2="355"/><line class="cls-15" x1="120" y1="256.82" x2="390" y2="256.82"/><line class="cls-15" x1="120" y1="281.36" x2="390" y2="281.36"/><line class="cls-15" x1="120" y1="305.91" x2="390" y2="305.91"/><line class="cls-15" x1="120" y1="330.45" x2="390" y2="330.45"/><line class="cls-15" x1="120" y1="355" x2="390" y2="355"/><rect class="cls-3" x="-150" y="355" width="270" height="270"/><line class="cls-15" x1="-150" y1="379.55" x2="120" y2="379.55"/><line class="cls-15" x1="-150" y1="404.09" x2="120" y2="404.09"/><line class="cls-15" x1="-150" y1="355" x2="120" y2="355"/><line class="cls-15" x1="-150" y1="428.64" x2="120" y2="428.64"/><line class="cls-15" x1="21.82" y1="355" x2="21.82" y2="625"/><line class="cls-15" x1="46.36" y1="355" x2="46.36" y2="625"/><line class="cls-15" x1="70.91" y1="355" x2="70.91" y2="625"/><line class="cls-15" x1="95.45" y1="355" x2="95.45" y2="625"/><line class="cls-15" x1="120" y1="355" x2="120" y2="625"/><rect class="cls-3" x="120" y="355" width="270" height="270"/><line class="cls-15" x1="120" y1="355" x2="120" y2="625"/><line class="cls-15" x1="120" y1="379.55" x2="390" y2="379.55"/><line class="cls-15" x1="120" y1="404.09" x2="390" y2="404.09"/><line class="cls-15" x1="120" y1="355" x2="390" y2="355"/><line class="cls-15" x1="120" y1="428.64" x2="390" y2="428.64"/><line class="cls-15" x1="144.55" y1="355" x2="144.55" y2="625"/><line class="cls-15" x1="169.09" y1="355" x2="169.09" y2="625"/><line class="cls-15" x1="193.64" y1="355" x2="193.64" y2="625"/><line class="cls-15" x1="218.18" y1="355" x2="218.18" y2="625"/><line class="cls-15" x1="242.73" y1="355" x2="242.73" y2="625"/><line class="cls-15" x1="267.27" y1="355" x2="267.27" y2="625"/><line class="cls-15" x1="291.82" y1="355" x2="291.82" y2="625"/><line class="cls-15" x1="316.36" y1="355" x2="316.36" y2="625"/><line class="cls-15" x1="340.91" y1="355" x2="340.91" y2="625"/><line class="cls-15" x1="365.45" y1="355" x2="365.45" y2="625"/><line class="cls-15" x1="390" y1="355" x2="390" y2="625"/></g><line class="cls-16" x1="120" y1="-185" x2="120" y2="625"/><line class="cls-16" x1="300" y1="355" x2="-1140" y2="355"/><line class="cls-16" x1="300" y1="85" x2="-1140" y2="85"/></g></g></svg>