<svg xmlns="http://www.w3.org/2000/svg" xmlns:xlink="http://www.w3.org/1999/xlink" viewBox="0 0 440 440"><defs><style>.cls-1,.cls-15,.cls-16,.cls-20,.cls-21{fill:none;}.cls-2{fill:#fbbc04;}.cls-3{fill:#ea4335;}.cls-4{clip-path:url(#clip-path);}.cls-5{clip-path:url(#clip-path-2);}.cls-6{fill:#c5221f;}.cls-7{fill:#fff;}.cls-8{clip-path:url(#clip-path-3);}.cls-9{clip-path:url(#clip-path-4);}.cls-10{fill:#ea8600;}.cls-11{clip-path:url(#clip-path-5);}.cls-12{clip-path:url(#clip-path-6);}.cls-13{clip-path:url(#clip-path-7);}.cls-14{clip-path:url(#clip-path-8);}.cls-15,.cls-16{stroke:#ff847e;}.cls-15,.cls-16,.cls-20,.cls-21{stroke-miterlimit:10;}.cls-15,.cls-20{stroke-width:0.5px;}.cls-16,.cls-21{stroke-width:1.5px;}.cls-17{clip-path:url(#clip-path-9);}.cls-18{clip-path:url(#clip-path-10);}.cls-19{clip-path:url(#clip-path-12);}.cls-20,.cls-21{stroke:#fde293;}</style><clipPath id="clip-path"><circle class="cls-1" cx="-427.25" cy="220" r="220"/></clipPath><clipPath id="clip-path-2"><path class="cls-1" d="M-1019.44,306.17c1.79.39,3.21-1,5.6-1l3,.93a18.2,18.2,0,0,1,3.08-1,18.52,18.52,0,0,1,3.22.11l3-2.71,3.84,1.16,2.27-5.56c-.32-1.1-.68-2.32-1-3.54.64-1.88,1.82-1.41,3.2-.65,1.17,2.21-.32,4.33-.56,6.61l1.87.87,8.08-3.17,4.19-3.56c.21-1.07.46-2.31.69-3.46,1.82-1.9,3.12-.24,4.5.49,3.06-.23,3.1-2.51,3.18-4.68,1.89-.62,2.53,1.18,3.77,1.77,2-.08,3.72-.68,4.7-2.55l1.74,1.31,6.27-.81,1.79-1.65c1.43-.36,3,.48,4.36-.5,1.53-1.09,3.28-.63,5-.78,1.42-.12,2.78-1,4-1.48.33-1.11.58-1.92.81-2.71,1.6-1.48,3.47-1.52,5.64-1.09.5-.54,1.07-1.16,1.87-2.05h3.65l2.29-1.88,2.07,1.35,1.95-.76c.62-1.11,1.26-2.23,2-3.59l3.62-.51a7.45,7.45,0,0,1,3.53-5c1.54,1.53-.29,3.22.7,5.15l1.52.75c1.56-.41,1.74-1.41,1.53-2.65l12.43-8.83c-.4-.91-2.3-1.43-1-2.94,1.71-.75,3,.74,4.41.7,1.25,0,2.5-.3,4-.5.17-.21.58-.69,1-1.22l3.71-.18L-881,254l1.57.26,2-2,1.58-5.68,4.8,0c2.06-.71,1.89-3.27,3.21-4.91l2.82,1.43,2.32-2c3.4.12,3.4.12,6.15-2.25,1.42-.42,1.56,1.31,2.59,1.53l11.9,2,1.17-1.49a8.26,8.26,0,0,1,5.95,1.27l1.66-1.52,3.8,1.13a10.81,10.81,0,0,0,2.07-.85c2.1-1.35,3.79-3.65,6.8-2.68,2.31-1.32,4.59-.4,7,.34.59-.77,1.08-1.43,1.58-2.09,1.89-.12,3.91-.74,5.61-.24a22.57,22.57,0,0,0,5.63.6c.71,0,1.4.82,2.07,1.25l1.84-.82c.33-1,.65-1.94.88-2.61,1.78-1,2,1,3.08,1,3.7,0,4.78-3.92,7.73-5.46.92,1.4,1.71,2.62,2.45,3.76a4.63,4.63,0,0,0,1.39.08c2.27-.62,4.53-1.3,6-3.34,2,.92,2.24-1.58,3.72-1.81a11.72,11.72,0,0,0,3.31-1.48c-.11-1.43-.18-2.45-.26-3.44l1.47-.79,1.81,2.42c.39.1.82.35,1.18.28,1.44-.32,2.69-1.15,4.37-.82,1.52.31,1.59,0,3.8-1.88l1.54,1.11,5.66-.15,4-3.14,2.33,1.63c.57-.88,1.15-1.77,1.71-2.65l2.42-.09,1.24-3,2.25,0c.52-.86,1.17-1.9,1.94-3.15l4-1.57,1.11-3.2,3.22-1.27a38.56,38.56,0,0,0,4.21,2.28,31.8,31.8,0,0,0,4.45,1.11c2.61-.41,4.91-2.41,8-1.78.94.19,2.46-.87,3.24-1.77a7.74,7.74,0,0,1,3.85-2.2l11.89,2.62,4,10.07,2.5,2.41c0,1.06,0,2.09,0,3.39l4.59,1.43,1.46,2.85,6,2,1,2.54c-.53.8-1,1.45-1.48,2.23l3.6,1.67c.42-1.09.75-2,1-2.65,1.61-1,1.78,1.06,2.72,1l2-1.65,1.13.92c-.33,2.2-.67,4.45-1,6.84l3.66-.41,3.72,2.77,10.92-.08,1.85,1.29,4.8-1.42a10.43,10.43,0,0,0,5.11,2.35,51.53,51.53,0,0,1,9.82,3,30.68,30.68,0,0,0,4.95,1.25,34.79,34.79,0,0,1,4.83,1.86c1.6.58,3.25,1,5.23,1.67.15,1.24.32,2.65.53,4.42,2.82,2.37,3.57,7.27,7.91,8.82l1.1-1.07c2.61,1,.59,3.47,1.56,5l2.34.68c0,.43,0,.86.07,1.43l2,.22c1.73.92,1,3.49,2.64,4.75l2.51.62c.73,1.53,1.12,3.46,2.3,4.49,1.41,1.24,2,2.77,2.79,4.24l3.26,1.87c-.12.57-.21,1-.37,1.69,1,1.32,1.91,3.26,3.4,4.15a10.19,10.19,0,0,1,4.55,5.14c2.29,1.06,2.13,3.63,3.5,5.61.92.45,2.06,1.09,3.26,1.56a19.64,19.64,0,0,0,2.5.7c.49,2,.39,3.73,1.16,4.35,3,2.39,3.09,6.06,4.9,9l-1.77,3.07c1.92,4.41,6.53,5.79,10.32,8.83l1.17,2.49c2,1.06,4.61.87,6.41,2.89,0,.49,0,1.12,0,1.87l2.66,3.49,2.2.47c1.2.94-.15,2.78,1.58,3.83,1.08.66,1.39,2.57,2.06,3.94-.4,1.31-.77,2.54-1.18,3.9.29,1.11.61,2.35,1,3.67-.58,1.58-1.17,3.2-1.75,4.76a4.46,4.46,0,0,0,.14,1.32c1.22,2.46,1.45,5.47,4,7.19.46.31.61,1.11.88,1.7,1.46,3.17,1.54,6.64,1.85,10,.29,3.07-.34,4-3.13,8.33l2.05,1.9c0,.74,0,1.77,0,2.8.62,1.17,1.89,1.73,6.58,2.82-.11.77-.2,1.58-.37,2.36s-.39,1.23-.64,2c.49.6,1,1.26,1.63,2,0,.43,0,1.05,0,2.07l5.35,4.33c0,.38,0,1-.05,1.83l2.52,2.75c-.05.84-.1,1.69-.16,2.6l4.16,4c-.08,2-.16,3.87-.24,5.79,2.95,2.51,3.08,6.49,5,10.1l5.67,4.31,1.61,3.55c1.08,1.72,3.75,2.25,3.61,4.86,1.59,1.26,2,3.21,2.88,4.88,1.1,2-.4,4.34.9,6a13.9,13.9,0,0,0-.42,1.59c-.22,2-2.33,3-2.54,5.06a24.23,24.23,0,0,1-1,5c-.6,1.84-1.13,3.91-2.35,5.29-2.09,2.38-2.74,5.34-4.15,7.8.27,4.24.35,8.28-1.29,12.45.27.79.6,1.8.94,2.81a3.8,3.8,0,0,1,0,1.26c-1,2.83-1.62,5.79-2.33,8.66-.62,2.5-2.33,5.3-.42,8-.16,3.86-.2,7.75-2.35,11.07,1.88,4.12.92,7.8-.66,11.21-.14,3.37.55,6.45-.13,9.71-.53,2.56.48,5.43.79,8.17a6.07,6.07,0,0,1,0,.95c-.89,1.85-1.32,4.23-3.19,6a3.77,3.77,0,0,0-1.07,2.3c-.28,3.68-2.34,6.88-2.66,11.45.4,1.15,1.09,3.18,1.89,5.53l-3.88,9.23-14,5.51c-4.76,5.54-8.37,11.5-9.77,18.68a12.1,12.1,0,0,1-3.66,6.71,24.79,24.79,0,0,0-3.46,3.79c-.7,1-.94,2.32-1.68,4.27a18.35,18.35,0,0,1-3.65,3.12c-1.76.94-2,2.77-3.43,4.26-3.12.24-5,3.26-7.89,4.67s-3.51,4.77-5.41,7.62c-3.71,1.46-7.67,3.21-11.76,4.56a33,33,0,0,0-10.15,5.39c-3,2.35-6.6,4-8.66,7.45l-5.16,2-4.68,6.1-10.77,4.23-3.74,4.09c-3.2,2-7.09,2.31-9.88,4.9-5.88.64-10.86,3.88-16.36,5.62-4.42-.71-8.09,2.69-12.51,2.27-1.17-.1-2.48.72-3.65,1.26a22.55,22.55,0,0,1-11.19,2.32c-2.55-.19-4.48,1.44-6.82,1.83a24.19,24.19,0,0,1-3.18-.25,5.83,5.83,0,0,0-6.19,2.39c-1.35,1.65-2.81,3.19-4.11,4.91a17.64,17.64,0,0,1-5.22,4.54,38,38,0,0,0-4.77,3.18,23.78,23.78,0,0,1-6.38,4.2c-1.91.72-3.49,2.36-5.14,3.69s-3.19,2.79-4.67,4.09l-1.49-.14a4.88,4.88,0,0,0-1,.66c-1.62,1.71-3,3.67-5.1,4.05l-6.46,8.1c-.77.3-1.75.73-2.76,1.08-2.39.83-3.62,4-6.67,3.39-2.66-.52-4.84,2-7.57,1.06-.51-.17-1.25.2-1.84.42-4.24,1.64-8.48,3.27-12.69,5A7.63,7.63,0,0,0-769,760a4.75,4.75,0,0,1-4,1.6,10.93,10.93,0,0,0-7.73,2.8c-2.37,2.19-5.2,3-8,4-2.58.92-5,2.77-8,2-2.8,1.14-6,.41-8.77,1.78a6,6,0,0,1-2.51.14,21.11,21.11,0,0,0-11.46,2.88l-1.59,2.48a73.08,73.08,0,0,0-6.91,5.32,7.62,7.62,0,0,1-5,2.31,20.21,20.21,0,0,0-11.67,4.78c-2.41,2-4.84,4.15-8.08,5.05-1.34.37-2.45,1.59-4,2.67-3.76.48-8.11.75-11.19,4.35-6.09,2.58-11.94,6-19,5a44.12,44.12,0,0,0-5.88,0l-4.15-1.53c-1.2.47-2.67.64-3.49,1.47a10.29,10.29,0,0,1-3.65,2.51c-3,1.18-6.28,1.77-8.37,4.58l-7.51,2.94c-.59-.18-1.4-.41-2.2-.69s-1.61-.63-2.36-.92a36.28,36.28,0,0,1-4.51.15c-1.69-.15-3.36-.6-5.71-1-3.42,1.34-7.55,2.69-11.42,4.57a25.33,25.33,0,0,1-10,2.18,15.61,15.61,0,0,0-5,.83,15.49,15.49,0,0,1-5.6,1.28c-1.64,0-3.29.92-4.91,1.52-2.84,1-5.66,2.16-8.49,3.25-4.74-.32-8.63,2.37-12.9,3.72a27.06,27.06,0,0,1-6.21,1.47c-2.49.19-4.89,1.58-7.34,2.41-2.61.89-5,2.27-8,2.06-1.56-.11-3.21,1.14-4.55,1.66l-16.44-.54-3.57,1.21-5.26-.44-4.31,1.38-3.75-1a7.55,7.55,0,0,0-1.73.46c-4.33,2.29-9,2.55-13.75,2.4-2.75-.09-5.51.09-8.85.17l-5.49-2.22c-1,.07-2.28.54-3.11.15-2.52-1.18-5.22-1.81-7.75-2.91-2.38-1-4.82-1.94-7.14-3.11a27.26,27.26,0,0,0-12.4-3.19l-1.26,1.32a30.57,30.57,0,0,1-8.2-.34c-3-.62-6.28-1-9.51.34a7.21,7.21,0,0,1-6.24-.55c-2-1.12-4.15-1-6.27-1.19l-3.64,1.21c-6.63-.54-12.22-3.1-18.95-3.29-3.17-1.43-6.79-3.55-10.69-4.71-3.6-1.07-7.43-1.91-11.6-1.25l-4.63-1.72c-1.48-2.8-3.4-4.23-4.49-6.42a8.12,8.12,0,0,0-6.1-4.36,24.73,24.73,0,0,1-9.52-3.76,4.39,4.39,0,0,0-1.67-.78c-4-.45-6.34-3.28-8.76-6.35-.89-.16-1.94-.31-3-.55-6.66-1.51-6.66-1.52-15-7.06a25.38,25.38,0,0,0-3.62-.58,11.49,11.49,0,0,1-8-3.67,25.32,25.32,0,0,0-8.43-5.82,8.29,8.29,0,0,1-2.57-1.85c-3.07-3.07-6.85-5.13-10.4-7.5a18.6,18.6,0,0,0-4.2-1.54c-1-.35-2.41-.39-2.94-1.09-1.53-2.07-3.93-1.49-6.32-2.47-2.16-2.9-4.48-6.19-7-9.31-1.36-1.68-3-3.17-3.37-5.37-.52-2.74-3-4.1-4.37-6.63-5.17-1.49-8-6.71-13-9l-5.43-13.84c.17-1.38.47-3.28.63-5.19a10.29,10.29,0,0,0-.07-3.8,11.49,11.49,0,0,1,1-9.31,20,20,0,0,0,.87-2.22c.27-1.68-.47-3.07,0-4.65a45.73,45.73,0,0,0,2-10.68,8.34,8.34,0,0,0-1.72-5.36c-2.24-3.2-5.46-5.38-8.4-8.26l-.21-3.82-4-4.85c0-.47,0-1.11,0-2a10.26,10.26,0,0,1-3.42-5.06c-.94-2.61-1.68-5.31-3.94-7.29a4.73,4.73,0,0,1-1.06-3,47.15,47.15,0,0,1-.07-7c.35-4.27.79-8.48-.84-12.65-.52-1.31-.18-2.94-.49-4.37a13.57,13.57,0,0,0-1-2.72l-7-7.61c-.29-2.08-.55-4-.9-6.52-.06.47-.06.25,0,0a8,8,0,0,1,.37-1.24c.5-1.19.77-2.63,1.62-3.51,3.1-3.27,4.09-7.9,7.46-11.16.19-1.34.39-2.82.62-4.52.72-1.25,1.58-2.71,2.4-4.19s1.07-3.29,2.6-4.41a2.41,2.41,0,0,0,1-1.6c.18-3.7,2.43-6.89,2.6-10.52.11-2.53.46-5,.73-7.51a16.29,16.29,0,0,0-2-9c1-6.38,3.63-12.19,2.84-19,.66-1.6,1.45-3.61,2.32-5.58.7-1.57,1.65-3,1.54-4.88a2.36,2.36,0,0,1,.54-1.81c2.58-1.9,2-5,3.17-7.51a26.68,26.68,0,0,0,2.57-7.94c.17-1.44,1.17-2.77,1.69-4.19.36-1,.53-2.05.94-3.66l5.08-5.7c.62-2.12,1.16-4.18,1.82-6.21a15.63,15.63,0,0,1,4-6.51,23.88,23.88,0,0,0,4.39-5.5,15.78,15.78,0,0,1,3.1-3.18c.62-.59,1.32-1.09,1.92-1.68s.83-1,1.28-1.51c.17-1.65.35-3.35.58-5.61,1-1.06,2.07-2.9,3.66-3.73,3.21-1.69,5.09-4.51,7.24-7.15,1.35-1.67,2.62-3.4,4.1-4.94a40.67,40.67,0,0,1,4.27-3.24l2-3.91c1.11-.68,2.72-1.19,3.55-2.3,1-1.37,2.93-.36,3.66-1.84,1,.73,1.89,1.93,3.63.76l4.76-7.17,2.23,1.51c.31-.05.52-.07.73-.12s.48-.05.61-.18c1.35-1.37,2.68-2.76,4.35-4.49l5-2c.83-1.59,1.62-3.12,2.4-4.64,2.53.21,3.56-3,6.44-2.49l1.87,1.25c-.1-1.09-.2-2.13-.3-3.2,1.25-1.74,3.25-.12,4.75-1.09a23.18,23.18,0,0,1,4.14-1.69,9.85,9.85,0,0,1-.59-5.1l2.23.84c0,1.07.06,1.91.09,2.74l1.71.91c.85.07,3.62-2.44,6.08-5.38-.38-1.19-.76-2.39-1.21-3.78l2.62-.16a4.36,4.36,0,0,0,.94-.81c.57-.89.85-2.27,1.64-2.68,2.22-1.15,3.19-3.7,5.16-4.7,2.15-1.1,2.34-3.62,4.32-4.74l2.43,1.6c3.48-.17,5-4.46,8.43-4.48l3.27-4.53,4.15.9,4.54-2.58,2.24,1.48a1.7,1.7,0,0,0,.62.09c.42-.09.82-.26,1.24-.38,2.21-.62,4.43-1.21,6.63-1.87.37-.11.64-.53,1-.87l5,.23c.19-.22.41-.36.45-.55.3-1.2.57-2.4.83-3.55,1.73-.85,2.91.74,4.29.77a3.74,3.74,0,0,0,1.22-.5c1.74-1.76,1.72-1.79,4.33-2.72l2,1.35a6.22,6.22,0,0,0,4-1.63c3-2.35,5.9-4.94,9.71-6a8.37,8.37,0,0,1,3.08-.64c2.1.28,3.68-1.11,5.94-1.38l3.54,1.1c.48-3.87,3.32-6.85,3.44-10.9l2.08.59c.12.44.36.82.29,1.14-.51,2.3-1.08,4.59-1.61,6.8a20.67,20.67,0,0,1,2.71,1.08,28.88,28.88,0,0,1,2.67,1.91c1.58-1.36,3.62-2.32,4.22-3.85a12.09,12.09,0,0,1,2.81-4.18l2,2.45a3,3,0,0,0,2.86-1c.86-1,1.7-1.94,2.78-3.18l3.61,2.21c-.07-1.06-.13-2.1-.19-3.07,1-1.72,2.53-1.35,4-1.25.64-1.08,1.29-2.17,1.91-3.23l2.49-.2c.13-.62.25-1.24.39-1.95l4,1,3.3-2.8,1.89.25c1.6-1.3,1.12-4.11,3.43-5.08,2.09-.87,2.79-3.21,5.74-5.16,1.75-1,5.31-1.49,8-3.43,0-2.39-2.27-2-3.16-3.34.13-.22.23-.65.51-.83a6.59,6.59,0,0,1,5.22-.73c2.29-3.31,6.61-3.34,9.68-5.44.27-.93.51-1.74.74-2.55.35-.25.74-.77,1-.72,2.8.54,5.41-.86,8.19-.68a5.53,5.53,0,0,0,4-1.83c2.49-2.28,5.12-4.41,7.75-6.65l3.39,1.11Z"/></clipPath><clipPath id="clip-path-3"><circle class="cls-1" cx="220" cy="220" r="220"/></clipPath><clipPath id="clip-path-4"><path class="cls-1" d="M-372.19,306.17c1.79.39,3.21-1,5.59-1l3.05.93a17.66,17.66,0,0,1,3.08-1,18.55,18.55,0,0,1,3.22.11l3-2.71,3.83,1.16c.73-1.77,1.46-3.57,2.28-5.56-.33-1.1-.68-2.32-1-3.54.63-1.88,1.81-1.41,3.19-.65,1.17,2.21-.32,4.33-.56,6.61l1.88.87,8.07-3.17,4.2-3.56c.21-1.07.46-2.31.69-3.46,1.82-1.9,3.12-.24,4.5.49,3.05-.23,3.09-2.51,3.18-4.68,1.88-.62,2.52,1.18,3.76,1.77,2-.08,3.72-.68,4.71-2.55l1.73,1.31,6.28-.81,1.79-1.65c1.42-.36,3,.48,4.36-.5s3.28-.63,5-.78c1.43-.12,2.79-1,4-1.48.34-1.11.58-1.92.82-2.71,1.6-1.48,3.47-1.52,5.64-1.09l1.87-2.05h3.65l2.28-1.88,2.08,1.35,1.94-.76,2-3.59,3.62-.51a7.47,7.47,0,0,1,3.52-5c1.55,1.53-.28,3.22.7,5.15l1.53.75c1.56-.41,1.74-1.41,1.52-2.65l12.43-8.83c-.4-.91-2.3-1.43-1-2.94,1.72-.75,3,.74,4.42.7,1.25,0,2.49-.3,4-.5l1.05-1.22,3.71-.18,2.9-2.42,1.57.26,2-2c.54-1.94,1.05-3.78,1.57-5.68l4.81,0c2.06-.71,1.88-3.27,3.21-4.91l2.81,1.43,2.33-2c3.4.12,3.4.12,6.14-2.25,1.42-.42,1.56,1.31,2.6,1.53l11.89,2,1.18-1.49a8.24,8.24,0,0,1,5.94,1.27l1.66-1.52,3.81,1.13a11.08,11.08,0,0,0,2.07-.85c2.1-1.35,3.79-3.65,6.8-2.68,2.3-1.32,4.59-.4,7,.34l1.58-2.09c1.88-.12,3.9-.74,5.61-.24a22.57,22.57,0,0,0,5.63.6c.71,0,1.39.82,2.07,1.25l1.83-.82.89-2.61c1.78-1,2,1,3.07,1,3.7,0,4.78-3.92,7.74-5.46l2.44,3.76a4.64,4.64,0,0,0,1.39.08c2.28-.62,4.54-1.3,6-3.34,2,.92,2.25-1.58,3.73-1.81a11.54,11.54,0,0,0,3.3-1.48c-.1-1.43-.18-2.45-.25-3.44l1.46-.79,1.82,2.42c.39.1.82.35,1.18.28,1.44-.32,2.69-1.15,4.36-.82s1.59,0,3.81-1.88l1.54,1.11,5.65-.15,4-3.14,2.32,1.63c.58-.88,1.15-1.77,1.72-2.65L-91,220l1.23-3,2.25,0,2-3.15,4-1.57c.38-1.09.72-2.08,1.1-3.2l3.22-1.27a38.56,38.56,0,0,0,4.21,2.28,32.52,32.52,0,0,0,4.45,1.11c2.62-.41,4.92-2.41,8-1.78.94.19,2.45-.87,3.23-1.77a7.78,7.78,0,0,1,3.85-2.2l11.9,2.62,4,10.07,2.5,2.41c0,1.06,0,2.09-.05,3.39l4.6,1.43,1.45,2.85,6,2,1,2.54L-23.71,235l3.6,1.67,1-2.65c1.61-1,1.78,1.06,2.73,1l2-1.65,1.14.92c-.34,2.2-.68,4.45-1,6.84l3.65-.41,3.73,2.77L4,243.36l1.84,1.29,4.8-1.42a10.42,10.42,0,0,0,5.12,2.35,51.75,51.75,0,0,1,9.82,3,30.56,30.56,0,0,0,4.94,1.25,34.31,34.31,0,0,1,4.83,1.86c1.61.58,3.25,1,5.23,1.67.15,1.24.32,2.65.53,4.42,2.83,2.37,3.57,7.27,7.92,8.82l1.09-1.07c2.61,1,.6,3.47,1.57,5l2.33.68c0,.43,0,.86.07,1.43l2,.22c1.73.92,1,3.49,2.64,4.75l2.5.62c.74,1.53,1.13,3.46,2.3,4.49,1.42,1.24,2,2.77,2.8,4.24l3.25,1.87-.36,1.69c1,1.32,1.9,3.26,3.4,4.15a10.24,10.24,0,0,1,4.55,5.14c2.29,1.06,2.13,3.63,3.5,5.61.92.45,2,1.09,3.25,1.56a20.11,20.11,0,0,0,2.5.7c.5,2,.39,3.73,1.16,4.35,3,2.39,3.1,6.06,4.91,9l-1.77,3.07c1.91,4.41,6.53,5.79,10.32,8.83.25.55.71,1.52,1.16,2.49,2,1.06,4.62.87,6.41,2.89,0,.49,0,1.12,0,1.87l2.66,3.49,2.21.47c1.19.94-.16,2.78,1.58,3.83,1.08.66,1.39,2.57,2,3.94-.4,1.31-.77,2.54-1.18,3.9.29,1.11.62,2.35,1,3.67l-1.75,4.76a3.88,3.88,0,0,0,.14,1.32c1.22,2.46,1.44,5.47,4,7.19.46.31.61,1.11.87,1.7,1.47,3.17,1.54,6.64,1.86,10,.29,3.07-.35,4-3.14,8.33l2.06,1.9c0,.74,0,1.77,0,2.8.63,1.17,1.89,1.73,6.59,2.82-.12.77-.2,1.58-.37,2.36s-.39,1.23-.65,2l1.64,2c0,.43,0,1.05,0,2.07l5.36,4.33c0,.38,0,1-.05,1.83l2.52,2.75c0,.84-.11,1.69-.16,2.6l4.15,4c-.08,2-.16,3.87-.24,5.79,3,2.51,3.09,6.49,5,10.1,1.51,1.14,3.37,2.55,5.67,4.31.38.83,1,2.19,1.61,3.55,1.08,1.72,3.75,2.25,3.62,4.86,1.59,1.26,2,3.21,2.88,4.88,1.1,2-.41,4.34.89,6a13.42,13.42,0,0,0-.41,1.59c-.23,2-2.33,3-2.54,5.06a23.61,23.61,0,0,1-1,5c-.59,1.84-1.12,3.91-2.34,5.29-2.09,2.38-2.74,5.34-4.15,7.8.26,4.24.34,8.28-1.29,12.45.26.79.6,1.8.94,2.81a4.08,4.08,0,0,1,0,1.26c-1,2.83-1.62,5.79-2.33,8.66-.61,2.5-2.33,5.3-.41,8-.17,3.86-.2,7.75-2.36,11.07,1.89,4.12.93,7.8-.66,11.21-.13,3.37.56,6.45-.12,9.71-.54,2.56.47,5.43.79,8.17,0,.21,0,.42,0,.95-.9,1.85-1.33,4.23-3.19,6a3.72,3.72,0,0,0-1.07,2.3c-.28,3.68-2.34,6.88-2.66,11.45l1.89,5.53c-1.26,3-2.59,6.14-3.89,9.23l-14,5.51c-4.76,5.54-8.36,11.5-9.76,18.68a12.17,12.17,0,0,1-3.67,6.71,24.79,24.79,0,0,0-3.46,3.79c-.69,1-.94,2.32-1.67,4.27a18.76,18.76,0,0,1-3.66,3.12c-1.76.94-2,2.77-3.42,4.26-3.12.24-5,3.26-7.9,4.67s-3.51,4.77-5.4,7.62c-3.71,1.46-7.67,3.21-11.77,4.56a33,33,0,0,0-10.14,5.39c-3,2.35-6.6,4-8.67,7.45l-5.16,2c-1.38,1.81-2.94,3.83-4.67,6.1L30.3,685.74l-3.73,4.09c-3.2,2-7.1,2.31-9.88,4.9-5.88.64-10.87,3.88-16.37,5.62-4.42-.71-8.08,2.69-12.51,2.27-1.17-.1-2.47.72-3.64,1.26A22.57,22.57,0,0,1-27,706.2c-2.55-.19-4.49,1.44-6.83,1.83a24.46,24.46,0,0,1-3.18-.25,5.84,5.84,0,0,0-6.19,2.39c-1.35,1.65-2.8,3.19-4.1,4.91a17.68,17.68,0,0,1-5.23,4.54,37.21,37.21,0,0,0-4.76,3.18,23.94,23.94,0,0,1-6.38,4.2c-1.91.72-3.49,2.36-5.14,3.69s-3.19,2.79-4.68,4.09l-1.48-.14a5,5,0,0,0-1,.66c-1.62,1.71-3,3.67-5.1,4.05l-6.45,8.1c-.78.3-1.76.73-2.77,1.08-2.38.83-3.61,4-6.67,3.39-2.65-.52-4.84,2-7.56,1.06-.52-.17-1.25.2-1.85.42-4.24,1.64-8.48,3.27-12.69,5a7.68,7.68,0,0,0-2.69,1.67,4.76,4.76,0,0,1-4,1.6,10.92,10.92,0,0,0-7.72,2.8c-2.38,2.19-5.21,3-8,4-2.59.92-5,2.77-8,2-2.81,1.14-6,.41-8.78,1.78a5.94,5.94,0,0,1-2.51.14,21.1,21.1,0,0,0-11.45,2.88l-1.6,2.48a74.17,74.17,0,0,0-6.9,5.32,7.65,7.65,0,0,1-5,2.31,20.24,20.24,0,0,0-11.67,4.78c-2.41,2-4.83,4.15-8.07,5.05-1.35.37-2.46,1.59-4,2.67-3.76.48-8.11.75-11.19,4.35-6.1,2.58-11.94,6-19,5a44.14,44.14,0,0,0-5.88,0l-4.16-1.53c-1.19.47-2.66.64-3.48,1.47a10.38,10.38,0,0,1-3.65,2.51c-3,1.18-6.29,1.77-8.37,4.58l-7.51,2.94c-.59-.18-1.41-.41-2.21-.69s-1.61-.63-2.36-.92a36.12,36.12,0,0,1-4.5.15c-1.7-.15-3.36-.6-5.71-1-3.43,1.34-7.55,2.69-11.42,4.57a25.33,25.33,0,0,1-10,2.18,15.56,15.56,0,0,0-5,.83,15.54,15.54,0,0,1-5.61,1.28c-1.64,0-3.29.92-4.9,1.52-2.85,1-5.66,2.16-8.49,3.25-4.75-.32-8.63,2.37-12.9,3.72a27.18,27.18,0,0,1-6.21,1.47c-2.5.19-4.89,1.58-7.34,2.41-2.62.89-5,2.27-8,2.06-1.55-.11-3.21,1.14-4.55,1.66l-16.43-.54-3.57,1.21-5.27-.44-4.3,1.38-3.75-1a7.29,7.29,0,0,0-1.73.46c-4.33,2.29-9,2.55-13.75,2.4-2.76-.09-5.52.09-8.85.17l-5.49-2.22c-1.05.07-2.28.54-3.12.15-2.51-1.18-5.21-1.81-7.74-2.91-2.38-1-4.83-1.94-7.14-3.11a27.26,27.26,0,0,0-12.4-3.19l-1.27,1.32A30.6,30.6,0,0,1-475,833c-3-.62-6.27-1-9.5.34a7.23,7.23,0,0,1-6.25-.55c-2-1.12-4.14-1-6.26-1.19l-3.65,1.21c-6.62-.54-12.21-3.1-18.94-3.29-3.17-1.43-6.79-3.55-10.69-4.71-3.61-1.07-7.44-1.91-11.6-1.25l-4.63-1.72c-1.49-2.8-3.41-4.23-4.49-6.42a8.14,8.14,0,0,0-6.11-4.36,24.74,24.74,0,0,1-9.51-3.76,4.46,4.46,0,0,0-1.67-.78c-4-.45-6.35-3.28-8.77-6.35-.88-.16-1.93-.31-3-.55-6.66-1.51-6.66-1.52-15.06-7.06a25.46,25.46,0,0,0-3.61-.58,11.49,11.49,0,0,1-8-3.67,25.53,25.53,0,0,0-8.43-5.82,8.22,8.22,0,0,1-2.58-1.85c-3.06-3.07-6.85-5.13-10.4-7.5a18.42,18.42,0,0,0-4.2-1.54c-1-.35-2.41-.39-2.93-1.09-1.53-2.07-3.93-1.49-6.32-2.47-2.17-2.9-4.49-6.19-7-9.31-1.35-1.68-2.94-3.17-3.36-5.37-.52-2.74-3.06-4.1-4.38-6.63-5.17-1.49-8-6.71-13-9l-5.44-13.84c.17-1.38.48-3.28.63-5.19a10.08,10.08,0,0,0-.07-3.8,11.49,11.49,0,0,1,1-9.31,18.25,18.25,0,0,0,.87-2.22c.28-1.68-.47-3.07,0-4.65a45.73,45.73,0,0,0,2-10.68,8.28,8.28,0,0,0-1.72-5.36c-2.23-3.2-5.45-5.38-8.39-8.26l-.21-3.82c-1.22-1.48-2.56-3.12-4-4.85,0-.47,0-1.11,0-2a10.14,10.14,0,0,1-3.42-5.06c-.94-2.61-1.69-5.31-4-7.29a4.66,4.66,0,0,1-1-3,45.85,45.85,0,0,1-.07-7c.35-4.27.78-8.48-.85-12.65-.51-1.31-.18-2.94-.49-4.37a13.74,13.74,0,0,0-1-2.72l-7-7.61c-.29-2.08-.56-4-.91-6.52,0,.47,0,.25,0,0a9.26,9.26,0,0,1,.37-1.24c.51-1.19.78-2.63,1.62-3.51,3.1-3.27,4.1-7.9,7.47-11.16.18-1.34.39-2.82.62-4.52.71-1.25,1.57-2.71,2.39-4.19s1.07-3.29,2.6-4.41a2.46,2.46,0,0,0,1-1.6c.17-3.7,2.43-6.89,2.59-10.52.12-2.53.46-5,.74-7.51a16.38,16.38,0,0,0-2-9c1-6.38,3.63-12.19,2.85-19,.66-1.6,1.44-3.61,2.32-5.58.7-1.57,1.65-3,1.53-4.88a2.4,2.4,0,0,1,.54-1.81c2.58-1.9,2-5,3.17-7.51a26.39,26.39,0,0,0,2.57-7.94c.17-1.44,1.17-2.77,1.69-4.19.36-1,.54-2.05.94-3.66l5.09-5.7c.61-2.12,1.16-4.18,1.81-6.21a15.74,15.74,0,0,1,4-6.51,23.92,23.92,0,0,0,4.4-5.5,15.52,15.52,0,0,1,3.1-3.18c.61-.59,1.31-1.09,1.92-1.68.45-.45.83-1,1.27-1.51.17-1.65.35-3.35.59-5.61,1-1.06,2.06-2.9,3.65-3.73,3.22-1.69,5.1-4.51,7.24-7.15,1.35-1.67,2.62-3.4,4.11-4.94a41.45,41.45,0,0,1,4.26-3.24c.36-.67,1.15-2.19,2.05-3.91,1.1-.68,2.72-1.19,3.54-2.3,1-1.37,2.93-.36,3.67-1.84,1,.73,1.88,1.93,3.63.76,1.47-2.23,3.11-4.7,4.76-7.17l2.23,1.51c.3-.05.52-.07.73-.12s.47-.05.6-.18c1.36-1.37,2.69-2.76,4.36-4.49l5-2,2.41-4.64c2.53.21,3.56-3,6.44-2.49l1.87,1.25c-.11-1.09-.2-2.13-.31-3.2,1.26-1.74,3.26-.12,4.76-1.09a22.88,22.88,0,0,1,4.14-1.69,9.75,9.75,0,0,1-.59-5.1l2.23.84c0,1.07.06,1.91.08,2.74l1.71.91c.86.07,3.63-2.44,6.09-5.38-.38-1.19-.77-2.39-1.21-3.78l2.62-.16a4.08,4.08,0,0,0,.93-.81c.58-.89.85-2.27,1.65-2.68,2.22-1.15,3.19-3.7,5.16-4.7,2.14-1.1,2.34-3.62,4.31-4.74l2.44,1.6c3.48-.17,5-4.46,8.43-4.48l3.27-4.53,4.15.9,4.54-2.58,2.23,1.48a1.75,1.75,0,0,0,.63.09c.42-.09.82-.26,1.23-.38,2.22-.62,4.44-1.21,6.64-1.87.36-.11.63-.53,1-.87l4.94.23c.19-.22.41-.36.46-.55.3-1.2.56-2.4.82-3.55,1.74-.85,2.91.74,4.3.77a3.74,3.74,0,0,0,1.22-.5c1.74-1.76,1.71-1.79,4.32-2.72l2,1.35a6.17,6.17,0,0,0,4-1.63c3-2.35,5.91-4.94,9.71-6a8.45,8.45,0,0,1,3.08-.64c2.11.28,3.69-1.11,5.95-1.38l3.53,1.1c.49-3.87,3.32-6.85,3.45-10.9l2.07.59c.12.44.37.82.3,1.14-.51,2.3-1.08,4.59-1.62,6.8a20.13,20.13,0,0,1,2.71,1.08,28.88,28.88,0,0,1,2.67,1.91c1.59-1.36,3.62-2.32,4.23-3.85a11.82,11.82,0,0,1,2.81-4.18c.64.82,1.28,1.62,1.94,2.45a3,3,0,0,0,2.86-1c.87-1,1.71-1.94,2.79-3.18l3.61,2.21c-.07-1.06-.14-2.1-.2-3.07,1-1.72,2.53-1.35,4-1.25l1.92-3.23,2.49-.2c.12-.62.25-1.24.39-1.95l3.95,1,3.3-2.8,1.89.25c1.61-1.3,1.12-4.11,3.44-5.08,2.08-.87,2.79-3.21,5.74-5.16,1.74-1,5.3-1.49,8-3.43,0-2.39-2.28-2-3.17-3.34.13-.22.24-.65.51-.83a6.6,6.6,0,0,1,5.22-.73c2.3-3.31,6.61-3.34,9.69-5.44.27-.93.5-1.74.74-2.55.34-.25.74-.77,1-.72,2.8.54,5.41-.86,8.19-.68a5.51,5.51,0,0,0,4-1.83c2.5-2.28,5.13-4.41,7.76-6.65l3.39,1.11Z"/></clipPath><clipPath id="clip-path-5"><rect class="cls-1" x="-647.21" y="588.64" width="440" height="440"/></clipPath><clipPath id="clip-path-6"><path class="cls-1" d="M-647.25,588.64v440h440v-440Zm220,410c-104.93,0-190-85.06-190-190s85.07-190,190-190,190,85.07,190,190S-322.31,998.64-427.25,998.64Z"/></clipPath><clipPath id="clip-path-7"><rect class="cls-1" x="-647.25" y="588.64" width="440" height="440"/></clipPath><clipPath id="clip-path-8"><rect class="cls-3" x="-1147.25" y="403.64" width="1440" height="810"/></clipPath><clipPath id="clip-path-9"><rect class="cls-1" y="588.64" width="440" height="440"/></clipPath><clipPath id="clip-path-10"><path class="cls-1" d="M0,588.64v440H440v-440Zm220,410c-104.93,0-190-85.06-190-190s85.07-190,190-190,190,85.07,190,190S324.93,998.64,220,998.64Z"/></clipPath><clipPath id="clip-path-12"><rect class="cls-2" x="-500" y="403.64" width="1440" height="810"/></clipPath></defs><g id="Safe_Zone" data-name="Safe Zone"><g class="cls-4"><g class="cls-5"><path class="cls-6" d="M8.93,295.51v2h-15v-2H.24V283.7H-6.1v-2H2.65v13.82ZM2.47,275.35v3H-.16v-3Z"/><path class="cls-6" d="M25.63,296.66l-2.32,1.23-1-2.29a6.37,6.37,0,0,1-4.92,2.29c-4,0-6.06-3.31-6.06-8.25,0-5.45,2.32-8.35,6.4-8.35a5.13,5.13,0,0,1,4.39,2.1v-8.47h2.42v19.35Zm-3.56-2.29v-9.31a5.09,5.09,0,0,0-3.68-1.55c-3,0-4.6,2.11-4.6,6.13,0,3.86,1.57,6.06,4.48,6.06A6.34,6.34,0,0,0,22.07,294.37Z"/><path class="cls-6" d="M42.33,289.64H31c.06,3.46,2.38,5.84,6.4,5.84a10.51,10.51,0,0,0,4.77-1.05l-.78,2.5a10.18,10.18,0,0,1-4.79,1c-5,0-8-3.34-8-8.41s3.09-8.19,7.7-8.19c4.08,0,6.34,2.56,6.34,6.21A7.81,7.81,0,0,1,42.33,289.64Zm-11.16-1.77h9.12c-.13-2.9-1.42-4.45-4-4.45A5,5,0,0,0,31.17,287.87Z"/></g></g><path class="cls-7" d="M327,67.3c.18-.72-2.88-1.79-3.37-1.32l1.12.44Z"/><path class="cls-7" d="M329.22,68.19a1.87,1.87,0,0,1-.25,0C329,68.3,331.15,68.69,329.22,68.19Z"/><path class="cls-7" d="M329,68.23s0,0,.25,0c1.92.49,1.41-.2.52-.7s-2.2-.65-1.69.58A1.56,1.56,0,0,0,329,68.23Z"/><path class="cls-7" d="M397.27,281.11c2.47.39,1.44-5.17,0,0Z"/><path class="cls-7" d="M369.84,335.68a10.08,10.08,0,0,0-1,1.55c-.15.68,2-1.65,2.14-1.89C371.4,334.69,370.33,335,369.84,335.68Z"/><path class="cls-7" d="M395.45,141.59a1.09,1.09,0,0,0-.38.36A1,1,0,0,0,395.45,141.59Z"/><path class="cls-7" d="M320.26,70.91a5.18,5.18,0,0,0,3.45,1.14c1,.06.44.34.71.6-.16-.14,2.21-1.65,3-.64.77,1.18.13,1.86-.12,2.66-.18.62,1.12,2.32,2.67,2.35.27-.71-1.16-1.71-.36-2.29,2.54,1.26.95,2,2.48,2.87,1.16.66,1.31.21,1.33-.34,2.14,1.23.76,1.95,2.36,3s1.19.75,1.93,1.69c1.22,1.57,2.5,1.43,2.88.89s.82-.57,2.26.54a8.89,8.89,0,0,1-1.15,1.43c-.54.63,1.92,1.2,2.21,1.17a10.37,10.37,0,0,1,1.73,1.26c.58.53,1.17,1.08,1.65,1.47s2.68,1.45,2.4,1.16c.93,1,.18,4.6,3.25,4.56.4-.54,1.15.82,1.61,1.56a7.7,7.7,0,0,0,3.16,3.21c3.07,2.49,1.71,2,3.17,4.63,1.58,3,3.07,1.86,3.65,1.22-.25.28.38,1.26,0,1.72-.21.23,0,.78.29,1.34a32.19,32.19,0,0,0,2.55,3.71c1,1.26,2,2.53,2.78,3.72.7,1,1.54,2.38,2.39,3.71a28.65,28.65,0,0,0,2.52,3.54c1,1.17,1.3-.7,1.62-1-.28.27.6,1.3.66,2a1.08,1.08,0,0,1-.36.86c-.11.34,1.2,1.87,1.49,2.28-.85-1.17,1.05.82,1.26,1.1,1.16,1.61,1.94,3.45,3.14,5s2.42.66,3.49,3.08,1.69,6,3.65,8.22c.84.94,3.51,2,2.18,3.08.48.46.88.62,1.17.55-1.51,2.11,3.07,8.12,4.93,12.38.25.53,1.13,2.62,1.88,4.57s1.47,3.74,1.81,3.59a12.86,12.86,0,0,1,.48,2.86c.16,1,.38,1.93.56,2.91s.42,2,.59,2.93c.56,3.16.4,5.7.67,8.89.07.82.1,3.36.7,3.25.45-.65.73.28.78,1.28a5.91,5.91,0,0,1-.6,3.21c-.17,1.44.18,3-.1,4.54-.08.44-1.2,2.4-.35,2.3.49,0,.94,1,.93,2.17-.27.16-1.24-.33-1.27-.24-.43,1,.51,5.72.54,6.85a28.65,28.65,0,0,1-.66,4.8c-.23,1.6-1.22,5-.29,5.63a5.93,5.93,0,0,1,1.53,1.21c-.54,1.2-1.48,2.37-1.92,3.58-.78,2.14,1.49.94,1.7,1-.15,2.94-2.24,1.86-2.86,3.19-.76,1.65.06,3.8,0,5.17s-1,5.48-.42,5.45l.48,0a3.45,3.45,0,0,0,.33,1.91c.11.19,1.14.39,1.14.44-.12,1.21-2.75,1.6-3.33,3.38-.67,2.17-.83,6.17-1.16,8.49-.2,1.39-.78,3.78-1.19,5.92s-.62,4,0,4.5c-1.24.68-2.08,6.88-2.62,8.66-.16.48-1.76,3.28-1.36,3.33.11,1.5,1.68-1.3,1.95-1,.52.59-.42,2.13-1.48,3.66l-1.55,2.18a4.69,4.69,0,0,0-.85,1.49c0,.08,3,.84,2.39,1.59s-3.73-1.08-4.14,3.05c-.17,2.33-2,5.18-1.92,7.31-.27,1.46-1,5.11-2.13,6.41-.92-.26-3.71,3.54-2.61,3.9-2.35-.74-5.37,7.31-2.82,7.36-.88.42-1.71.48-2.58,1-1.15.69-1.93,2.38-2.81,3.91s-3.94,5.64-2.64,5.4a18.06,18.06,0,0,0-3.65,4.37c-1.92,3-1.26,2.73-.27,3.48-1.2,1.68-2.5.86-3.69,1.86.43.23.2,1.36-.47,2.29-1.37-1.26-3.32,2.24-5.35,4.66-1.22,1.52-1,4.42-.84,5.24s1.12.94,1.17,1.78-1.09,1-1.3.9c-.82-.38-1.06-1.49-1.42-2.32.06.12-.43-1.81-.78-1.18A9.38,9.38,0,0,1,355,345.3c-.07-.23-.27-.23-.61,0-.42.39-1.7,1.73-1.55,2.09s3.32,1.28,3,1.52c-1.56,1.1-5.27,1.63-5.34,4.23,1.8-.86,1.45,1,3.06.44,1.31-.51,2.57-4.79,3.57-4.69.69.06.27,1.33,1.94.47.56.37,2.05-2.27,2.55-3,1.67-2.07.38-3.07.06-4a2.11,2.11,0,0,1,.2-2.36c.29-.46,2-2.72,2.34-2.54s-1.16,2.85-1.28,3.46c-.26,1.22.14,1.46.75,1.83-1-.61,1.42-2.74,1.77-4.26,1.33-1.84,1.08-.88,2.23-1.8a20.87,20.87,0,0,0,2.77-3.48c.88-1.15.89-.33,1.61-.64,1-.46,2.16-2.28,3.09-3.4.51-.59,4.41-5.11,3.4-5-1.52.18-1.35-.87.55-3.49,1.25-1.72,2.41-.81,2.56-2.82s2.59-2.92,2.34-4c-.17-.61-2.56-1.88-2.74-1.6.78-1.24,2.09-.4,2.76-.73,1-.49,2-2.57,2.78-2.31-.44.85.29.45.46.15.56-1.13-.11-.68.05-1.2-.6-.19.55-2.47,1-3.31-.05,0-2.55,1.85-1.19-.41,1.65-2.76,2.45-.25,3.43-1.41a4.65,4.65,0,0,0,1.17-2.75,1.93,1.93,0,0,0-.57-1.69c-.69-.42-.41-.46.34-2.36-.2.3,1.56-2.63,1.07-2.55-.81.15-1.65.92.15-1.84,1.88-2,0,2.34,1,2.59.83-2.63,1.85-1.95,2-4.67.06-1.55,2.2-5.72.7-5.33.56.23,1.41-1.31,1.22-2.4s-.77-1.2-1.14-1.93c-.71-1.38,1.34-2.16,1.76-2.33.6-.22,2.34-.28,2.6-2.43.23-1.25.18-4.82,1.4-4-.83-.5-3.52-.87-1.56-4.36,1-1.85,2.95-.28,2.81-3.65,0-.54-.77-2.74-.37-3.48.5-.92,1.19-.55,1.67-1.36s-.06-1.83.14-3.15c.26-1.83-.91-.56-1.09-1.5-.28-1.42.43-3.52-.11-5-.1-.29-1-2.63-.05-2.65a16.51,16.51,0,0,0,1.57-5.87c.15-1.81-.28-2.62-.34-4.22-.07-1.91,2.24,1.08,2.9-.63.58-1.54-1-2-1.19-2.13s-.57-2.05-.07-2.08c-.23,0-1.91.8-1.83.28.31-2.14,2.91-1.5,3.62-1.55.13-2.15-1.39-.54-1.24-3.34,1.57.82.59-3.33,1.05-4.37s.95.25,1.12-1.57a10.29,10.29,0,0,0-.15-2.47c-.12-2,.4-3.35.45-4.77l.22-6.51c-.44,1-1.43,1.22-1.74-.16-.38-1.71,1-2.7,1.35-3.24.76-.08,1.25-3,.93-4.38-.36-1.62-1.11,1.63-1.44,2.24-.41.84-.89-5.73.08-5.88,2-.3-1.53-4.68-1.6-5.51.41-.06,1.59.32,1.57-1.31,0-.25-.23-1.9-.39-3.25s-.19-2.43.29-1.56c0-1.17-1.2-4.43-.57-4.6.31-.08.95-2.67.45-2.79-.76-.17-1.54,3.75-1.6,5.07,0,.42-.87-1.28-1-1.69a3.24,3.24,0,0,1,.84-2.6c.48-.93,1-1.9,1.41-2.88-.47-.66-.95-1.28-1.41-1.95-1.5-1-.68-1.24-.4-2.91a7.53,7.53,0,0,0-.32-3.13,22.45,22.45,0,0,0-1.29-3.06c-.94-1.93-1.87-3.56-1.38-4.76.11-.3-2.37-1.41-2.12-2.46.05-.21,1.43-1.86.12-2.72-.69-.45-1.11,1.15-2-.56a7,7,0,0,1-.55-2.81,3.13,3.13,0,0,0,.08.37,8.05,8.05,0,0,0,.22.79c.19.55.44,1,.68.67.36-.5-.78-3-1.33-3.94-.25-.44-1.61-2.92-1.83-2.32a3.86,3.86,0,0,0,.32,3.52c0,.52-.7.66-1.16.29-.81-.65-.88-2.25-1-2.92-.34-1.82-.48-3.71.12-4.57a1,1,0,0,1-1.35-.38c-.42-.63,0-1.71-.17-2.34-.34-1.59-2.4-3.53-3.43-4.59a18.37,18.37,0,0,0-3.82-3.27c-.26,0-1.62-.16-1.87-1.29-.16-.76,1.88-1.41,2.09-1.17-.78-.9-2.26-.79-2.64-1.31.39.54.24-1.31,0-1.82-.37-.82-1.79-3-2.27-2.51-.79-.78-3.72-4.33-4.11-3.94-2.85-3.16-1-2.51-2.06-5.18-.82-2.08-2.55-1.61-.64.84-1.37-1.77-4.46-4.18-5.27-3.33.52-.54,1.54-.12,1.9-1,.21-.48,0-1.24.18-1.68-1.08.73-2.43-.94-4.57-3.7-2-2.52-1.37-3.45-2.41-5.61-.26.29-1.45-.85-2.69-2.16s-2.6-2.72-3-3.11c-1.22-1.08-1.92-.26-3.08-1.6-.44-.46-1.68-2.74-3-4.72s-2.85-3.48-3.42-2.57a20.41,20.41,0,0,1-1.68-2.35c-.63-.85-1.26-1.59-1.77-1.54a8.26,8.26,0,0,1-3.37-.24,11.57,11.57,0,0,1,3-.72c-1-.23-1.92-.49-2.91-.67l-2.93-.54c.29,0,2.73-.72,2.43-.89-2.69-1.47-3.43.28-3.8,1.13-1.58-1.06,0-2.51.11-3,.27-1-1.41-.78-2.5-2-.52-.56.27-.86-1.11-1.39-1.14-.46-2-.14-3.3-1-.86-.57-2.19-1.34-3.06-2s-4.13-3.46-5.32-3.52c.16,0-1,1.17-1.06,1.22-1,.93-1.29,1.13-3.65,0-1-.49-1.56.11-2.34.12C318,68.56,319.33,70.16,320.26,70.91Z"/><path class="cls-7" d="M371.61,109a1.29,1.29,0,0,0,.35-.32A.51.51,0,0,0,371.61,109Z"/><path class="cls-7" d="M339.73,366c-1.19.74-3,2-1.51,1.89a5.29,5.29,0,0,0,2.38-1.22c.83-.68,1.65-1.48,2.27-2.07l-2.44.94A4.51,4.51,0,0,0,339.73,366Z"/><path class="cls-7" d="M344.36,355.67c-2.31,1.1-1.49,2.09-3.39,2.84-2.76,1.65-3.77,4.61-6,6.63-.72-.66-1.88.11-3.22,1.59s-.89,2.08-1.51,3.17c1.15-2.1-6.43.53-2.67.56,2.14-.57-1.34,1.73-2.46,1.82-1.52.1-1.51-.57-4,1.13-3.48,1.42.94,1.93,1.3,2,.7.15.05,3.92,2.44,2.75,1.48-.76,1-1.81,3-2.51.94-.33,2.79-.29,3.44-1.42-.39-.4-1.95-.39-2-.91s.19-.77.1-1c.73.39,2.5.6,3.1-.88a4,4,0,0,0-.34-2.71l2.08,2c1.54-1.27-.64-1,.55-2.23,1.46-1.51,2.55-1.81,4.13-3,2-1.6,3.54-3.4,5.69-4.32.54-.24,2.31-.66,2.85-1.21-.46.48-1.73-.34-1.84-.55,1.68-1.63,2.46-1,3-.55-.46-.36.45-1.92,1.23-2.92,1.15-1.49,1.06-1.6-.06-1.83S346.23,354.75,344.36,355.67Z"/><path class="cls-7" d="M321.12,373.41c1.86-1.24-2.19.89,0,0Z"/><path class="cls-7" d="M317.7,376.27c-2.83.59-1,2.33-.64,2.72-.17-.18-3.27-1.49-4.19-.38-.77,1,1.48.84-.38,2.07a30.75,30.75,0,0,1-3.95,2.3c-.53.22-.14-.54-.38-.67-.46-.26-1.26,0-1.94.4s-1.17.92-.94,1.29c-1.46,0-2,2.23-3.94,2.43-1.19.12-.34-1.21.27-1.82a4.32,4.32,0,0,0-2.68,4.06c-1.07-.43-1.94-.74-2.34-1.55-.33.89-1.68,3.93-3.62,4.82a2.35,2.35,0,0,0-1.33-1.1,3.85,3.85,0,0,0-3.06.58c-1.6.93,4.43,0,2.09,1.46-3,1.9-2-1.32-4-.41-.9.41-1,1.72-2.59,1.53.07,0-.84-.44-.8-.48-.47.49-.59,1-.41,1.32-.55-1-1.66-1-3.93-.95-1.1,0-1.19.59-1.07,1-.59-.44-2.16-.4-3.62,0s-1.85,1.18-3,1.8a17.31,17.31,0,0,1-3.63,1.62c-1,.29-.92-.88-1-1.12a12,12,0,0,0-2.9,1.79.84.84,0,0,0-.08.42c-.11.82.39,1.31,1,1.77a5.16,5.16,0,0,1,1.78,1.57c.8,1.47,3.28-.1,6.05-.75.51-.11,1.17-.23,1.9-.35s1.52-.33,2.28-.52a8.84,8.84,0,0,0,3.59-1.48c1.43-1.44-.37-1.41-2.09-1.53.91-.3,3-3.4,2.83-3.58.36.44-.24,1.23.08,1.74.17.26,1.44.36,1.44.36.22.4-1.53,2.54.49,1.85,1.05-.38,3.76-1.06,6.11-1.83a16.19,16.19,0,0,0,3-1.24c.71-.45,1.05-.92.79-1.35.11.19,3.93-1.52,4.65-1.89,1.5-.77,2.53-.15,4.24-.83a21,21,0,0,0,5.6-3.09,7.23,7.23,0,0,1,1.64-1.16,2.21,2.21,0,0,1,1-.27,4,4,0,0,0,2.52-.69c-.9-.69-2.71.32-2.09-1.35.21-.56,1.61-3,3.36-3.19,2.59-.27.36,2.46.73,3.35.62-.38,2.28-1.19,3.73-2.13s2.74-1.92,2.76-2.39c0-.82-2.41-1.49-1.24-2.71C321.71,375.81,320,375.79,317.7,376.27Z"/><path class="cls-7" d="M261.84,403.4c-1.78.76-.28,1.05,1.48.64C265.58,403.51,263.54,403,261.84,403.4Z"/><path class="cls-7" d="M253.85,401.26l-1.11.2C250.6,402.41,254.36,402.8,253.85,401.26Z"/><path class="cls-7" d="M252.36,404c-1.17-1-3-2.07-3.39-3.26a17.23,17.23,0,0,0-2.87,1.06,4.53,4.53,0,0,0-2,1.28c-.25.5.7.39,1.69.19s2-.59,1.93-.43c-.35.67-3.45,1.39-4.61.91s-.16-1.55-2.21-1.73c-7-.6-.23,1.89-1.79,2.26-1.79.47-3.62-1.91-5.51-2-3.2-.13-3.89-.21-3.55,1.16-2.47.22-2.57-.77-4.81-1.06-1.52-.21-4.76-.18-4.32.83,0-.44-.59-.64-1.48-.71a30,30,0,0,0-3.4-.06c-2.6,0-5.62.34-7.13-.13a1.42,1.42,0,0,1-.46-.17,7.46,7.46,0,0,0,2.53,3.47c.08.85,2.1.77,2.36,1.14.14.21.88,1.85,2.14,1.19.73-.38-.54-.82,1-.79.9,0,1.8.05,2.69,0,1.69-.13,1.23-1.32,2.4-1.8,3.15-1.3,0,2.42,0,2.36.23.24,3-1.33,4.27-.7.69.34,1.06.79,1.63,1.12a4,4,0,0,0,2.84.32c.71-.1,4.86-1.16,3.22-1.55-.37-.1-3.31.64-3.12.38.6-.82,5.74-1.17,7.32-1,.81.06.32.4-.11.59-1.25.52-.86.48-.68,1.25a11.34,11.34,0,0,0,3-2.27c.06.32.36,2.4,1.7,1.85,1.15-.47.92-1.32,2.32-1.71.52-.14,1.26.35,1.73.4,1.38.15,1.62-.52,1.86-.94s.49-.58,1.91.49a5.83,5.83,0,0,0,5.85-.58c2.14-1.47,3.44.83,4.58-.43a6.34,6.34,0,0,0,1.61-4.63c-.24-1.38-2.1-.71-4.11.46S253.09,403.43,252.36,404Z"/><path class="cls-7" d="M208.46,402.11a3.44,3.44,0,0,0,.46.17C209.12,402.26,208.43,401.74,208.46,402.11Z"/><path class="cls-7" d="M147.39,391.06c-1.89-.74-3.59-.14-1.42,1C147.64,392.7,149.69,391.94,147.39,391.06Z"/><path class="cls-7" d="M128.52,383.57c2.88,1.82,4.53,1.55.84-.12Q128.52,383.23,128.52,383.57Z"/><path class="cls-7" d="M208.78,405.94c-.1-.29.64-.82.16-1-1.73-.84-2.38.71-2.31-1,0-.6-2.79-2.19-4-1.59-.86.4-1.28,1.14-1.91,1.64,0-.6.39-1.92-1.56-2.3-1.35-.26-5.23.06-5.22-1.13,0,.71-.09,1.55-2.27,1.35,0-.33.55-2.08-1.05-2.37-.38-.06-2.71.88-3.43.94-4.25.4-.89-1.48-2.44-1.92a17.24,17.24,0,0,0-2.11-.12c-.9,0-1.82,0-2.2-.09-1.16-.09-1.08.8-1.06,1.21-2.13-.49-.35-1.62-.48-1.92s-2.81-.89-3.34-1.42c-.88-.9-.53-.67-2.49-.72a7.76,7.76,0,0,1-3.7-1.17c-.45-.28-1.76-2-2.47-1.54-.33.2,0,1.46-.89,1.27-1.06-.22-1.61-1.07-1.54-1.46.29-1.53-3.07-.54-2.57-.11-.75-.39-.81-1.49-2.69-2.14-2.19-.76-.23.58-.88.76s-3.5-2.62-3.69-2.77c-.84-.59-1.88-.08-3.08-.34a24.77,24.77,0,0,0-6.52-1c-.86,0-2.41.12-3.39-.82s-1.35-2.63-2.64-3.18c-2.08-.89-1.5-1.38-2.41-2.29-2.29-2.29-5.91-.64-7.53-3.71-.06,1.11-1.25,1.46-3.55-.1-1.91-1.29-2.15-3.19-3.42-3.81-1.65-.82,1.62,3.88,1.65,4.16.1,1.63-2.55.83-3.82,1.43-.53.25.65,1,2.05,1.79s3,1.47,3.41,1.64c3,1.37-1-2.36.25-2.32a1.32,1.32,0,0,0-1.33.65,1.33,1.33,0,0,1,1.39-1.19,2,2,0,0,1,2,1.87c.19,1,1.85,3,2.89,1.87.36-.4.89-1.88,3.08-.53,1.78,1.09-.52,2.13-.53,2.68,0,.81,3.35,2,4.33,2.41,3.88,1.65,6.57,3.53,6.95,1.32,1.53,1.45,2.11.46,4.09,1.23.43.16.31,1.27,1.48,1.72s1.7-2.24,4.74.14c.59.45,2.69,2.42,1.64,2.5s-2-1.28-2.62-1.67c-1.07-.66-1.95-.56-2.06-.08-.17.71-.7.3-2.27-.34-.23.92,4,3,4.22,2.07,2,.71,2.71,1.79,5.08,2.45,1.9.53,4.38.79,3.55-.5-.38-.61-1.57-1.59-1.16-1.81s4.6-.3,4.37.12c-.36.69,0,1.5.57,2.49a4.3,4.3,0,0,0,3,2.26c1.84.61,2.29,1.65,3.81,2.2-1.06-.38-.34-2,.47-2.8s1.73-.84,1.16,2c-.2,1,1.76,1.85,3.71,1.69.93-.07,3-1.76,3.17-1.72.7.15-1.12,2.83,1,3.28,0-.76-.82-3.43,1.92-3.05,2.92.41.63,2.41,2,3.13a15.29,15.29,0,0,0,2.95.66c1.4.32.66.68,1.58,1a12.84,12.84,0,0,0,4-.17c1.55-.23,2.91-.5,2.91-.5.26.34-1.62.77-.1,1.32a5.11,5.11,0,0,0,2.41.09c.8-.13,3.33-1.68,4.32-1.47,1.78.38,1.34,1.92,2.53,2.49,1.67.78,3.11,0,3.06-.63S209,406.63,208.78,405.94Z"/><path class="cls-7" d="M121.47,376.45c.24-.73-.93-2.61-2.64-3a1,1,0,0,0-.46-.09l-.78,2.15c.15-.38.63-.52,1.33-.47C117.86,375,120.81,378.32,121.47,376.45Z"/><path class="cls-7" d="M109.1,372.15c-.67-.08-2.21.34-.53,1.34C109.91,374.24,110.77,373.08,109.1,372.15Z"/><path class="cls-7" d="M117.28,369.72c0-.07-1.91-.16-2.27-.33-1.45-.68-2.07-1.64-3.61-2.42a19.26,19.26,0,0,0-3.85-1.43c-.55-.13-.94.51-1,.49-.23-.14-.74-2-1.22-2-1.06-.11-1.61,1.09-2.07,1.47l-1.35,3.08c1.51.92,3.18-.81,4,0s-2.71,1.39-.26,2.82c.07-2.2,2.26.49,3.48.19s-.58-3.16,3.06-.85c2.72,1.66-.38,1.18-1.29,1.22-1.21.06,1.25,3,1.67,3.82,1.43.78,3.4-1.31,3.75-1.63.71-.65,1.29-2.71,4.11-1.25C117.91,371.49,117.64,371.14,117.28,369.72Z"/><path class="cls-7" d="M101.57,360.52a17,17,0,0,0-5.13-2.73c-1.31-.28-1.52.81-2.42.66-.74-.12-1.45-4-2-4.53A17,17,0,0,0,89,351.78a36.88,36.88,0,0,1-4.74-3.53c-2-1.81-3-3.52-5.7-4.23-.3-.08-3.21,2.24-4.31.08-.13-.26,1.33-.28,1.42-.59a3.07,3.07,0,0,0-.57-2,26.42,26.42,0,0,0-2.86-3.9c-1.15-1.29-2.36-2.59-3.51-3.75-.93-.89-2.87-3.34-3.9-3.71-1.5-.58,1.08,1.9,1.21,2,.42.32-1.63.25-1.76.33-.64.42-1.69.85-2.06,1.53s1.6,1.91,1.51,2.45c-.16.91-.23,1.2,1.45,2.66,2.28,2,3.72,3,4.62,2,.3-.33.71-1.31-.72-2.19-1.14-.41.3-1,.42-1,.28,0,2.63.34,3.06,1.29.14.31-1.26.17-1.41.28-.51.38-.46,1.36-.12,2.38l.56.84c.31.48.71,1.1,1,1.67.65,1.13,1,2-.24,1.14-.42-.3-1.14-1.65-1.92-1.91-.36-.12.86,1.4,2.1,2.59s2.53,2,2.2.51c.38-.58,1,.39,2,1,1.6.86.55.11,1-.22-.19.12,1.75,3.64,2,4.08,1.15,1.81,3.31,3.23,5.25,4.65,3.35,3.67,1.43-1.24,2.29-1.69.23-.13,1.19.67,1.48.92.55.5,0,1-.06,1.12-.37.67-.07,2.19,2,3,1.94.72,3.09.13,5,.68,2.07,1.37,2.14.23,4,1.24.72.37-2.66.76-2.87.88a1.38,1.38,0,0,0-.22,2.38c1.76,1.82,3.43,1.49,3.14.41-.16-.58-1-1.67-.91-2.13s1.13.35,1.41.73C103.71,365.72,104.17,362.42,101.57,360.52Z"/><path class="cls-7" d="M57.36,321.55c1.37.22-2.39-.77,0,0Z"/><path class="cls-7" d="M59.1,324.89c-.8-1.2,1-.29.76-1.1a4.2,4.2,0,0,0-2.5-2.24c-.84-.26-5.23-.31-2.38,2.37-.47.47-1.12.38-2.09-1.16-.36.35.64,1.64,1.8,2.9a37.55,37.55,0,0,0,2.87,2.73c2.57,2.14,5,3.21,6,1.91C65.32,328,61.05,327.87,59.1,324.89Z"/><path class="cls-7" d="M41.92,289.31c.39-.19.37-.3.07-1.25L41.65,287A3.33,3.33,0,0,0,41.92,289.31Z"/><path class="cls-7" d="M33.63,255.94l-.2-.17a5.39,5.39,0,0,1-.51-.68c-.59-.78-1.08-1.28-.9,1a1.15,1.15,0,0,0,2.14.56C34.2,256.48,33.86,256.14,33.63,255.94Z"/><path class="cls-7" d="M33.63,255.94c.27.18-.79-1-.71-.85l.51.68Z"/><path class="cls-7" d="M30.57,255.93c-.12-1.47.29-2.6.2-4.27C29.6,249.34,30.46,254.91,30.57,255.93Z"/><path class="cls-7" d="M52.55,321.5c-1.44-2.05-.17-3.28-1.24-4.55-.89-1.05-1.84-1.52-2.74-2.47l-.28-.38-.61-.84c-.41-.58-.73-1.12-.4-.88-.83-.58-1.2-.46-1.63-.12a4.68,4.68,0,0,0,1.46-2.58c-1.18-.89-4-2.11-4.61-4.69-.51-1.85.5-3.15,1.76-1.61.1-.05.94.8.4-.27-.06-.64-.86-1.45-1.15-1.79-.65-.69-1.94-2-2.37-1.54-.58.61-1.93-.1-2.64-2.57-.48-1.59,1.23-1.72,1.18-3.09,0-.68-1.2-2.53-1.83-3.26-.18.88-.28,1.9-.81,1.77-1.31-.33-1.91-2.78-.89-3a1.59,1.59,0,0,1-1.22-1.52,2,2,0,0,1,1-1.92,16,16,0,0,1,4-2c-.95.43-2.95-2.73-3.58-1.73-.31.49-.37,2.21-1,2s-.35-2.61-.26-2.82c.41-1.43,2.24-2.22,1.3-4.9-.25-.73-.67.11-1,1.2s-.59,2.41-.64,2.6c-.81,3.94-1.38-1.54-1.73-3.35a24.82,24.82,0,0,0-.86-2.62,6.86,6.86,0,0,1-.4-2.68c.1-.78,1.12-.92,1.42-1.19s2.28-1.84,2.09-3.45c-.12-1.07-2.52,1.22-2.56.57,0-.28.5-.95.06-1.66-.27-.44-1,.75-1.43.54-1.66-.83-.22-3.38.51-3.55-.72.18-2.13-.75-1-2.24S34,257.62,35.21,258a2.37,2.37,0,0,0-.12-.36l-.3-.82-.46-1.25a12.41,12.41,0,0,0-2.08-3c-1.64,2.47.46-4.46.5-4.28,0-.16-2,2.78-1.38-.54.21-1.11-.78-2.77-.8-4s1-2.14,1-3.32c0,1.51-3.28,1.16-2.13-2.25.68-2,2.75-2,3.77-3-.47-.7-1-1.39-1.42-2.12-.27-.64-1-2.14-1.46-1.7a24.46,24.46,0,0,1-.12,2.7c-.35,1.12-.44-.33-.41-2.06,0-.86.05-1.79.08-2.52s.07-1.23.07-1.24c0-1.06-.08-5.19.8-4.51,2.83,2.2-.72-6.76.22-9.39.48-1.41,2.23-.87,2.79-.92,1.08-.09,2.79-.73,3.26,2,.41,2.37-.07,2.28-1.05,2.36-.7.06-1.54,4.14-1.75,3.63.6,1.48,1.69,1.56,2.52,2-.45,0-4.3.94-3.23,2.23.9,1.08,2.2.59,2.7,2.68.37,1.6.88,6.82-.49,6.56,1.18-.38.44,2.67-.12,3.43-.19.32-1.76,3.12-.79,3.45.78.26,1.79.65,1.27,3.3-.56,3,.18,1.65.29,4.48-.56,1.63-.47,4.42-.12,7.26s.9,5.72,1.1,7.61c.1,1.25.39,3.32,0,4.26-.17.45-1.27,0-1.32-.31.14,1,1.46,2.23,1.84,3.12a11.91,11.91,0,0,1,.41,5.06c-1.12,2.37.31,1.46.9,2.38a8.57,8.57,0,0,1,.76,2.54c.18,1-.69.07-.76.17s1.78,2.63,1.91,3.48a12.47,12.47,0,0,1,.07,3.55c-.09,1.15-.2,2.25-.19,3.28.08,3.3,1.61.7,2.13.52,1-.38.83,3.62,1.78,4-1.48.74,2.76,5.83,2.41,6.24-.56.66-1.7,0-1.2,2.4.23,1.13.54,2.22.81,3.35.32-1,.8-1.82,1.07-2.86,0-.21.15-1.67.44-1.28.6.84.6,1.22.27,1.45.26.56,1.67,2.57,1.49,3-.33.75-.42.86.54,2.44.58.6,1.68,1.48,1.18,1.9,2.17,2.83.51.87,2,1-.21,0,.64,1.56,1.26,2.85s.86,2.37-.79,1.41c-.59.53-.14,2.05-1.41,1.3l-.71.66C52.84,321.07,52.87,321.2,52.55,321.5ZM40.16,291.44c-.26-1.71-1.33-2-1.79-1.74-.24.12-.37.51-.47,1C38.74,291.15,40.11,293.12,40.16,291.44Z"/><path class="cls-7" d="M36.59,195c.46.27,1.09,0,1.4-1.14C38.15,192.17,35.79,194.51,36.59,195Z"/><path class="cls-7" d="M37.49,203.28c-.24-1.08-.82-1-1-2.57-.41-3,.46-1.05,1-1.23.37-.12,2.1-2.37,1.29-3.21-.61-.63-1.73-.13-2.45-.1-2,4-.69-2.66-.64-2.7a2.43,2.43,0,0,1-1.55.51l-.28-.54c-.39-.72-1-1.71-1.38-.8-.71,1.74,0,2.55.59,2.53.17,0,1.94.54,1.12,1.89-.63,1.05-1.42-.13-2.07,1.07s-.38,2.76-.28,3.88c.18,2.16-.18,4.63-.21,6.9-.05,3.32,2.21,2.7,3.18,2.12C36.1,210.26,38.28,206.79,37.49,203.28Z"/><path class="cls-7" d="M33.87,193.44l.28.54C34.58,194,33.26,192.18,33.87,193.44Z"/><path class="cls-7" d="M40.57,158.75a1,1,0,1,0-2,.49C38.76,160.32,40.18,160.48,40.57,158.75Z"/><path class="cls-7" d="M43.16,152.15c.12-2.9-2.6-.64-2.82,1.41C40.13,155.45,43.53,154.36,43.16,152.15Z"/><path class="cls-7" d="M43.16,152.15c.19,1.18.09-2.29,0,0Z"/><path class="cls-7" d="M107.37,60.21c1.26-2.15-2.16-1-2.27.55C105,61.68,106.38,61.89,107.37,60.21Z"/><path class="cls-7" d="M154.74,43.2l1-.39C157.73,41.51,154,41.77,154.74,43.2Z"/><path class="cls-7" d="M39.46,191.59c-.13-1.1-.69-5.31.44-4.27.82.74,1.05-3.31,1.23-4.34.24-1.74.52-3.57.75-5.38a45.71,45.71,0,0,0,.53-5.3,15.36,15.36,0,0,1,1-4.73,37.74,37.74,0,0,0,1.4-4.58c.59-2.81-1.77-3.2.28-4.92,1,.09,1.68-6,1.9-5.86.38.26,1-1.57,1.65-3.67s1.25-4.53,1.58-5.43c1.07-3.14,1.9-4.32,3.09-7.44-.32.5-1.28,1.81-1.42,1.14s1.13-3.09,1.42-3.87c.51-1.34-.43-.24.2-1.83.44-1.06,1.33-2,1.8-1.83l-.87,2.07c1.73-1.57,2.29-2.87,3-5.46s1.53-1.84,2.41-3.73c1.12-2.49.73-3.72,1.35-5.86.54-1.91,2.17-2.08,3.15-3a15.73,15.73,0,0,0,2.86-4.38,22.72,22.72,0,0,1,2.9-4.86c1.41-1.65,1.48-1.59.48-1.76-.32-.06.32-.9,1.15-1.79s1.82-1.82,2.09-2.17a26.22,26.22,0,0,1,2-2.58c.4-.37.75-.38,1.72-.38.65,0,1.66-3,1.7-3.27.06-1.5-1.23-.67.75-3,2-1.55,1-1.63-.06-1.4-.39-.27-3.08-1.16-1.85-2.61s2.48.68,2.68,1,1.13,1.49.37,2.4c.39.89,2.33,1,2.29-1.15,1.44-.88,1.57-.31,3-1.93.44-1.3,2.23-3,3.45-4.23,1.08-1,2-1.7,3-2.44A19,19,0,0,0,95.67,76C96.33,75.22,97,74.3,97,73.8c.74.4,2.06.36,3.68-.71.33-.22-1.53-1.86-1.77-2.08.81.75,2,1.33,4.46-.56,1.6-1.16,5-3.47,4.88-4.46.78.15,2.38-.61,3.64-1.38,2.05-1.2,1.13-1,1.11-1.74a2.35,2.35,0,0,1,.43-.14l1-.28a11.39,11.39,0,0,0,1.76-.58c1-.64,1.54-2.51,1.85-3.09.19-.36.82-1.7-.49-.87s-1.89.64-2.6,1.11a14.89,14.89,0,0,1,5.31-2.48c1.65-.27.27,1.36,1.34,1.26,1.37-.13,1.77-2.33,2-2.7.54-.79,2.85-.76,3.38-.81a12.8,12.8,0,0,0,4.1-1.37c1.26-.64,2.18-1.45,2.15-2.25A9.72,9.72,0,0,1,136,49.5c1.33-.39,2.52-.58,2,0,.49-.58.15-1.32,1.42-1.93,1.44-.71,2.64-.49,3.91-.74,1.92-.36-.14-1.45-.32-1.74.23.38,2.28-.58,2.66.08.11.18.73,1.34,1.81.83a1.49,1.49,0,0,0,.76-.84l2.09-.85a1.61,1.61,0,0,0,.88-.48,6.75,6.75,0,0,0,2.07-3.27c.16-.63-1.09-1,.57-1.65A8.43,8.43,0,0,0,155,41.07c.44.48,1.26-.12,2.11-.07s.22,1.11,1.46.83c.46-.1,2.45-.63,2.49-.94.06-.47-2.4-.66-1.8-1.26a3.51,3.51,0,0,1,2.87-.38c2.16.62.43,1.31,4.4.11,5.18-1.43,2.73-2.55.87-3.71a3.91,3.91,0,0,1-2.25-2.35c-.79-1.79-2.53,1.51-2.9,1.63s-.78-1.35-.84-1.5c-1.37.43-.5,1.12-1.86,1.83-2.09,1.13-4.62,1.66-6.79,2.8-1,.51-3.46,2-3.89,1.24-.15-.28-.88-1.2.39-1.69-2.61,1-6,2.12-8.26,3.56-2,1.21-.3,2.3.09,2.95-.42-.68-2.23.62-2.85,1s-1.06-.76-1.06-.76c-.28-.47-3.21-1.66-4.42.32-.71,1.19,1.61,1,2.34,1.44.29.17-.29.73-1,1.24s-1.53,1-1.79.83.57-1.31-.47-.9-1.78,1.47-3,1.47c-.84,0-1.2-.13-1.48-.51.46.61,3.89,3.44-.92,4.78-1.18.33-2.23-4.19-3-3.64-1.81,1.28-.43,2.83-1.06,3.69.32-.43-3-.43-3.62-.25-1.49.45-1,.66-.18.71a4.78,4.78,0,0,0,1.82-.07c.41.24-2.19,1.63-2,1.8.42.51-.36.72-1.67,1.56-.72-.06-3-1-.26-2.09-.21-.76-3.67-.28-4.32,1.29-.44,1,1.87,1.83.44,3.21-.12.11-.69-2.17-2.09-1.33-2.68,1.61-.92,2.89-.42,3.39-1.59,1.17-.89-.38-2.53.7A29,29,0,0,1,104,64a15,15,0,0,1-4.06,1.49c-.81.08-1-.42-2.28.76-.82.74-1.52,1.82-2.65,2.29-.2-.19-.48-.12-.8.25a20.35,20.35,0,0,0-2.54,3.28c-.63.78-2.16,3.37-3.23,3.8-.18.07-.38-.13-.53-.35a2.57,2.57,0,0,1-.26-.46c-.17.37-.38,2.83,0,2.68-1.35.6-1.89,2.64-2.54,2.93-1.26.57-1.88-.5-2.4-.88.39.29.42.55.12,1.33.56-1.6-4.34,2.74-4.82,3.19-1.56,1.56-4.49,3.83-2.28,3.3,1.35.85-.74,1.63-.56,3.7,0,.29-.15,1.84-1,2.26s-.12-1-.45-1-.84.77-1.28,1.52-.85,1.52-1.32,1.43c-.7-.14-.63-1.1-1.67,0-.8.9-.91-.34-2.41,1.71-.59,1.41-.79,2.08-2,2.9.56.28,2.15,2.08,3.34.94,1.67-1.61,3.19-.29,1,1.22-3,1,0,1.65-1.75,3.91-.81,1.09-1.38.91-1.74.6-.58-.52,1.1-2.16.85-2.56-.06-.13-4,.75-3.63.22-.4.65,1,2.16-.25,2.76a6.18,6.18,0,0,0-1.88,1.18c.59.25-1.51,4-2,4.09-.68.06-1.12-1.1-2.16.44.72.28-.77,1.86-.48,2.25a.91.91,0,0,0,1.22.13,6.21,6.21,0,0,1,.87-1c.47.53.27,4.21.27,5.41a2.13,2.13,0,0,0-2.3.41c-1,2.19-1.54,1.17-2.07,2.08-.89,1.53,2,3.08.29,6.53,1-2.62-1.77-2.74-2.74-2.63-1.25.15-1.16,1.86-.44,2-.7-.19-3.32-.53-2.47,1.73,1.8,2.6-.89,1-1.18,3.58-.37,3.38,1.31,1.5,2.23-1,.79-2.09,1.71,1.11,1.93,1.63A23.83,23.83,0,0,1,49,136.5c-.83.44-1.33-.1-2.1.25-.56.25-1.56,1.83-1.86,1.77l1.79.35s-1.85.94-2,1.12a3.45,3.45,0,0,0-.54,3.07,10.79,10.79,0,0,0-1.4,2.57c-.3.66-.6,1.31-.83,1.79a5.8,5.8,0,0,1-.38.77c.65,1.73,2.91-.68,3.81.12.3.26-.32,2-.5,2.59s-.67.12-1,.55c-1.33,1.83.26,2.81.32,3.46a14.16,14.16,0,0,1-.34,1.92,5.7,5.7,0,0,1-.44,1.64c-.13,0-.19-.82-.3-1.65s-.22-1.67-.58-1.76-2.78,1.37-2.78,1.27a6.66,6.66,0,0,0,2.64,2.61c.24,1.2-.77,3.34-1.38,3.29A2.82,2.82,0,0,0,38,165.07a10.89,10.89,0,0,1-.46,3.5c-.31.76-.59-.24-.71,0-.63,1.44.88,4.38,1,5.35.08.61-1.47,3.22-1.75,4-.13,1-1.55,2.69-.39,3.28.8.41,1.92-.38,1.53,2.42-1,0-3.51-1.53-3.15,2.31-.32,2.82,3.26.33,3.67,2.18.09.41-3.29,1.85-3.27,1.08,0,1.74,2.78,1.73,3.3,2.66S40,195.54,39.46,191.59Z"/><path class="cls-7" d="M223.07,28.28c.64-.24,1.84-1.32-.14-1.43C221.38,26.8,221.15,28.22,223.07,28.28Z"/><path class="cls-7" d="M241.57,36.06c-1.12.32,2.24-.16,0,0Z"/><path class="cls-7" d="M171.09,32.68c-1.35.36-.85,2.31,0,2.18,0,0,.28-.11.7-.23s1-.26,1.46-.35c1-.2,1.72-.21.78.5-.64.48-1.74.27-2.09.86-.64,1.07,1.12,1.83,3.1,1.84a27.72,27.72,0,0,0,8.2-1.63c1.07-.42,1-2.48,3.61-1.93.94.2.23,1.06,1.08,1.34a12.86,12.86,0,0,0,4-.31c2.08-.33,1.76-.92,3.39-1.33a9.87,9.87,0,0,1,3.94,0c.78.06,3.23.25,5.43.22s4.2,0,4.09-.76c0-.21-.07-1.91,1.21-1.32s.48,1.17,1.26,1.73c-.44-.31,2.07-1.39,3.43,0,.62.64,1.2-.49,2.16-.46,2,.07,3,1,4.78,1.28,1.06.15,1-.89,2.21-.55A22.77,22.77,0,0,0,229,35a8.47,8.47,0,0,0,2.63-.49c1.83.17,3.47.79,5.49,1a12.21,12.21,0,0,1,2.41.52,3.9,3.9,0,0,0,2.06.07,3.34,3.34,0,0,0,1.69-.36,10.46,10.46,0,0,1-2.41-.45,12.75,12.75,0,0,1-2.08-1.71c-1-.93-2.73-2.15-2.93-3.12-.13-.6-.64-1.24-1.88-1.71s-1.61.86-1.92,1c-1.43.74-2.3-.88-3.57-.82-.4,0-1.07.51-.72.67-1-.42-1.64-1.27-3.19-1.44,0,0-3.13,2.6-4.11,2.84-3.7.91-.89-1.13-2-1.17-.36,0-1.31.83-2.36.93a1.7,1.7,0,0,1-1.62-.65c-.64-.63-1.24-1.27-1.87-1.91-.45.21-3.94,2-4.25,1.85-2.25-.8,3.1-2.26,2.28-2.68-.53-.26-2.34.14-4,.4s-3.3.47-3.47-.36l.42,2.07c-2.35.18-.53-1.65-3.8-.87-1.61.42-2.12.59-1.94,1.35a30,30,0,0,1-4.15.45c3.73-.4,3.13-2.42-.42-1.07-1,.41-1.67-.42-2.5-.39a10.53,10.53,0,0,0-2.63.43,19.24,19.24,0,0,1-2.45.65c-.39.06-1.66-.14-2.88-.21s-2.38.08-2.54.71c-.11.42,1.05,1.3.68,1.57s-2.86.08-3,.63c0,.13,1,.23.58.53s-5-.74-5.18-1.09c1.61-.4,4.93.08,4.37-1.49-.1-.08-4.69.58-5.28.72-1.36.3-2.73.93-3,.26a5.39,5.39,0,0,0-2,.78C165.63,33.62,169.87,33.09,171.09,32.68Z"/><path class="cls-7" d="M314.73,56.13c-.17.46,1,.56,0,0Z"/><path class="cls-7" d="M243.31,30.53c1.29.27,6.22,2.34,2.85,1.85-2.09-1.18-3.94,1.8-4.48.72-.32-.63-.38-1.42-2.37-1.71-.51-.1-1.72-.15-1.71.18.05,1.42,5.22,2.29,6.66,3.31,1,.71-.18,1.9,1.87,2.29,1.45.28,3.06.47,4.49.7s3.71,0,5.08.74a2.56,2.56,0,0,0,2.56.37,7.83,7.83,0,0,1,1.2.21c.74.14,1.44.41,1,.47.25,0,1.52-.63,1.57-.6.54.4-1.48.95-.31,1.52a12.78,12.78,0,0,0,3.19.27c1.38,0,2.82-.85,0-1.23.12-1,1.73.51,2.53.22.44-.16-.59-1.94-.33-1.87,2.26.58.72,2.26,1.44,3A19,19,0,0,0,271.39,43c.31.21,2.07,1,3.73,1.76l2.23,1a10,10,0,0,1,.93.45c.16,0-.51-1.69-.35-1.92,2.36.74,1.17,1.67,2.69,2.32a9.23,9.23,0,0,0,4.61.78c1.41,0,2,.41,1.07.81-.14.62,2.28,1.35,3.07,1.64l2.17.86a4.4,4.4,0,0,0,2,.52c.29-.1,1.14-.91,1.75-.06,1.63,2.31,2.56,2.6,2.83.76,1.85.79.14,1.27.64,1.82,1.07.46,2.74,2,3.62,2.35s-.28-2.87,2.76-.31c1.59,1.34,0,1.45,2.69,2.74,1.7.82,1.47-.38,3.54.12.31,0,2.46-.27,1.88-.73s-4.58-2.88-3.57-3.46c.73-.43,4.76,2.44,5,1.64,1.11.61,1.48-.37,1.65-1a1.26,1.26,0,0,1-1.3.48c.71.06.25-.58-.52-1.31a12.18,12.18,0,0,0-2.46-1.66,19.55,19.55,0,0,0-6.1-1.42,8.63,8.63,0,0,0-1.83.3,2.45,2.45,0,0,1-2.07-1c-.87-1.52-2.87-1.88-3.29-1.15A5.93,5.93,0,0,0,296.26,47c1.33.64,4.71,1.16,2.07-.13-1.4-.69-2.66-1.68-4.1-2.29s-2.32,2.55-4.44.78c-1.93-1.6,2.35-2.79-3.44-4.14-1.86-.43-1,.84-1.14,1.47s-1.6.17-1.39,1.07c-1.58-.58-.77-1.91-.69-2.29.73-.31.85-.94.5-1.67-.26-.57-1.65-.47-1.78-.23-.36.69,1.66,2.64-1.51,2.09a5.19,5.19,0,0,1-2.81-1.46c1.34.42,3.69-.37,2.17-1-.23-.1-1.68,0-1.86-.53s-.62-.55-2.2-1-.42-.78-2.09-1.35c-.93-.38-11.25-2.16-10.18-1.43-.43-.31.18-.57-.26-.91a5.07,5.07,0,0,0-1.52-.61c-.63-.15-1.28-.25-1.65-.32-2-.41-3.71-1.32-5.65-1.61-1.14-.17-2,1.17-2.84.45-.49-.5-2.82-1.84-3-1-.6-1-6.18-1.21-7.63-1.81a3,3,0,0,0-1.61-.23,2.14,2.14,0,0,0-1.11.57,1,1,0,0,0,.2,1.64c-.69-.33.38-.59,1.7-.59A21.7,21.7,0,0,1,243.31,30.53Z"/><path class="cls-7" d="M316.49,54.65c0,.09-.06.26-.11.45A.69.69,0,0,0,316.49,54.65Z"/><path class="cls-7" d="M335.25,69.35l1,.64a3.87,3.87,0,0,0-1.71-1.73C334.32,68.66,334.39,68.76,335.25,69.35Z"/><path class="cls-7" d="M344.05,74.82l.93.69C346,73.69,341.66,73,344.05,74.82Z"/><path class="cls-7" d="M314,62.21a28.61,28.61,0,0,0,4.75,2.7c.33.14,1.13.35,1.82.61s1.22.61,1.08,1c.66-.09,3.68,1.52,3.44,1.68a3.61,3.61,0,0,1-1.84-.67c1.6,1.53,4.95,3.43,6.89,4.69,2.26,1.6,5.6,4.32,7,3.77.25-.09.79,1.18.54,1.32a5,5,0,0,1,2,.88,14.47,14.47,0,0,1,1.74,1.6,20.79,20.79,0,0,0,3.1,3.08c1.34.89,3.48-.91,4.73-1.38-.06,0,0-.07.41-.11a1.55,1.55,0,0,0,1.9-1c-1-.75-1.65-.11-2.63-.57-2-.91-1-1.62-1.25-2.31s-3.38-1.26-3.83-1.44c-1.4-.56-1.83-1.42-2.85-1.94.18.09-2.29,1.36-2.77-.06-.18-.54.6-2.32,1.88-1.46,2.38-.37,2.25-1.36-1.73-3.61l-3.78-2.35c-1.68-1-3.37-1.83-3.54-1.7-.35.76,3,2.35,4.11,3.31,2.21,1.81,2,2.21.34,1.91-1-.18,2.53,3.11,1.33,2.89-.49-.09-2-2.07-2.21-2.26a19.92,19.92,0,0,0-2.6-1.68c-.83-.63.72-.77-.83-1.83-1-.69-1.25-.4-2.07-1.21s-2.15-3.93-2.8-4.23c-.23-.11-.71.75-.89.77-.9.08-1.77-.55-2.71-.42-.65.09-2,.77-2.72.61-1-.22-1.34-1.67-1.46-1.68s-.2,1.55-.39,1.76-1.15.21-1.3.59c.3-.78.92-1.52.07-2.79,0,0-2.5-2.51-.42-1.64.9.37,1.16,1.09,2.46,1.44a8.2,8.2,0,0,0,2.84.27c.29,0,2.74-1.17,1.62-1.78-.75-.41-2.44.81-2.72,1-.38-.63-1.65-3.35-2.65-3.9s-1.31,1.43-1.4,1.68c.8.44-1.45.52-1.67.68C314.28,58.82,311.4,60.5,314,62.21Z"/><path class="cls-7" d="M349.59,81.33a1.48,1.48,0,0,0-.41.11C349.35,81.51,350.42,81.52,349.59,81.33Z"/><path class="cls-7" d="M348,82.51c1.12,1.09,1.39,1.5,1.31,1.78s-.47.4-.74,1c-.37.76,1.71,2.13,2.76,3,1.36,1.07,3.31,2.72,5,3.84s3.05,1.83,3.42.79c1.86,1.68-.73.69,0,1.95,1.85,1.67,2.87.12,3-.62.22-1.09-1.55-3.56-2.35-2.37a8.88,8.88,0,0,0-.12-3c-.24-1.41-.75-2.77-1.43-3-.75,1.18-2.11,3.82-5.87.73a2.36,2.36,0,0,1,1-.75l.18.18a1,1,0,0,1-.16-.18c.85-.39,1.89-.63,2.26-1.51.54-1.35-2.89-.29-2.54,1.06-.7-1.21-1.73-3.58-2.19-3a1.51,1.51,0,0,1-2,.53s-.53-.24-1-.41S347.74,82.24,348,82.51Z"/><path class="cls-7" d="M369.1,95.5c-.33-1.48-1.59-1.76-2-1.17l.86.78A6.42,6.42,0,0,0,369.1,95.5Z"/><g class="cls-8"><path d="M-372.19,306.17c1.79.39,3.21-1,5.59-1l3.05.93a17.66,17.66,0,0,1,3.08-1,18.55,18.55,0,0,1,3.22.11l3-2.71,3.83,1.16c.73-1.77,1.46-3.57,2.28-5.56-.33-1.1-.68-2.32-1-3.54.63-1.88,1.81-1.41,3.19-.65,1.17,2.21-.32,4.33-.56,6.61l1.88.87,8.07-3.17,4.2-3.56c.21-1.07.46-2.31.69-3.46,1.82-1.9,3.12-.24,4.5.49,3.05-.23,3.09-2.51,3.18-4.68,1.88-.62,2.52,1.18,3.76,1.77,2-.08,3.72-.68,4.71-2.55l1.73,1.31,6.28-.81,1.79-1.65c1.42-.36,3,.48,4.36-.5s3.28-.63,5-.78c1.43-.12,2.79-1,4-1.48.34-1.11.58-1.92.82-2.71,1.6-1.48,3.47-1.52,5.64-1.09l1.87-2.05h3.65l2.28-1.88,2.08,1.35,1.94-.76,2-3.59,3.62-.51a7.47,7.47,0,0,1,3.52-5c1.55,1.53-.28,3.22.7,5.15l1.53.75c1.56-.41,1.74-1.41,1.52-2.65l12.43-8.83c-.4-.91-2.3-1.43-1-2.94,1.72-.75,3,.74,4.42.7,1.25,0,2.49-.3,4-.5l1.05-1.22,3.71-.18,2.9-2.42,1.57.26,2-2c.54-1.94,1.05-3.78,1.57-5.68l4.81,0c2.06-.71,1.88-3.27,3.21-4.91l2.81,1.43,2.33-2c3.4.12,3.4.12,6.14-2.25,1.42-.42,1.56,1.31,2.6,1.53l11.89,2,1.18-1.49a8.24,8.24,0,0,1,5.94,1.27l1.66-1.52,3.81,1.13a11.08,11.08,0,0,0,2.07-.85c2.1-1.35,3.79-3.65,6.8-2.68,2.3-1.32,4.59-.4,7,.34l1.58-2.09c1.88-.12,3.9-.74,5.61-.24a22.57,22.57,0,0,0,5.63.6c.71,0,1.39.82,2.07,1.25l1.83-.82.89-2.61c1.78-1,2,1,3.07,1,3.7,0,4.78-3.92,7.74-5.46l2.44,3.76a4.64,4.64,0,0,0,1.39.08c2.28-.62,4.54-1.3,6-3.34,2,.92,2.25-1.58,3.73-1.81a11.54,11.54,0,0,0,3.3-1.48c-.1-1.43-.18-2.45-.25-3.44l1.46-.79,1.82,2.42c.39.1.82.35,1.18.28,1.44-.32,2.69-1.15,4.36-.82s1.59,0,3.81-1.88l1.54,1.11,5.65-.15,4-3.14,2.32,1.63c.58-.88,1.15-1.77,1.72-2.65L-91,220l1.23-3,2.25,0,2-3.15,4-1.57c.38-1.09.72-2.08,1.1-3.2l3.22-1.27a38.56,38.56,0,0,0,4.21,2.28,32.52,32.52,0,0,0,4.45,1.11c2.62-.41,4.92-2.41,8-1.78.94.19,2.45-.87,3.23-1.77a7.78,7.78,0,0,1,3.85-2.2l11.9,2.62,4,10.07,2.5,2.41c0,1.06,0,2.09-.05,3.39l4.6,1.43,1.45,2.85,6,2,1,2.54L-23.71,235l3.6,1.67,1-2.65c1.61-1,1.78,1.06,2.73,1l2-1.65,1.14.92c-.34,2.2-.68,4.45-1,6.84l3.65-.41,3.73,2.77L4,243.36l1.84,1.29,4.8-1.42a10.42,10.42,0,0,0,5.12,2.35,51.75,51.75,0,0,1,9.82,3,30.56,30.56,0,0,0,4.94,1.25,34.31,34.31,0,0,1,4.83,1.86c1.61.58,3.25,1,5.23,1.67.15,1.24.32,2.65.53,4.42,2.83,2.37,3.57,7.27,7.92,8.82l1.09-1.07c2.61,1,.6,3.47,1.57,5l2.33.68c0,.43,0,.86.07,1.43l2,.22c1.73.92,1,3.49,2.64,4.75l2.5.62c.74,1.53,1.13,3.46,2.3,4.49,1.42,1.24,2,2.77,2.8,4.24l3.25,1.87-.36,1.69c1,1.32,1.9,3.26,3.4,4.15a10.24,10.24,0,0,1,4.55,5.14c2.29,1.06,2.13,3.63,3.5,5.61.92.45,2,1.09,3.25,1.56a20.11,20.11,0,0,0,2.5.7c.5,2,.39,3.73,1.16,4.35,3,2.39,3.1,6.06,4.91,9l-1.77,3.07c1.91,4.41,6.53,5.79,10.32,8.83.25.55.71,1.52,1.16,2.49,2,1.06,4.62.87,6.41,2.89,0,.49,0,1.12,0,1.87l2.66,3.49,2.21.47c1.19.94-.16,2.78,1.58,3.83,1.08.66,1.39,2.57,2,3.94-.4,1.31-.77,2.54-1.18,3.9.29,1.11.62,2.35,1,3.67l-1.75,4.76a3.88,3.88,0,0,0,.14,1.32c1.22,2.46,1.44,5.47,4,7.19.46.31.61,1.11.87,1.7,1.47,3.17,1.54,6.64,1.86,10,.29,3.07-.35,4-3.14,8.33l2.06,1.9c0,.74,0,1.77,0,2.8.63,1.17,1.89,1.73,6.59,2.82-.12.77-.2,1.58-.37,2.36s-.39,1.23-.65,2l1.64,2c0,.43,0,1.05,0,2.07l5.36,4.33c0,.38,0,1-.05,1.83l2.52,2.75c0,.84-.11,1.69-.16,2.6l4.15,4c-.08,2-.16,3.87-.24,5.79,3,2.51,3.09,6.49,5,10.1,1.51,1.14,3.37,2.55,5.67,4.31.38.83,1,2.19,1.61,3.55,1.08,1.72,3.75,2.25,3.62,4.86,1.59,1.26,2,3.21,2.88,4.88,1.1,2-.41,4.34.89,6a13.42,13.42,0,0,0-.41,1.59c-.23,2-2.33,3-2.54,5.06a23.61,23.61,0,0,1-1,5c-.59,1.84-1.12,3.91-2.34,5.29-2.09,2.38-2.74,5.34-4.15,7.8.26,4.24.34,8.28-1.29,12.45.26.79.6,1.8.94,2.81a4.08,4.08,0,0,1,0,1.26c-1,2.83-1.62,5.79-2.33,8.66-.61,2.5-2.33,5.3-.41,8-.17,3.86-.2,7.75-2.36,11.07,1.89,4.12.93,7.8-.66,11.21-.13,3.37.56,6.45-.12,9.71-.54,2.56.47,5.43.79,8.17,0,.21,0,.42,0,.95-.9,1.85-1.33,4.23-3.19,6a3.72,3.72,0,0,0-1.07,2.3c-.28,3.68-2.34,6.88-2.66,11.45l1.89,5.53c-1.26,3-2.59,6.14-3.89,9.23l-14,5.51c-4.76,5.54-8.36,11.5-9.76,18.68a12.17,12.17,0,0,1-3.67,6.71,24.79,24.79,0,0,0-3.46,3.79c-.69,1-.94,2.32-1.67,4.27a18.76,18.76,0,0,1-3.66,3.12c-1.76.94-2,2.77-3.42,4.26-3.12.24-5,3.26-7.9,4.67s-3.51,4.77-5.4,7.62c-3.71,1.46-7.67,3.21-11.77,4.56a33,33,0,0,0-10.14,5.39c-3,2.35-6.6,4-8.67,7.45l-5.16,2c-1.38,1.81-2.94,3.83-4.67,6.1L30.3,685.74l-3.73,4.09c-3.2,2-7.1,2.31-9.88,4.9-5.88.64-10.87,3.88-16.37,5.62-4.42-.71-8.08,2.69-12.51,2.27-1.17-.1-2.47.72-3.64,1.26A22.57,22.57,0,0,1-27,706.2c-2.55-.19-4.49,1.44-6.83,1.83a24.46,24.46,0,0,1-3.18-.25,5.84,5.84,0,0,0-6.19,2.39c-1.35,1.65-2.8,3.19-4.1,4.91a17.68,17.68,0,0,1-5.23,4.54,37.21,37.21,0,0,0-4.76,3.18,23.94,23.94,0,0,1-6.38,4.2c-1.91.72-3.49,2.36-5.14,3.69s-3.19,2.79-4.68,4.09l-1.48-.14a5,5,0,0,0-1,.66c-1.62,1.71-3,3.67-5.1,4.05l-6.45,8.1c-.78.3-1.76.73-2.77,1.08-2.38.83-3.61,4-6.67,3.39-2.65-.52-4.84,2-7.56,1.06-.52-.17-1.25.2-1.85.42-4.24,1.64-8.48,3.27-12.69,5a7.68,7.68,0,0,0-2.69,1.67,4.76,4.76,0,0,1-4,1.6,10.92,10.92,0,0,0-7.72,2.8c-2.38,2.19-5.21,3-8,4-2.59.92-5,2.77-8,2-2.81,1.14-6,.41-8.78,1.78a5.94,5.94,0,0,1-2.51.14,21.1,21.1,0,0,0-11.45,2.88l-1.6,2.48a74.17,74.17,0,0,0-6.9,5.32,7.65,7.65,0,0,1-5,2.31,20.24,20.24,0,0,0-11.67,4.78c-2.41,2-4.83,4.15-8.07,5.05-1.35.37-2.46,1.59-4,2.67-3.76.48-8.11.75-11.19,4.35-6.1,2.58-11.94,6-19,5a44.14,44.14,0,0,0-5.88,0l-4.16-1.53c-1.19.47-2.66.64-3.48,1.47a10.38,10.38,0,0,1-3.65,2.51c-3,1.18-6.29,1.77-8.37,4.58l-7.51,2.94c-.59-.18-1.41-.41-2.21-.69s-1.61-.63-2.36-.92a36.12,36.12,0,0,1-4.5.15c-1.7-.15-3.36-.6-5.71-1-3.43,1.34-7.55,2.69-11.42,4.57a25.33,25.33,0,0,1-10,2.18,15.56,15.56,0,0,0-5,.83,15.54,15.54,0,0,1-5.61,1.28c-1.64,0-3.29.92-4.9,1.52-2.85,1-5.66,2.16-8.49,3.25-4.75-.32-8.63,2.37-12.9,3.72a27.18,27.18,0,0,1-6.21,1.47c-2.5.19-4.89,1.58-7.34,2.41-2.62.89-5,2.27-8,2.06-1.55-.11-3.21,1.14-4.55,1.66l-16.43-.54-3.57,1.21-5.27-.44-4.3,1.38-3.75-1a7.29,7.29,0,0,0-1.73.46c-4.33,2.29-9,2.55-13.75,2.4-2.76-.09-5.52.09-8.85.17l-5.49-2.22c-1.05.07-2.28.54-3.12.15-2.51-1.18-5.21-1.81-7.74-2.91-2.38-1-4.83-1.94-7.14-3.11a27.26,27.26,0,0,0-12.4-3.19l-1.27,1.32A30.6,30.6,0,0,1-475,833c-3-.62-6.27-1-9.5.34a7.23,7.23,0,0,1-6.25-.55c-2-1.12-4.14-1-6.26-1.19l-3.65,1.21c-6.62-.54-12.21-3.1-18.94-3.29-3.17-1.43-6.79-3.55-10.69-4.71-3.61-1.07-7.44-1.91-11.6-1.25l-4.63-1.72c-1.49-2.8-3.41-4.23-4.49-6.42a8.14,8.14,0,0,0-6.11-4.36,24.74,24.74,0,0,1-9.51-3.76,4.46,4.46,0,0,0-1.67-.78c-4-.45-6.35-3.28-8.77-6.35-.88-.16-1.93-.31-3-.55-6.66-1.51-6.66-1.52-15.06-7.06a25.46,25.46,0,0,0-3.61-.58,11.49,11.49,0,0,1-8-3.67,25.53,25.53,0,0,0-8.43-5.82,8.22,8.22,0,0,1-2.58-1.85c-3.06-3.07-6.85-5.13-10.4-7.5a18.42,18.42,0,0,0-4.2-1.54c-1-.35-2.41-.39-2.93-1.09-1.53-2.07-3.93-1.49-6.32-2.47-2.17-2.9-4.49-6.19-7-9.31-1.35-1.68-2.94-3.17-3.36-5.37-.52-2.74-3.06-4.1-4.38-6.63-5.17-1.49-8-6.71-13-9l-5.44-13.84c.17-1.38.48-3.28.63-5.19a10.08,10.08,0,0,0-.07-3.8,11.49,11.49,0,0,1,1-9.31,18.25,18.25,0,0,0,.87-2.22c.28-1.68-.47-3.07,0-4.65a45.73,45.73,0,0,0,2-10.68,8.28,8.28,0,0,0-1.72-5.36c-2.23-3.2-5.45-5.38-8.39-8.26l-.21-3.82c-1.22-1.48-2.56-3.12-4-4.85,0-.47,0-1.11,0-2a10.14,10.14,0,0,1-3.42-5.06c-.94-2.61-1.69-5.31-4-7.29a4.66,4.66,0,0,1-1-3,45.85,45.85,0,0,1-.07-7c.35-4.27.78-8.48-.85-12.65-.51-1.31-.18-2.94-.49-4.37a13.74,13.74,0,0,0-1-2.72l-7-7.61c-.29-2.08-.56-4-.91-6.52,0,.47,0,.25,0,0a9.26,9.26,0,0,1,.37-1.24c.51-1.19.78-2.63,1.62-3.51,3.1-3.27,4.1-7.9,7.47-11.16.18-1.34.39-2.82.62-4.52.71-1.25,1.57-2.71,2.39-4.19s1.07-3.29,2.6-4.41a2.46,2.46,0,0,0,1-1.6c.17-3.7,2.43-6.89,2.59-10.52.12-2.53.46-5,.74-7.51a16.38,16.38,0,0,0-2-9c1-6.38,3.63-12.19,2.85-19,.66-1.6,1.44-3.61,2.32-5.58.7-1.57,1.65-3,1.53-4.88a2.4,2.4,0,0,1,.54-1.81c2.58-1.9,2-5,3.17-7.51a26.39,26.39,0,0,0,2.57-7.94c.17-1.44,1.17-2.77,1.69-4.19.36-1,.54-2.05.94-3.66l5.09-5.7c.61-2.12,1.16-4.18,1.81-6.21a15.74,15.74,0,0,1,4-6.51,23.92,23.92,0,0,0,4.4-5.5,15.52,15.52,0,0,1,3.1-3.18c.61-.59,1.31-1.09,1.92-1.68.45-.45.83-1,1.27-1.51.17-1.65.35-3.35.59-5.61,1-1.06,2.06-2.9,3.65-3.73,3.22-1.69,5.1-4.51,7.24-7.15,1.35-1.67,2.62-3.4,4.11-4.94a41.45,41.45,0,0,1,4.26-3.24c.36-.67,1.15-2.19,2.05-3.91,1.1-.68,2.72-1.19,3.54-2.3,1-1.37,2.93-.36,3.67-1.84,1,.73,1.88,1.93,3.63.76,1.47-2.23,3.11-4.7,4.76-7.17l2.23,1.51c.3-.05.52-.07.73-.12s.47-.05.6-.18c1.36-1.37,2.69-2.76,4.36-4.49l5-2,2.41-4.64c2.53.21,3.56-3,6.44-2.49l1.87,1.25c-.11-1.09-.2-2.13-.31-3.2,1.26-1.74,3.26-.12,4.76-1.09a22.88,22.88,0,0,1,4.14-1.69,9.75,9.75,0,0,1-.59-5.1l2.23.84c0,1.07.06,1.91.08,2.74l1.71.91c.86.07,3.63-2.44,6.09-5.38-.38-1.19-.77-2.39-1.21-3.78l2.62-.16a4.08,4.08,0,0,0,.93-.81c.58-.89.85-2.27,1.65-2.68,2.22-1.15,3.19-3.7,5.16-4.7,2.14-1.1,2.34-3.62,4.31-4.74l2.44,1.6c3.48-.17,5-4.46,8.43-4.48l3.27-4.53,4.15.9,4.54-2.58,2.23,1.48a1.75,1.75,0,0,0,.63.09c.42-.09.82-.26,1.23-.38,2.22-.62,4.44-1.21,6.64-1.87.36-.11.63-.53,1-.87l4.94.23c.19-.22.41-.36.46-.55.3-1.2.56-2.4.82-3.55,1.74-.85,2.91.74,4.3.77a3.74,3.74,0,0,0,1.22-.5c1.74-1.76,1.71-1.79,4.32-2.72l2,1.35a6.17,6.17,0,0,0,4-1.63c3-2.35,5.91-4.94,9.71-6a8.45,8.45,0,0,1,3.08-.64c2.11.28,3.69-1.11,5.95-1.38l3.53,1.1c.49-3.87,3.32-6.85,3.45-10.9l2.07.59c.12.44.37.82.3,1.14-.51,2.3-1.08,4.59-1.62,6.8a20.13,20.13,0,0,1,2.71,1.08,28.88,28.88,0,0,1,2.67,1.91c1.59-1.36,3.62-2.32,4.23-3.85a11.82,11.82,0,0,1,2.81-4.18c.64.82,1.28,1.62,1.94,2.45a3,3,0,0,0,2.86-1c.87-1,1.71-1.94,2.79-3.18l3.61,2.21c-.07-1.06-.14-2.1-.2-3.07,1-1.72,2.53-1.35,4-1.25l1.92-3.23,2.49-.2c.12-.62.25-1.24.39-1.95l3.95,1,3.3-2.8,1.89.25c1.61-1.3,1.12-4.11,3.44-5.08,2.08-.87,2.79-3.21,5.74-5.16,1.74-1,5.3-1.49,8-3.43,0-2.39-2.28-2-3.17-3.34.13-.22.24-.65.51-.83a6.6,6.6,0,0,1,5.22-.73c2.3-3.31,6.61-3.34,9.69-5.44.27-.93.5-1.74.74-2.55.34-.25.74-.77,1-.72,2.8.54,5.41-.86,8.19-.68a5.51,5.51,0,0,0,4-1.83c2.5-2.28,5.13-4.41,7.76-6.65l3.39,1.11Z"/><g class="cls-9"><path class="cls-10" d="M-9.93,243.42l-.56-8.13h3L-8,243.42Zm10.48,0L0,235.29H3l-.56,8.13Z"/><path class="cls-10" d="M20.68,256l-2.32,1.23L17.31,255a6.37,6.37,0,0,1-4.92,2.29c-4,0-6.06-3.31-6.06-8.25,0-5.45,2.32-8.35,6.4-8.35a5.13,5.13,0,0,1,4.39,2.1V234.3h2.42v19.35Zm-3.56-2.29v-9.31a5.09,5.09,0,0,0-3.68-1.55c-3,0-4.6,2.11-4.6,6.13,0,3.86,1.57,6.06,4.48,6.06A6.34,6.34,0,0,0,17.12,253.75Z"/><path class="cls-10" d="M37.38,249H26.06c.06,3.46,2.38,5.84,6.4,5.84a10.47,10.47,0,0,0,4.76-1.05l-.77,2.5a10.18,10.18,0,0,1-4.79,1c-5,0-8-3.34-8-8.41s3.09-8.19,7.7-8.19c4.08,0,6.34,2.56,6.34,6.21A7.81,7.81,0,0,1,37.38,249Zm-11.16-1.77h9.12c-.13-2.9-1.42-4.45-4-4.45A5,5,0,0,0,26.22,247.25Z"/><path class="cls-10" d="M46.38,256.87l-6.65-15.8h2.63l4.73,11.66.65,1.73h.09l.65-1.73,4.73-11.66h2.57l-6.62,15.8Z"/><path class="cls-10" d="M58.44,255.73l-.12-2.6a11.5,11.5,0,0,0,6.68,2c2.72,0,4.39-1,4.39-2.88,0-3.77-10.67-.62-10.67-6.65,0-2.69,2.19-4.94,7-4.94,3.21,0,5.53.92,5.53,2.47a2.33,2.33,0,0,1-.37,1.11,12.7,12.7,0,0,0-5.38-1.33c-2.72,0-4.42,1-4.42,2.48,0,3.46,10.76.74,10.76,6.64,0,3.38-2.82,5.29-7.08,5.29A12.75,12.75,0,0,1,58.44,255.73Z"/><path class="cls-10" d="M89.8,254.89v2h-15v-2h6.34V243.08H74.77v-2h8.75v13.82Zm-6.47-20.16v3H80.7v-3Z"/><path class="cls-10" d="M106.19,254.46l-.47,2.26a12.08,12.08,0,0,1-3.52.55c-4.12,0-5.91-2-5.91-5.22v-8.94H91.71v-2h4.58v-4.61h2.38v4.61h6.87v2H98.67v8.26c0,2.53,1.36,3.71,3.9,3.71A10.09,10.09,0,0,0,106.19,254.46Z"/><path class="cls-10" d="M123.19,249H111.88c.06,3.46,2.38,5.84,6.4,5.84a10.5,10.5,0,0,0,4.76-1.05l-.77,2.5a10.22,10.22,0,0,1-4.8,1c-5,0-8-3.34-8-8.41s3.1-8.19,7.7-8.19c4.09,0,6.34,2.56,6.34,6.21A7.45,7.45,0,0,1,123.19,249ZM112,247.25h9.12c-.12-2.9-1.42-4.45-4-4.45A5,5,0,0,0,112,247.25Z"/><path class="cls-10" d="M126.26,248.74v-2.35h14.65v2.35Z"/><path class="cls-10" d="M157.83,249c0,5.42-2.32,8.32-6.37,8.32a5.05,5.05,0,0,1-4.67-2.5l-.59,2.1h-1.54V234.3h2.41v8.41a6.27,6.27,0,0,1,4.7-2C155.79,240.67,157.83,244,157.83,249Zm-2.51,0c0-3.83-1.57-6.06-4.45-6.06a6.19,6.19,0,0,0-3.8,1.36v9.34a5.18,5.18,0,0,0,3.65,1.49C153.75,255.05,155.32,252.94,155.32,248.92Z"/><path class="cls-10" d="M160.8,249c0-5,2.78-8.28,7.11-8.28S175,244,175,249s-2.75,8.32-7.08,8.32S160.8,254,160.8,249Zm11.69,0c0-3.95-1.8-6.09-4.58-6.09S163.3,245,163.3,249s1.86,6.13,4.61,6.13S172.49,252.94,172.49,249Z"/><path class="cls-10" d="M178,249c0-5,2.79-8.28,7.11-8.28s7.09,3.28,7.09,8.28-2.76,8.32-7.09,8.32S178,254,178,249Zm11.69,0c0-3.95-1.79-6.09-4.58-6.09s-4.6,2.17-4.6,6.09,1.85,6.13,4.6,6.13S189.65,252.94,189.65,249Z"/><path class="cls-10" d="M210.25,256.87h-3.1l-8.31-8.38v8.38h-2.42V234.3h2.42v13.6l7.79-6.83h3l-8.17,7.08Z"/><path class="cls-10" d="M212.07,248.74v-2.35h14.66v2.35Z"/><path class="cls-10" d="M242.59,245.65v11.22h-2.41V246.48c0-2.44-1-3.59-3-3.59a8.79,8.79,0,0,0-4.24,1.3v12.68H230.5V244.29l-1.14-2.51,2.29-1.11,1.14,2.44a8.7,8.7,0,0,1,5.47-2.44C241.29,240.67,242.59,242.55,242.59,245.65Z"/><path class="cls-10" d="M259.69,247.1v9.77H257.5l-.09-2.44a9.44,9.44,0,0,1-6.59,2.84,4,4,0,0,1-4.21-4.33c0-2.25,1.37-4.45,6.59-5.47l4.08-.74c-.12-2.94-1.91-3.77-4.57-3.77a12.17,12.17,0,0,0-5.2,1.14,4.06,4.06,0,0,1-.12-.87c0-1.85,3.15-2.56,5.84-2.56C257.62,240.67,259.69,242.65,259.69,247.1Zm-8.07,8.19a8.84,8.84,0,0,0,5.66-2.13v-4.73l-3.74.77c-3,.56-4.39,1.76-4.39,3.62A2.28,2.28,0,0,0,251.62,255.29Z"/><path class="cls-10" d="M269.5,256.87l-6.65-15.8h2.63l4.73,11.66.65,1.73H271l.65-1.73,4.73-11.66h2.57l-6.62,15.8Z"/><path class="cls-10" d="M280.72,248.74v-2.35h14.66v2.35Z"/><path class="cls-10" d="M312.14,254.46l-.46,2.26a12.21,12.21,0,0,1-3.53.55c-4.11,0-5.9-2-5.9-5.22v-8.94h-4.58v-2h4.58v-4.61h2.38v4.61h6.86v2h-6.86v8.26c0,2.53,1.36,3.71,3.89,3.71A10.05,10.05,0,0,0,312.14,254.46Z"/><path class="cls-10" d="M315.27,249c0-5,2.78-8.28,7.11-8.28s7.08,3.28,7.08,8.28-2.75,8.32-7.08,8.32S315.27,254,315.27,249ZM327,249c0-3.95-1.8-6.09-4.58-6.09s-4.61,2.17-4.61,6.09,1.86,6.13,4.61,6.13S327,252.94,327,249Z"/><path class="cls-10" d="M343.81,241.07h1.85v16.05c0,5.59-5.13,6.24-7.63,6.24a10.18,10.18,0,0,1-4.15-.8l-.34-2.29a9.59,9.59,0,0,0,4,1c2.57,0,5.63-.68,5.63-4.27v-2a7,7,0,0,1-4.64,1.8c-4,0-6.12-3.09-6.12-8.07s2.29-8,6.62-8a5.4,5.4,0,0,1,4.48,2.16Zm-.59,12.34v-9.19a5.57,5.57,0,0,0-3.52-1.33c-3.1,0-4.7,2-4.7,5.82s1.6,5.87,4.48,5.87A6.78,6.78,0,0,0,343.22,253.41Z"/><path class="cls-10" d="M361,241.07h1.86v16.05c0,5.59-5.14,6.24-7.64,6.24a10.13,10.13,0,0,1-4.14-.8l-.34-2.29a9.55,9.55,0,0,0,4.05,1c2.56,0,5.62-.68,5.62-4.27v-2a7,7,0,0,1-4.63,1.8c-4,0-6.13-3.09-6.13-8.07s2.29-8,6.62-8a5.38,5.38,0,0,1,4.48,2.16Zm-.59,12.34v-9.19a5.55,5.55,0,0,0-3.52-1.33c-3.09,0-4.7,2-4.7,5.82s1.61,5.87,4.48,5.87A6.78,6.78,0,0,0,360.38,253.41Z"/><path class="cls-10" d="M381.44,254.15l-.55,2.23a14.6,14.6,0,0,1-5.23.89c-2.78,0-4.2-1-4.2-3.89v-17h-5.6v-2.1h8v18.43c0,1.67.62,2.32,3,2.32A16.08,16.08,0,0,0,381.44,254.15Z"/><path class="cls-10" d="M397.8,249H386.49c.06,3.46,2.38,5.84,6.4,5.84a10.5,10.5,0,0,0,4.76-1.05l-.78,2.5a10.15,10.15,0,0,1-4.79,1c-5,0-8-3.34-8-8.41s3.09-8.19,7.7-8.19c4.08,0,6.34,2.56,6.34,6.21A7.45,7.45,0,0,1,397.8,249Zm-11.16-1.77h9.12c-.12-2.9-1.42-4.45-4-4.45A5,5,0,0,0,386.64,247.25Z"/><path class="cls-10" d="M402,243.42l-.56-8.13h3l-.52,8.13Zm10.48,0-.56-8.13h3l-.55,8.13Z"/><path class="cls-10" d="M-9.93,284l-.56-8.13h3L-8,284ZM.55,284,0,275.91H3L2.43,284Z"/><path class="cls-10" d="M20.49,285.15v12.34H18.11V286c0-1.83-.4-2.48-1.51-2.48a3.52,3.52,0,0,0-2,.74c0,.28,0,.62,0,.93v12.34H12.3V286c0-1.83-.43-2.48-1.51-2.48a3.52,3.52,0,0,0-1.95.74v13.27H6.42V284.87l-1.2-2.44,2.35-1.11,1,2.1a5,5,0,0,1,3.62-2.1,2.17,2.17,0,0,1,2.32,1.95A4.92,4.92,0,0,1,18,281.32C20,281.32,20.49,282.93,20.49,285.15Z"/><path class="cls-10" d="M37.38,289.64H26.06c.06,3.46,2.38,5.84,6.4,5.84a10.47,10.47,0,0,0,4.76-1.05l-.77,2.5a10.18,10.18,0,0,1-4.79,1c-5,0-8-3.34-8-8.41s3.09-8.19,7.7-8.19c4.08,0,6.34,2.56,6.34,6.21A7.81,7.81,0,0,1,37.38,289.64Zm-11.16-1.77h9.12c-.13-2.9-1.42-4.45-4-4.45A5,5,0,0,0,26.22,287.87Z"/><path class="cls-10" d="M53.8,286.27v11.22H51.39V287.1c0-2.44-1-3.59-3-3.59a8.76,8.76,0,0,0-4.24,1.3v12.68H41.71V284.91l-1.14-2.51,2.28-1.11L44,283.73a8.7,8.7,0,0,1,5.47-2.44C52.5,281.29,53.8,283.17,53.8,286.27Z"/><path class="cls-10" d="M72.08,296.78l-2.29,1.11-1-2.19A10.27,10.27,0,0,1,63,297.89c-2.91,0-4.15-1.88-4.15-5V281.69h2.41v10.45c0,2.38,1,3.53,3,3.53a9,9,0,0,0,4.21-1.27V281.69h2.41v12.62Z"/><path class="cls-10" d="M75.88,284l-.56-8.13h3L77.8,284Zm10.48,0-.55-8.13h3L88.25,284Z"/><path class="cls-10" d="M122.45,286.27v11.22H120V287.07c0-2.41-1-3.56-3-3.56a8.66,8.66,0,0,0-4.24,1.3v12.68h-2.38V274.92h2.38v8.72a8.6,8.6,0,0,1,5.32-2.35C121.18,281.29,122.45,283.17,122.45,286.27Z"/><path class="cls-10" d="M141.29,295.51v2h-15v-2h6.34V283.7h-6.34v-2H135v13.82Zm-6.47-20.16v3h-2.63v-3Z"/><path class="cls-10" d="M158,296.66l-2.31,1.23-1.06-2.29a6.36,6.36,0,0,1-4.91,2.29c-4,0-6.06-3.31-6.06-8.25,0-5.45,2.32-8.35,6.4-8.35a5.16,5.16,0,0,1,4.39,2.1v-8.47h2.41v19.35Zm-3.55-2.29v-9.31a5.13,5.13,0,0,0-3.68-1.55c-3,0-4.61,2.11-4.61,6.13,0,3.86,1.58,6.06,4.48,6.06A6.39,6.39,0,0,0,154.43,294.37Z"/><path class="cls-10" d="M175.15,296.66l-2.32,1.23-1.05-2.29a6.4,6.4,0,0,1-4.92,2.29c-4,0-6.06-3.31-6.06-8.25,0-5.45,2.32-8.35,6.4-8.35a5.15,5.15,0,0,1,4.39,2.1v-8.47H174v19.35Zm-3.56-2.29v-9.31a5.13,5.13,0,0,0-3.68-1.55c-3,0-4.61,2.11-4.61,6.13,0,3.86,1.58,6.06,4.49,6.06A6.34,6.34,0,0,0,171.59,294.37Z"/><path class="cls-10" d="M191.85,289.64H180.53c.06,3.46,2.38,5.84,6.4,5.84a10.5,10.5,0,0,0,4.76-1.05l-.77,2.5a10.18,10.18,0,0,1-4.79,1c-5,0-8-3.34-8-8.41s3.09-8.19,7.7-8.19c4.08,0,6.33,2.56,6.33,6.21A7.83,7.83,0,0,1,191.85,289.64Zm-11.17-1.77h9.13c-.13-2.9-1.43-4.45-4-4.45A5,5,0,0,0,180.68,287.87Z"/><path class="cls-10" d="M208.27,286.27v11.22h-2.41V287.1c0-2.44-1-3.59-3-3.59a8.76,8.76,0,0,0-4.24,1.3v12.68h-2.41V284.91L195,282.4l2.29-1.11,1.15,2.44a8.68,8.68,0,0,1,5.47-2.44C207,281.29,208.27,283.17,208.27,286.27Z"/><path class="cls-10" d="M212.07,286.51v-2.32h14.66v2.32Zm0,5.6v-2.29h14.66v2.29Z"/><path class="cls-10" d="M230.35,284l-.56-8.13h3l-.52,8.13Zm10.48,0-.56-8.13h3l-.55,8.13Z"/><path class="cls-10" d="M247.51,284l-.56-8.13h3l-.52,8.13ZM258,284l-.55-8.13h3l-.56,8.13Z"/><path class="cls-10" d="M285.33,281.69h4v2.1h-4v13.7h-2.41v-13.7h-2.81v-2.1h2.81v-2.81c0-3.13,1.67-4.36,4.17-4.36a6,6,0,0,1,2,.34l.19,2.07a6,6,0,0,0-1.8-.25c-1.48,0-2.1.77-2.1,2.44Zm6.59-6.34h2.63v3h-2.63Zm.09,22.14v-15.8h2.41v15.8Z"/><path class="cls-10" d="M297.7,297.49l6.16-8-6-7.82h2.66l4.17,5.41.53.84h.06l.49-.84,4.21-5.41h2.63l-6.09,7.82,6.12,8H310l-4.3-5.53-.52-.9h0l-.55.9-4.24,5.53Z"/><path class="cls-10" d="M329.15,289.64H317.83c.07,3.46,2.38,5.84,6.4,5.84a10.51,10.51,0,0,0,4.77-1.05l-.78,2.5a10.18,10.18,0,0,1-4.79,1c-5,0-8-3.34-8-8.41s3.09-8.19,7.7-8.19c4.08,0,6.34,2.56,6.34,6.21A7.45,7.45,0,0,1,329.15,289.64ZM318,287.87h9.12c-.12-2.9-1.42-4.45-4-4.45A5,5,0,0,0,318,287.87Z"/><path class="cls-10" d="M346.78,296.66l-2.32,1.23-1-2.29a6.4,6.4,0,0,1-4.92,2.29c-4,0-6.06-3.31-6.06-8.25,0-5.45,2.32-8.35,6.4-8.35a5.15,5.15,0,0,1,4.39,2.1v-8.47h2.41v19.35Zm-3.56-2.29v-9.31a5.13,5.13,0,0,0-3.68-1.55c-3,0-4.61,2.11-4.61,6.13,0,3.86,1.58,6.06,4.49,6.06A6.34,6.34,0,0,0,343.22,294.37Z"/><path class="cls-10" d="M349.38,286.51v-2.32H364v2.32Zm0,5.6v-2.29H364v2.29Z"/><path class="cls-10" d="M367.65,284l-.55-8.13h3l-.53,8.13Zm10.49,0-.56-8.13h3L380,284Z"/><path class="cls-10" d="M384.82,284l-.56-8.13h3l-.53,8.13Zm10.48,0-.56-8.13h3l-.56,8.13Z"/><path class="cls-10" d="M431.33,287.72v9.77h-2.2l-.09-2.44a9.44,9.44,0,0,1-6.59,2.84,4,4,0,0,1-4.2-4.33c0-2.25,1.36-4.45,6.58-5.47l4.08-.74c-.12-2.94-1.91-3.77-4.57-3.77a12.17,12.17,0,0,0-5.2,1.14,4.06,4.06,0,0,1-.12-.87c0-1.85,3.15-2.56,5.84-2.56C429.25,281.29,431.33,283.27,431.33,287.72Zm-8.08,8.19a8.84,8.84,0,0,0,5.66-2.13v-4.73l-3.74.77c-3,.56-4.39,1.76-4.39,3.62A2.28,2.28,0,0,0,423.25,295.91Z"/><path class="cls-10" d="M450.93,282.9a1.47,1.47,0,0,1-1.64,1.54,1.86,1.86,0,0,1-1.61-.68,25,25,0,0,0-5.84,2.78v9h5.35v2H435.35v-2h4.08V283.7h-4.08v-2h5.81l.62,3c2.53-2,5.66-3.43,7.57-3.43A1.5,1.5,0,0,1,450.93,282.9Z"/><path class="cls-10" d="M2.31,326.89v11.22H-.1V327.72c0-2.44-1-3.59-3-3.59a8.76,8.76,0,0,0-4.24,1.3v12.68H-9.78V325.53L-10.92,323l2.28-1.11,1.15,2.44A8.7,8.7,0,0,1-2,321.91C1,321.91,2.31,323.79,2.31,326.89Z"/><path class="cls-10" d="M7.23,324.66l-.56-8.13h3l-.52,8.13Zm10.48,0-.55-8.13h3l-.55,8.13Z"/><path class="cls-10" d="M55,337.28l-2.32,1.23-1-2.29a6.4,6.4,0,0,1-4.92,2.29c-4,0-6.06-3.31-6.06-8.25,0-5.45,2.32-8.35,6.4-8.35a5.15,5.15,0,0,1,4.39,2.1v-8.47h2.41v19.35ZM51.45,335v-9.31a5.13,5.13,0,0,0-3.68-1.55c-3,0-4.61,2.11-4.61,6.13,0,3.86,1.58,6.06,4.49,6.06A6.34,6.34,0,0,0,51.45,335Z"/><path class="cls-10" d="M70.9,328.34v9.77H68.71l-.1-2.44A9.41,9.41,0,0,1,62,338.51a4,4,0,0,1-4.21-4.33c0-2.25,1.36-4.45,6.59-5.47l4.08-.74c-.12-2.94-1.92-3.77-4.58-3.77a12.16,12.16,0,0,0-5.19,1.14,4.06,4.06,0,0,1-.13-.87c0-1.85,3.16-2.56,5.85-2.56C68.83,321.91,70.9,323.89,70.9,328.34Zm-8.07,8.19a8.84,8.84,0,0,0,5.66-2.13v-4.73l-3.74.77c-3,.56-4.39,1.76-4.39,3.62A2.28,2.28,0,0,0,62.83,336.53Z"/><path class="cls-10" d="M89,335.7,88.56,338a12.15,12.15,0,0,1-3.53.55c-4.11,0-5.9-2-5.9-5.22v-8.94H74.55v-2h4.58V317.7h2.38v4.61h6.86v2H81.51v8.26c0,2.53,1.36,3.71,3.89,3.71A10,10,0,0,0,89,335.7Z"/><path class="cls-10" d="M105.23,328.34v9.77H103l-.09-2.44a9.42,9.42,0,0,1-6.59,2.84,4,4,0,0,1-4.2-4.33c0-2.25,1.36-4.45,6.58-5.47l4.09-.74c-.13-2.94-1.92-3.77-4.58-3.77a12.21,12.21,0,0,0-5.2,1.14,4.06,4.06,0,0,1-.12-.87c0-1.85,3.15-2.56,5.84-2.56C103.16,321.91,105.23,323.89,105.23,328.34Zm-8.07,8.19a8.86,8.86,0,0,0,5.66-2.13v-4.73l-3.75.77c-3,.56-4.39,1.76-4.39,3.62A2.29,2.29,0,0,0,97.16,336.53Z"/><path class="cls-10" d="M109.09,330v-2.35h14.66V330Z"/><path class="cls-10" d="M140.51,335.7l-.46,2.26a12.21,12.21,0,0,1-3.53.55c-4.11,0-5.9-2-5.9-5.22v-8.94H126v-2h4.58V317.7H133v4.61h6.86v2H133v8.26c0,2.53,1.36,3.71,3.89,3.71A10.05,10.05,0,0,0,140.51,335.7Z"/><path class="cls-10" d="M158.45,336.13v2h-15v-2h6.34V324.32h-6.34v-2h8.75v13.82ZM152,316v3h-2.63v-3Z"/><path class="cls-10" d="M174.84,335.7l-.47,2.26a12.08,12.08,0,0,1-3.52.55c-4.11,0-5.91-2-5.91-5.22v-8.94h-4.57v-2h4.57V317.7h2.38v4.61h6.87v2h-6.87v8.26c0,2.53,1.36,3.71,3.9,3.71A10.09,10.09,0,0,0,174.84,335.7Z"/><path class="cls-10" d="M192.65,335.39l-.56,2.23a14.54,14.54,0,0,1-5.22.89c-2.78,0-4.21-1-4.21-3.89v-17h-5.59v-2.1h8V334c0,1.67.61,2.32,3,2.32A15.74,15.74,0,0,0,192.65,335.39Z"/><path class="cls-10" d="M209,330.26H197.69c.06,3.46,2.38,5.84,6.4,5.84a10.51,10.51,0,0,0,4.77-1.05l-.78,2.5a10.18,10.18,0,0,1-4.79,1c-5,0-8-3.34-8-8.41s3.09-8.19,7.7-8.19c4.08,0,6.34,2.56,6.34,6.21A7.45,7.45,0,0,1,209,330.26Zm-11.16-1.77H207c-.13-2.9-1.42-4.45-4-4.45A5,5,0,0,0,197.85,328.49Z"/><path class="cls-10" d="M212.07,327.13v-2.32h14.66v2.32Zm0,5.6v-2.29h14.66v2.29Z"/><path class="cls-10" d="M230.35,324.66l-.56-8.13h3l-.52,8.13Zm10.48,0-.56-8.13h3l-.55,8.13Z"/><path class="cls-10" d="M257.53,316.53H260v21.58h-2.44V327.88h-7.64v10.23h-2.47V316.53h2.47v9.3h7.64Z"/><path class="cls-10" d="M278.59,336.13v2h-15v-2h6.34V324.32h-6.34v-2h8.75v13.82ZM272.13,316v3H269.5v-3Z"/><path class="cls-10" d="M295.29,337.28,293,338.51l-1.05-2.29a6.4,6.4,0,0,1-4.92,2.29c-4,0-6.06-3.31-6.06-8.25,0-5.45,2.32-8.35,6.4-8.35a5.15,5.15,0,0,1,4.39,2.1v-8.47h2.41v19.35ZM291.73,335v-9.31a5.13,5.13,0,0,0-3.68-1.55c-3,0-4.6,2.11-4.6,6.13,0,3.86,1.57,6.06,4.48,6.06A6.34,6.34,0,0,0,291.73,335Z"/><path class="cls-10" d="M312,330.26H300.67c.06,3.46,2.38,5.84,6.4,5.84a10.5,10.5,0,0,0,4.76-1.05l-.77,2.5a10.18,10.18,0,0,1-4.79,1c-5,0-8-3.34-8-8.41s3.09-8.19,7.7-8.19c4.08,0,6.34,2.56,6.34,6.21A7.81,7.81,0,0,1,312,330.26Zm-11.17-1.77H310c-.13-2.9-1.43-4.45-4-4.45A5,5,0,0,0,300.82,328.49Z"/><path class="cls-10" d="M333.05,337l-.13-2.6a11.55,11.55,0,0,0,6.68,1.95c2.72,0,4.39-1,4.39-2.88,0-3.77-10.66-.62-10.66-6.65,0-2.69,2.19-4.94,7-4.94,3.21,0,5.53.92,5.53,2.47a2.44,2.44,0,0,1-.37,1.11,12.74,12.74,0,0,0-5.38-1.33c-2.72,0-4.42,1-4.42,2.48,0,3.46,10.76.74,10.76,6.64,0,3.38-2.82,5.29-7.08,5.29A12.69,12.69,0,0,1,333.05,337Z"/><path class="cls-10" d="M364.4,336.13v2h-15v-2h6.34V324.32h-6.34v-2h8.75v13.82ZM357.94,316v3h-2.63v-3Z"/><path class="cls-10" d="M381.1,337.28l-2.32,1.23-1-2.29a6.36,6.36,0,0,1-4.91,2.29c-4,0-6.06-3.31-6.06-8.25,0-5.45,2.31-8.35,6.4-8.35a5.16,5.16,0,0,1,4.39,2.1v-8.47H380v19.35ZM377.55,335v-9.31a5.13,5.13,0,0,0-3.68-1.55c-3,0-4.61,2.11-4.61,6.13,0,3.86,1.58,6.06,4.48,6.06A6.39,6.39,0,0,0,377.55,335Z"/><path class="cls-10" d="M397.8,330.26H386.49c.06,3.46,2.38,5.84,6.4,5.84a10.5,10.5,0,0,0,4.76-1.05l-.78,2.5a10.15,10.15,0,0,1-4.79,1c-5,0-8-3.34-8-8.41s3.09-8.19,7.7-8.19c4.08,0,6.34,2.56,6.34,6.21A7.45,7.45,0,0,1,397.8,330.26Zm-11.16-1.77h9.12c-.12-2.9-1.42-4.45-4-4.45A5,5,0,0,0,386.64,328.49Z"/><path class="cls-10" d="M431.39,326.89v11.22H429V327.72c0-2.44-1-3.59-3-3.59a8.75,8.75,0,0,0-4.23,1.3v12.68H419.3V325.53L418.15,323l2.29-1.11,1.14,2.44a8.73,8.73,0,0,1,5.48-2.44C430.09,321.91,431.39,323.79,431.39,326.89Z"/><path class="cls-10" d="M448.49,328.34v9.77h-2.2l-.09-2.44a9.42,9.42,0,0,1-6.59,2.84,4,4,0,0,1-4.2-4.33c0-2.25,1.36-4.45,6.58-5.47l4.09-.74c-.13-2.94-1.92-3.77-4.58-3.77a12.12,12.12,0,0,0-5.19,1.14,3.51,3.51,0,0,1-.13-.87c0-1.85,3.16-2.56,5.85-2.56C446.42,321.91,448.49,323.89,448.49,328.34Zm-8.07,8.19a8.84,8.84,0,0,0,5.66-2.13v-4.73l-3.75.77c-3,.56-4.39,1.76-4.39,3.62A2.29,2.29,0,0,0,440.42,336.53Z"/><path class="cls-10" d="M-9.93,365.28l-.56-8.13h3L-8,365.28Zm10.48,0L0,357.15H3l-.56,8.13Z"/><path class="cls-10" d="M20.37,376.32l-.46,2.26a12.21,12.21,0,0,1-3.53.55c-4.11,0-5.9-2-5.9-5.22V365H5.9v-2h4.58v-4.61h2.38v4.61h6.86v2H12.86v8.26c0,2.53,1.36,3.71,3.89,3.71A10.09,10.09,0,0,0,20.37,376.32Z"/><path class="cls-10" d="M39,364.14a1.47,1.47,0,0,1-1.64,1.54,1.86,1.86,0,0,1-1.61-.68,24.85,24.85,0,0,0-5.84,2.78v9h5.35v2H23.43v-2h4.09V364.94H23.43v-2h5.82l.62,3c2.53-1.95,5.65-3.43,7.57-3.43A1.5,1.5,0,0,1,39,364.14Z"/><path class="cls-10" d="M54.91,378l-2.29,1.11-1-2.19a10.25,10.25,0,0,1-5.75,2.19c-2.9,0-4.14-1.88-4.14-5V362.93h2.41v10.45c0,2.38,1,3.53,3,3.53a9,9,0,0,0,4.21-1.27V362.93h2.41v12.62Z"/><path class="cls-10" d="M71.71,370.88H60.39c.06,3.46,2.38,5.84,6.4,5.84a10.5,10.5,0,0,0,4.76-1.05l-.77,2.5a10.19,10.19,0,0,1-4.8,1c-5,0-8-3.34-8-8.41s3.1-8.19,7.7-8.19c4.09,0,6.34,2.56,6.34,6.21A7.88,7.88,0,0,1,71.71,370.88Zm-11.17-1.77h9.12c-.12-2.9-1.42-4.45-4-4.45A5,5,0,0,0,60.54,369.11Z"/><path class="cls-10" d="M75.88,365.28l-.56-8.13h3l-.52,8.13Zm10.48,0-.55-8.13h3l-.56,8.13Z"/><path class="cls-10" d="M91.93,376.66v-2.6l11.32-4.7-11.32-4.73V362l14.6,6.28v2Z"/><path class="cls-10" d="M123.72,376.66l-14.6-6.31v-2l14.6-6.28v2.6l-11.32,4.73,11.32,4.7Z"/><path class="cls-10" d="M127.09,377.59,127,375a11.52,11.52,0,0,0,6.68,1.95c2.72,0,4.39-1,4.39-2.88,0-3.77-10.67-.62-10.67-6.65,0-2.69,2.2-4.94,7-4.94,3.21,0,5.53.92,5.53,2.47a2.33,2.33,0,0,1-.37,1.11,12.7,12.7,0,0,0-5.38-1.33c-2.72,0-4.42,1-4.42,2.48,0,3.46,10.76.74,10.76,6.64,0,3.38-2.81,5.29-7.08,5.29A12.75,12.75,0,0,1,127.09,377.59Z"/><path class="cls-10" d="M157.83,370.81c0,5.42-2.32,8.32-6.4,8.32a5.09,5.09,0,0,1-4.39-2.07v7.79h-2.41V366.27l-1.18-2.35,2.32-1.24,1,2.14a6.45,6.45,0,0,1,5-2.29C155.79,362.53,157.83,365.84,157.83,370.81Zm-2.51,0c0-3.83-1.57-6.06-4.48-6.06a6.19,6.19,0,0,0-3.8,1.36v9.31a5.1,5.1,0,0,0,3.68,1.52C153.75,376.91,155.32,374.8,155.32,370.78Z"/><path class="cls-10" d="M173.88,369v9.77h-2.2l-.09-2.44a9.42,9.42,0,0,1-6.59,2.84,4,4,0,0,1-4.2-4.33c0-2.25,1.36-4.45,6.59-5.47l4.08-.74c-.13-2.94-1.92-3.77-4.58-3.77A12.16,12.16,0,0,0,161.7,366a3.51,3.51,0,0,1-.13-.87c0-1.85,3.16-2.56,5.85-2.56C171.81,362.53,173.88,364.51,173.88,369Zm-8.07,8.19a8.84,8.84,0,0,0,5.66-2.13v-4.73l-3.74.77c-3,.56-4.39,1.76-4.39,3.62A2.28,2.28,0,0,0,165.81,377.15Z"/><path class="cls-10" d="M191.1,367.51v11.22h-2.41V368.34c0-2.44-1-3.59-3-3.59a8.72,8.72,0,0,0-4.23,1.3v12.68H179V366.14l-1.14-2.5,2.29-1.11L181.3,365a8.7,8.7,0,0,1,5.48-2.44C189.81,362.53,191.1,364.41,191.1,367.51Z"/><path class="cls-10" d="M212.57,370.81c0-4.94,3.52-8.28,8.87-8.28,3,0,5,1,5,2.22a1.73,1.73,0,0,1-.46,1.18,10.17,10.17,0,0,0-4.55-1c-4,0-6.37,2.29-6.37,5.87s2.45,5.94,6.53,5.94a12.34,12.34,0,0,0,5-1.05l-.62,2.54a12.51,12.51,0,0,1-4.92.89C215.81,379.13,212.57,375.76,212.57,370.81Z"/><path class="cls-10" d="M244.14,376l-.56,2.23a14.54,14.54,0,0,1-5.22.89c-2.79,0-4.21-1-4.21-3.89v-17h-5.6v-2.1h8v18.43c0,1.67.62,2.32,3,2.32A16.14,16.14,0,0,0,244.14,376Z"/><path class="cls-10" d="M259.69,369v9.77H257.5l-.09-2.44a9.44,9.44,0,0,1-6.59,2.84,4,4,0,0,1-4.21-4.33c0-2.25,1.37-4.45,6.59-5.47l4.08-.74c-.12-2.94-1.91-3.77-4.57-3.77a12.17,12.17,0,0,0-5.2,1.14,4.06,4.06,0,0,1-.12-.87c0-1.85,3.15-2.56,5.84-2.56C257.62,362.53,259.69,364.51,259.69,369Zm-8.07,8.19a8.84,8.84,0,0,0,5.66-2.13v-4.73l-3.74.77c-3,.56-4.39,1.76-4.39,3.62A2.28,2.28,0,0,0,251.62,377.15Z"/><path class="cls-10" d="M264.4,377.59l-.13-2.6a11.52,11.52,0,0,0,6.68,1.95c2.72,0,4.39-1,4.39-2.88,0-3.77-10.67-.62-10.67-6.65,0-2.69,2.2-4.94,7-4.94,3.22,0,5.54.92,5.54,2.47a2.44,2.44,0,0,1-.37,1.11,12.78,12.78,0,0,0-5.38-1.33c-2.72,0-4.43,1-4.43,2.48,0,3.46,10.77.74,10.77,6.64,0,3.38-2.82,5.29-7.09,5.29A12.67,12.67,0,0,1,264.4,377.59Z"/><path class="cls-10" d="M281.56,377.59l-.12-2.6a11.49,11.49,0,0,0,6.67,1.95c2.73,0,4.4-1,4.4-2.88,0-3.77-10.67-.62-10.67-6.65,0-2.69,2.19-4.94,7-4.94,3.21,0,5.53.92,5.53,2.47a2.33,2.33,0,0,1-.37,1.11,12.7,12.7,0,0,0-5.38-1.33c-2.72,0-4.42,1-4.42,2.48,0,3.46,10.76.74,10.76,6.64,0,3.38-2.82,5.29-7.08,5.29A12.75,12.75,0,0,1,281.56,377.59Z"/><path class="cls-10" d="M297.89,367.75v-2.32h14.65v2.32Zm0,5.6v-2.29h14.65v2.29Z"/><path class="cls-10" d="M316.16,365.28l-.55-8.13h3l-.53,8.13Zm10.49,0-.56-8.13h3l-.56,8.13Z"/><path class="cls-10" d="M346.59,366.39v12.34h-2.38V367.2c0-1.83-.4-2.48-1.51-2.48a3.52,3.52,0,0,0-1.95.74c0,.28,0,.62,0,.93v12.34H338.4V367.2c0-1.83-.44-2.48-1.52-2.48a3.52,3.52,0,0,0-1.95.74v13.27h-2.41V366.11l-1.2-2.44,2.35-1.11,1,2.1a5,5,0,0,1,3.61-2.1,2.16,2.16,0,0,1,2.32,1.95,4.92,4.92,0,0,1,3.5-1.95C346.13,362.56,346.59,364.17,346.59,366.39Z"/><path class="cls-10" d="M362.67,369v9.77h-2.19l-.1-2.44a9.4,9.4,0,0,1-6.58,2.84,4,4,0,0,1-4.21-4.33c0-2.25,1.36-4.45,6.59-5.47l4.08-.74c-.12-2.94-1.92-3.77-4.58-3.77a12.16,12.16,0,0,0-5.19,1.14,4.06,4.06,0,0,1-.12-.87c0-1.85,3.15-2.56,5.84-2.56C360.6,362.53,362.67,364.51,362.67,369Zm-8.07,8.19a8.84,8.84,0,0,0,5.66-2.13v-4.73l-3.74.77c-3,.56-4.39,1.76-4.39,3.62A2.28,2.28,0,0,0,354.6,377.15Z"/><path class="cls-10" d="M380.79,376.32l-.46,2.26a12.08,12.08,0,0,1-3.52.55c-4.12,0-5.91-2-5.91-5.22V365h-4.58v-2h4.58v-4.61h2.38v4.61h6.86v2h-6.86v8.26c0,2.53,1.36,3.71,3.9,3.71A10,10,0,0,0,380.79,376.32Z"/><path class="cls-10" d="M397.8,370.88H386.49c.06,3.46,2.38,5.84,6.4,5.84a10.5,10.5,0,0,0,4.76-1.05l-.78,2.5a10.15,10.15,0,0,1-4.79,1c-5,0-8-3.34-8-8.41s3.09-8.19,7.7-8.19c4.08,0,6.34,2.56,6.34,6.21A7.5,7.5,0,0,1,397.8,370.88Zm-11.16-1.77h9.12c-.12-2.9-1.42-4.45-4-4.45A5,5,0,0,0,386.64,369.11Z"/><path class="cls-10" d="M416.6,364.14a1.46,1.46,0,0,1-1.63,1.54,1.86,1.86,0,0,1-1.61-.68,25.11,25.11,0,0,0-5.85,2.78v9h5.35v2H401v-2h4.08V364.94H401v-2h5.81l.62,3c2.54-1.95,5.66-3.43,7.58-3.43A1.49,1.49,0,0,1,416.6,364.14Z"/><path class="cls-10" d="M433.06,376.75v2H418v-2h6.34V364.94H418v-2h8.75v13.82Zm-6.47-20.16v3H424v-3Z"/><path class="cls-10" d="M448.49,369v9.77h-2.2l-.09-2.44a9.42,9.42,0,0,1-6.59,2.84,4,4,0,0,1-4.2-4.33c0-2.25,1.36-4.45,6.58-5.47l4.09-.74c-.13-2.94-1.92-3.77-4.58-3.77a12.12,12.12,0,0,0-5.19,1.14,3.51,3.51,0,0,1-.13-.87c0-1.85,3.16-2.56,5.85-2.56C446.42,362.53,448.49,364.51,448.49,369Zm-8.07,8.19a8.84,8.84,0,0,0,5.66-2.13v-4.73l-3.75.77c-3,.56-4.39,1.76-4.39,3.62A2.29,2.29,0,0,0,440.42,377.15Z"/><path class="cls-10" d="M2.25,409.58v9.77H.05L0,416.91a9.42,9.42,0,0,1-6.59,2.84,4,4,0,0,1-4.2-4.33c0-2.25,1.36-4.45,6.59-5.47l4.08-.74c-.13-2.94-1.92-3.77-4.58-3.77a12.16,12.16,0,0,0-5.19,1.14,3.51,3.51,0,0,1-.13-.87c0-1.85,3.16-2.56,5.85-2.56C.18,403.15,2.25,405.13,2.25,409.58Zm-8.07,8.19a8.84,8.84,0,0,0,5.66-2.13v-4.73l-3.74.77c-3,.56-4.4,1.76-4.4,3.62A2.29,2.29,0,0,0-5.82,417.77Z"/><path class="cls-10" d="M12.05,419.35,5.4,403.55H8l4.73,11.66.65,1.73h.1l.65-1.73,4.73-11.66h2.56l-6.61,15.8Z"/><path class="cls-10" d="M23.28,411.22v-2.35H37.94v2.35Z"/><path class="cls-10" d="M54.7,416.94l-.47,2.26a12.08,12.08,0,0,1-3.52.55c-4.11,0-5.91-2-5.91-5.22v-8.94H40.23v-2H44.8v-4.61h2.38v4.61h6.87v2H47.18v8.26c0,2.53,1.36,3.71,3.9,3.71A10.09,10.09,0,0,0,54.7,416.94Z"/><path class="cls-10" d="M57.82,411.43c0-5,2.78-8.28,7.11-8.28S72,406.43,72,411.43s-2.75,8.32-7.08,8.32S57.82,416.51,57.82,411.43Zm11.69,0c0-3.95-1.79-6.09-4.58-6.09s-4.6,2.17-4.6,6.09,1.85,6.13,4.6,6.13S69.51,415.42,69.51,411.43Z"/><path class="cls-10" d="M86.36,403.55h1.86V419.6c0,5.59-5.13,6.24-7.64,6.24a10.16,10.16,0,0,1-4.14-.8l-.34-2.29a9.55,9.55,0,0,0,4.05,1c2.56,0,5.63-.68,5.63-4.27v-2a7.05,7.05,0,0,1-4.64,1.8c-4,0-6.12-3.09-6.12-8.07s2.28-8,6.61-8a5.42,5.42,0,0,1,4.49,2.16Zm-.58,12.34V406.7a5.6,5.6,0,0,0-3.53-1.33c-3.09,0-4.7,2-4.7,5.82s1.61,5.87,4.48,5.87A6.83,6.83,0,0,0,85.78,415.89Z"/><path class="cls-10" d="M103.53,403.55h1.85V419.6c0,5.59-5.13,6.24-7.64,6.24a10.16,10.16,0,0,1-4.14-.8l-.34-2.29a9.55,9.55,0,0,0,4,1c2.57,0,5.63-.68,5.63-4.27v-2a7,7,0,0,1-4.64,1.8c-4,0-6.12-3.09-6.12-8.07s2.29-8,6.62-8a5.4,5.4,0,0,1,4.48,2.16Zm-.59,12.34V406.7a5.6,5.6,0,0,0-3.53-1.33c-3.09,0-4.7,2-4.7,5.82s1.61,5.87,4.49,5.87A6.78,6.78,0,0,0,102.94,415.89Z"/><path class="cls-10" d="M124,416.63l-.56,2.23a14.58,14.58,0,0,1-5.22.89c-2.79,0-4.21-1-4.21-3.89v-17h-5.6v-2.1h8v18.43c0,1.67.62,2.32,3,2.32A16.14,16.14,0,0,0,124,416.63Z"/><path class="cls-10" d="M140.36,411.5H129c.06,3.46,2.38,5.84,6.4,5.84a10.5,10.5,0,0,0,4.76-1l-.77,2.5a10.18,10.18,0,0,1-4.79,1c-5,0-8-3.34-8-8.41s3.09-8.19,7.7-8.19c4.08,0,6.34,2.56,6.34,6.21A7.87,7.87,0,0,1,140.36,411.5Zm-11.17-1.77h9.13c-.13-2.9-1.43-4.45-4-4.45A5,5,0,0,0,129.19,409.73Z"/><path class="cls-10" d="M143.42,411.22v-2.35h14.66v2.35Z"/><path class="cls-10" d="M175.61,417.37v2h-15v-2h6.34V405.56h-6.34v-2h8.75v13.82Zm-6.46-20.16v3h-2.63v-3Z"/><path class="cls-10" d="M178.24,411.43c0-4.94,3.53-8.28,8.88-8.28,3,0,5,1,5,2.22a1.74,1.74,0,0,1-.47,1.18,10.16,10.16,0,0,0-4.54-1c-4,0-6.37,2.29-6.37,5.87s2.44,5.94,6.52,5.94a12.34,12.34,0,0,0,5-1.05l-.62,2.54a12.51,12.51,0,0,1-4.92.89C181.49,419.75,178.24,416.38,178.24,411.43Z"/><path class="cls-10" d="M195.13,411.43c0-5,2.78-8.28,7.11-8.28s7.08,3.28,7.08,8.28-2.75,8.32-7.08,8.32S195.13,416.51,195.13,411.43Zm11.68,0c0-3.95-1.79-6.09-4.57-6.09s-4.61,2.17-4.61,6.09,1.86,6.13,4.61,6.13S206.81,415.42,206.81,411.43Z"/><path class="cls-10" d="M225.43,408.13v11.22H223V409c0-2.44-1-3.59-3-3.59a8.76,8.76,0,0,0-4.24,1.3v12.68h-2.41V406.77l-1.14-2.51,2.28-1.11,1.15,2.44a8.7,8.7,0,0,1,5.47-2.44C224.13,403.15,225.43,405,225.43,408.13Z"/><path class="cls-10" d="M230.35,405.9l-.56-8.13h3l-.52,8.13Zm10.48,0-.56-8.13h3l-.55,8.13Z"/><path class="cls-10" d="M246.4,417.28v-2.6l11.32-4.7-11.32-4.73v-2.6L261,408.93v2Z"/><path class="cls-10" d="M278.19,417.28,263.59,411v-2l14.6-6.28v2.6L266.87,410l11.32,4.7Z"/><path class="cls-10" d="M280,422.66l13.67-25.3h2.38l-13.67,25.3Z"/><path class="cls-10" d="M298.72,418.21l-.12-2.6a11.52,11.52,0,0,0,6.68,1.95c2.72,0,4.39-1,4.39-2.88,0-3.77-10.67-.62-10.67-6.65,0-2.69,2.2-4.94,7-4.94,3.21,0,5.53.92,5.53,2.47a2.33,2.33,0,0,1-.37,1.11,12.7,12.7,0,0,0-5.38-1.33c-2.72,0-4.42,1.05-4.42,2.48,0,3.46,10.76.74,10.76,6.64,0,3.38-2.81,5.29-7.08,5.29A12.75,12.75,0,0,1,298.72,418.21Z"/><path class="cls-10" d="M329.46,411.43c0,5.42-2.32,8.32-6.4,8.32a5.09,5.09,0,0,1-4.39-2.07v7.79h-2.41V406.89l-1.18-2.35,2.32-1.24,1,2.14a6.45,6.45,0,0,1,4.95-2.29C327.42,403.15,329.46,406.46,329.46,411.43Zm-2.5,0c0-3.83-1.58-6.06-4.49-6.06a6.19,6.19,0,0,0-3.8,1.36V416a5.1,5.1,0,0,0,3.68,1.52C325.38,417.53,327,415.42,327,411.4Z"/><path class="cls-10" d="M345.51,409.58v9.77h-2.2l-.09-2.44a9.41,9.41,0,0,1-6.58,2.84,4,4,0,0,1-4.21-4.33c0-2.25,1.36-4.45,6.59-5.47l4.08-.74c-.13-2.94-1.92-3.77-4.58-3.77a12.16,12.16,0,0,0-5.19,1.14,3.51,3.51,0,0,1-.13-.87c0-1.85,3.16-2.56,5.85-2.56C343.44,403.15,345.51,405.13,345.51,409.58Zm-8.07,8.19a8.84,8.84,0,0,0,5.66-2.13v-4.73l-3.74.77c-3,.56-4.39,1.76-4.39,3.62A2.28,2.28,0,0,0,337.44,417.77Z"/><path class="cls-10" d="M362.73,408.13v11.22h-2.41V409c0-2.44-1-3.59-3-3.59a8.72,8.72,0,0,0-4.23,1.3v12.68h-2.42V406.77l-1.14-2.51,2.29-1.11,1.14,2.44a8.7,8.7,0,0,1,5.48-2.44C361.44,403.15,362.73,405,362.73,408.13Z"/><path class="cls-10" d="M366.54,417.28v-2.6l11.32-4.7-11.32-4.73v-2.6l14.59,6.28v2Z"/><path class="cls-10" d="M398.33,417.28,383.73,411v-2l14.6-6.28v2.6L387,410l11.32,4.7Z"/><path class="cls-10" d="M400.15,422.66l13.67-25.3h2.38l-13.66,25.3Z"/><path class="cls-10" d="M432.44,411.43c0,5.42-2.32,8.32-6.37,8.32a5.05,5.05,0,0,1-4.67-2.5l-.59,2.1h-1.54V396.78h2.41v8.41a6.27,6.27,0,0,1,4.7-2C430.4,403.15,432.44,406.46,432.44,411.43Zm-2.51,0c0-3.83-1.57-6.06-4.45-6.06a6.19,6.19,0,0,0-3.8,1.36V416a5.18,5.18,0,0,0,3.65,1.49C428.36,417.53,429.93,415.42,429.93,411.4Z"/><path class="cls-10" d="M449.66,418.64l-2.29,1.11-1-2.19a10.25,10.25,0,0,1-5.75,2.19c-2.9,0-4.14-1.88-4.14-5V403.55h2.41V414c0,2.38,1,3.53,3,3.53a9,9,0,0,0,4.21-1.27V403.55h2.41v12.62Z"/></g></g><g class="cls-11"><g class="cls-12"><g class="cls-13"><rect class="cls-3" x="-1147.25" y="403.64" width="1440" height="810"/><g class="cls-14"><rect class="cls-3" x="-157.25" y="403.64" width="270" height="270"/><line class="cls-15" x1="-157.25" y1="428.19" x2="112.75" y2="428.19"/><line class="cls-15" x1="-157.25" y1="403.64" x2="112.75" y2="403.64"/><line class="cls-15" x1="14.57" y1="403.64" x2="14.57" y2="673.64"/><line class="cls-15" x1="39.12" y1="403.64" x2="39.12" y2="673.64"/><line class="cls-15" x1="63.66" y1="403.64" x2="63.66" y2="673.64"/><line class="cls-15" x1="88.21" y1="403.64" x2="88.21" y2="673.64"/><line class="cls-15" x1="112.75" y1="403.64" x2="112.75" y2="673.64"/><rect class="cls-3" x="112.75" y="403.64" width="270" height="270"/><line class="cls-15" x1="112.75" y1="403.64" x2="112.75" y2="673.64"/><line class="cls-15" x1="112.75" y1="428.19" x2="382.75" y2="428.19"/><line class="cls-15" x1="112.75" y1="403.64" x2="382.75" y2="403.64"/><line class="cls-15" x1="137.3" y1="403.64" x2="137.3" y2="673.64"/><line class="cls-15" x1="161.85" y1="403.64" x2="161.85" y2="673.64"/><line class="cls-15" x1="186.39" y1="403.64" x2="186.39" y2="673.64"/><line class="cls-15" x1="210.94" y1="403.64" x2="210.94" y2="673.64"/><line class="cls-15" x1="235.48" y1="403.64" x2="235.48" y2="673.64"/><line class="cls-15" x1="260.03" y1="403.64" x2="260.03" y2="673.64"/><line class="cls-15" x1="284.57" y1="403.64" x2="284.57" y2="673.64"/><line class="cls-15" x1="309.12" y1="403.64" x2="309.12" y2="673.64"/><line class="cls-15" x1="333.66" y1="403.64" x2="333.66" y2="673.64"/><line class="cls-15" x1="358.21" y1="403.64" x2="358.21" y2="673.64"/><line class="cls-15" x1="382.75" y1="403.64" x2="382.75" y2="673.64"/></g><line class="cls-16" x1="112.75" y1="403.64" x2="112.75" y2="1213.64"/></g></g></g><g class="cls-17"><g class="cls-18"><g class="cls-17"><rect class="cls-2" x="-500" y="403.64" width="1440" height="810"/><g class="cls-19"><rect class="cls-2" x="-50" y="403.64" width="270" height="270"/><line class="cls-20" x1="-50" y1="428.19" x2="220" y2="428.19"/><line class="cls-20" x1="-50" y1="403.64" x2="220" y2="403.64"/><line class="cls-20" x1="23.64" y1="403.64" x2="23.64" y2="673.64"/><line class="cls-20" x1="48.18" y1="403.64" x2="48.18" y2="673.64"/><line class="cls-20" x1="72.73" y1="403.64" x2="72.73" y2="673.64"/><line class="cls-20" x1="97.27" y1="403.64" x2="97.27" y2="673.64"/><line class="cls-20" x1="121.82" y1="403.64" x2="121.82" y2="673.64"/><line class="cls-20" x1="146.36" y1="403.64" x2="146.36" y2="673.64"/><line class="cls-20" x1="170.91" y1="403.64" x2="170.91" y2="673.64"/><line class="cls-20" x1="195.45" y1="403.64" x2="195.45" y2="673.64"/><line class="cls-20" x1="220" y1="403.64" x2="220" y2="673.64"/><rect class="cls-2" x="220" y="403.64" width="270" height="270"/><line class="cls-20" x1="220" y1="403.64" x2="220" y2="673.64"/><line class="cls-20" x1="220" y1="428.19" x2="490" y2="428.19"/><line class="cls-20" x1="220" y1="403.64" x2="490" y2="403.64"/><line class="cls-20" x1="244.55" y1="403.64" x2="244.55" y2="673.64"/><line class="cls-20" x1="269.09" y1="403.64" x2="269.09" y2="673.64"/><line class="cls-20" x1="293.64" y1="403.64" x2="293.64" y2="673.64"/><line class="cls-20" x1="318.18" y1="403.64" x2="318.18" y2="673.64"/><line class="cls-20" x1="342.73" y1="403.64" x2="342.73" y2="673.64"/><line class="cls-20" x1="367.27" y1="403.64" x2="367.27" y2="673.64"/><line class="cls-20" x1="391.82" y1="403.64" x2="391.82" y2="673.64"/><line class="cls-20" x1="416.36" y1="403.64" x2="416.36" y2="673.64"/></g><line class="cls-21" x1="220" y1="403.64" x2="220" y2="1213.64"/></g></g></g></g></svg>